<?xml version="1.0" encoding="UTF-8" standalone="no"?>
<!DOCTYPE svg PUBLIC "-//W3C//DTD SVG 1.1//EN" "http://www.w3.org/Graphics/SVG/1.1/DTD/svg11.dtd">
<svg width="100%" height="100%" viewBox="0 0 1001 501" version="1.1" xmlns="http://www.w3.org/2000/svg" xmlns:xlink="http://www.w3.org/1999/xlink" xml:space="preserve" xmlns:serif="http://www.serif.com/" style="fill-rule:evenodd;clip-rule:evenodd;stroke-linecap:round;stroke-linejoin:round;stroke-miterlimit:2;">
    <g transform="matrix(1,0,0,1,-1056,-3)">
        <g id="doublewide" transform="matrix(1,0,0,1,-0.630434,-0.407143)">
            <rect x="1056.63" y="3.407" width="1000.7" height="500.678" style="fill:none;"/>
            <g>
                <g transform="matrix(1.14761,0,0,1.14761,-160.017,1.14588)">
                    <text x="1069.72px" y="68.546px" style="font-family:'OpenSans-Regular', 'Open Sans', sans-serif;font-size:11.498px;fill:rgb(3,179,218);">risk factors to consider</text>
                    <text x="1069.72px" y="80.044px" style="font-family:'OpenSans-Regular', 'Open Sans', sans-serif;font-size:11.498px;fill:rgb(3,179,218);">people</text>
                    <text x="1109.55px" y="80.044px" style="font-family:'OpenSans-Light', 'Open Sans', sans-serif;font-weight:300;font-size:11.498px;fill:rgb(163,163,163);">how many?</text>
                    <text x="1069.72px" y="91.542px" style="font-family:'OpenSans-Regular', 'Open Sans', sans-serif;font-size:11.498px;fill:rgb(3,179,218);">space</text>
                    <text x="1103.55px" y="91.542px" style="font-family:'OpenSans-Light', 'Open Sans', sans-serif;font-weight:300;font-size:11.498px;fill:rgb(163,163,163);">how close is the contact?</text>
                    <text x="1069.72px" y="103.04px" style="font-family:'OpenSans-Regular', 'Open Sans', sans-serif;font-size:11.498px;fill:rgb(3,179,218);">time</text>
                    <text x="1096.82px" y="103.04px" style="font-family:'OpenSans-Light', 'Open Sans', sans-serif;font-weight:300;font-size:11.498px;fill:rgb(163,163,163);">how long is the exposure?</text>
                    <text x="1069.72px" y="114.538px" style="font-family:'OpenSans-Regular', 'Open Sans', sans-serif;font-size:11.498px;fill:rgb(3,179,218);">location</text>
                    <text x="1115.39px" y="114.538px" style="font-family:'OpenSans-Light', 'Open Sans', sans-serif;font-weight:300;font-size:11.498px;fill:rgb(163,163,163);">inside or outside?</text>
                    <text x="1069.72px" y="126.036px" style="font-family:'OpenSans-Regular', 'Open Sans', sans-serif;font-size:11.498px;fill:rgb(3,179,218);">surfaces</text>
                    <text x="1117.64px" y="126.036px" style="font-family:'OpenSans-Light', 'Open Sans', sans-serif;font-weight:300;font-size:11.498px;fill:rgb(163,163,163);">lots of high touch?</text>
                    <text x="1069.72px" y="137.534px" style="font-family:'OpenSans-Regular', 'Open Sans', sans-serif;font-size:11.498px;fill:rgb(3,179,218);">area</text>
                    <text x="1096.64px" y="137.534px" style="font-family:'OpenSans-Light', 'Open Sans', sans-serif;font-weight:300;font-size:11.498px;fill:rgb(163,163,163);">high number of cases?</text>
                    <text x="1069.72px" y="149.032px" style="font-family:'OpenSans-Regular', 'Open Sans', sans-serif;font-size:11.498px;fill:rgb(3,179,218);">covidiocy</text>
                    <text x="1121.96px" y="149.032px" style="font-family:'OpenSans-Light', 'Open Sans', sans-serif;font-weight:300;font-size:11.498px;fill:rgb(163,163,163);">how likely is compliance?</text>
                </g>
                <g transform="matrix(1.03366,0,0,1,-35.3708,0.135835)">
                    <path d="M1139.39,229.991C1139.39,226.211 1136.42,223.142 1132.76,223.142L1076.16,223.142C1072.51,223.142 1069.54,226.211 1069.54,229.991L1069.54,239.956C1069.54,243.736 1072.51,246.805 1076.16,246.805L1132.76,246.805C1136.42,246.805 1139.39,243.736 1139.39,239.956L1139.39,229.991Z" style="fill:none;stroke:rgb(246,173,48);stroke-width:0.98px;"/>
                </g>
                <g transform="matrix(1.45432,0,0,1,-155.61,-130.625)">
                    <path d="M1139.39,229.991C1139.39,226.211 1137.28,223.142 1134.68,223.142L1074.25,223.142C1071.65,223.142 1069.54,226.211 1069.54,229.991L1069.54,239.956C1069.54,243.736 1071.65,246.805 1074.25,246.805L1134.68,246.805C1137.28,246.805 1139.39,243.736 1139.39,239.956L1139.39,229.991Z" style="fill:none;stroke:rgb(239,132,44);stroke-width:0.8px;"/>
                </g>
                <g transform="matrix(1.14395,0,0,1,561.699,-209.172)">
                    <path d="M1139.39,229.991C1139.39,226.211 1136.71,223.142 1133.4,223.142L1075.52,223.142C1072.22,223.142 1069.54,226.211 1069.54,229.991L1069.54,239.956C1069.54,243.736 1072.22,246.805 1075.52,246.805L1133.4,246.805C1136.71,246.805 1139.39,243.736 1139.39,239.956L1139.39,229.991Z" style="fill:none;stroke:rgb(227,69,30);stroke-width:0.93px;"/>
                </g>
                <g transform="matrix(1,0,0,1,-4.88475,0.445482)">
                    <text x="1793.33px" y="30.887px" style="font-family:'OpenSans-Light', 'Open Sans', sans-serif;font-weight:300;font-size:15.464px;fill:rgb(227,69,30);">HIGH RISK</text>
                </g>
                <g transform="matrix(1,0,0,1,-391.316,78.9844)">
                    <text x="1793.33px" y="30.887px" style="font-family:'OpenSans-Light', 'Open Sans', sans-serif;font-weight:300;font-size:15.464px;fill:rgb(239,132,44);">MEDIUM RISK</text>
                </g>
                <g transform="matrix(1,0,0,1,-721.88,209.753)">
                    <text x="1793.33px" y="30.887px" style="font-family:'OpenSans-Light', 'Open Sans', sans-serif;font-weight:300;font-size:15.464px;fill:rgb(248,187,50);">LOW RISK</text>
                </g>
                <g transform="matrix(0.941189,0,0,0.941189,1051.14,-10.6477)">
                    <text x="18.544px" y="45.796px" style="font-family:'OpenSans-Regular', 'Open Sans', sans-serif;font-size:27.425px;fill:white;">Coronavirus Riskiest Activities</text>
                </g>
                <g transform="matrix(1,0,0,1,1043.55,-25.1263)">
                    <text x="24.252px" y="74.311px" style="font-family:'OpenSans-Light', 'Open Sans', sans-serif;font-weight:300;font-size:20px;fill:rgb(163,163,163);">According to 500+ epidemiologists &amp; health professionals</text>
                </g>
                <g transform="matrix(1,0,0,1,-5.15008,-2.94402)">
                    <circle cx="1101.11" cy="317.784" r="23.368" style="fill:rgb(251,210,86);"/>
                </g>
                <g transform="matrix(1,0,0,1,-4.14432,43.7968)">
                    <circle cx="1101.11" cy="317.784" r="23.368" style="fill:rgb(251,210,86);"/>
                </g>
                <g transform="matrix(1,0,0,1,2.49954,90.8777)">
                    <circle cx="1101.11" cy="317.784" r="23.368" style="fill:rgb(251,210,86);"/>
                </g>
                <g transform="matrix(1.21116,0,0,1.21116,-65.9056,-117.918)">
                    <circle cx="1101.11" cy="317.784" r="23.368" style="fill:rgb(246,173,48);"/>
                </g>
                <g transform="matrix(1.21116,0,0,1.21116,-55.4035,-58.6035)">
                    <circle cx="1101.11" cy="317.784" r="23.368" style="fill:rgb(246,173,48);"/>
                </g>
                <g transform="matrix(1.21116,0,0,1.21116,-67.1467,0.91179)">
                    <circle cx="1101.11" cy="317.784" r="23.368" style="fill:rgb(246,173,48);"/>
                </g>
                <g transform="matrix(1.21116,0,0,1.21116,-5.24915,15.0755)">
                    <circle cx="1101.11" cy="317.784" r="23.368" style="fill:rgb(246,173,48);"/>
                </g>
                <g transform="matrix(1.21116,0,0,1.21116,9.98999,-44.6501)">
                    <circle cx="1101.11" cy="317.784" r="23.368" style="fill:rgb(246,173,48);"/>
                </g>
                <g transform="matrix(1.21116,0,0,1.21116,-4.21442,-99.9829)">
                    <circle cx="1101.11" cy="317.784" r="23.368" style="fill:rgb(246,173,48);"/>
                </g>
                <g transform="matrix(1.21116,0,0,1.21116,-31.3551,-168.378)">
                    <circle cx="1101.11" cy="317.784" r="23.368" style="fill:rgb(246,173,48);"/>
                </g>
                <g transform="matrix(1.21116,0,0,1.21116,21.8891,-203.767)">
                    <circle cx="1101.11" cy="317.784" r="23.368" style="fill:rgb(246,173,48);"/>
                </g>
                <g transform="matrix(1.21116,0,0,1.21116,96.9297,-227.55)">
                    <circle cx="1101.11" cy="317.784" r="23.368" style="fill:rgb(244,160,47);"/>
                </g>
                <g transform="matrix(1.21116,0,0,1.21116,95.3208,-168.609)">
                    <circle cx="1101.11" cy="317.784" r="23.368" style="fill:rgb(244,160,47);"/>
                </g>
                <g transform="matrix(1.21116,0,0,1.21116,97.6541,-109.583)">
                    <circle cx="1101.11" cy="317.784" r="23.368" style="fill:rgb(244,160,47);"/>
                </g>
                <g transform="matrix(1.21116,0,0,1.21116,101.979,-51.101)">
                    <circle cx="1101.11" cy="317.784" r="23.368" style="fill:rgb(244,160,47);"/>
                </g>
                <g transform="matrix(1.21116,0,0,1.21116,94.5118,6.22508)">
                    <circle cx="1101.11" cy="317.784" r="23.368" style="fill:rgb(244,160,47);"/>
                </g>
                <g transform="matrix(1.21116,0,0,1.21116,155.593,-82.2933)">
                    <circle cx="1101.11" cy="317.784" r="23.368" style="fill:rgb(244,160,47);"/>
                </g>
                <g transform="matrix(1.21116,0,0,1.21116,152.346,-141.582)">
                    <circle cx="1101.11" cy="317.784" r="23.368" style="fill:rgb(244,160,47);"/>
                </g>
                <g transform="matrix(1.30911,0,0,1.30911,104.385,-201.559)">
                    <circle cx="1101.11" cy="317.784" r="23.368" style="fill:rgb(242,146,45);"/>
                </g>
                <g transform="matrix(1.30911,0,0,1.30911,109.798,-138.88)">
                    <circle cx="1101.11" cy="317.784" r="23.368" style="fill:rgb(242,146,45);"/>
                </g>
                <g transform="matrix(1.30911,0,0,1.30911,101.984,-76.5392)">
                    <circle cx="1101.11" cy="317.784" r="23.368" style="fill:rgb(242,146,45);"/>
                </g>
                <g transform="matrix(1.3766,0,0,1.3766,97.7489,-100.86)">
                    <circle cx="1101.11" cy="317.784" r="23.368" style="fill:rgb(239,132,44);"/>
                </g>
                <g transform="matrix(1.3766,0,0,1.3766,105.73,-166.847)">
                    <circle cx="1101.11" cy="317.784" r="23.368" style="fill:rgb(239,132,44);"/>
                </g>
                <g transform="matrix(1.3766,0,0,1.3766,99.235,-229.944)">
                    <circle cx="1101.11" cy="317.784" r="23.368" style="fill:rgb(239,132,44);"/>
                </g>
                <g transform="matrix(1.3766,0,0,1.3766,92.9453,-293.922)">
                    <circle cx="1101.11" cy="317.784" r="23.368" style="fill:rgb(239,132,44);"/>
                </g>
                <g transform="matrix(1.3766,0,0,1.3766,150.123,-335.316)">
                    <circle cx="1101.11" cy="317.784" r="23.368" style="fill:rgb(238,118,42);"/>
                </g>
                <g transform="matrix(1.3766,0,0,1.3766,209.856,-376.322)">
                    <circle cx="1101.11" cy="317.784" r="23.368" style="fill:rgb(238,118,42);"/>
                </g>
                <g transform="matrix(1.43755,0,0,1.43755,153.012,-329.813)">
                    <circle cx="1101.11" cy="317.784" r="23.368" style="fill:rgb(238,118,42);"/>
                </g>
                <g transform="matrix(1.43755,0,0,1.43755,94.4963,-288.645)">
                    <circle cx="1101.11" cy="317.784" r="23.368" style="fill:rgb(238,118,42);"/>
                </g>
                <g transform="matrix(1.43755,0,0,1.43755,104.554,-219.886)">
                    <circle cx="1101.11" cy="317.784" r="23.368" style="fill:rgb(238,118,42);"/>
                </g>
                <g transform="matrix(1.43755,0,0,1.43755,113.296,-154)">
                    <circle cx="1101.11" cy="317.784" r="23.368" style="fill:rgb(238,118,42);"/>
                </g>
                <g transform="matrix(1.43755,0,0,1.43755,114.461,-88.6997)">
                    <circle cx="1101.11" cy="317.784" r="23.368" style="fill:rgb(238,118,42);"/>
                </g>
                <g transform="matrix(1.72219,0,0,1.72219,-73.4144,-468.481)">
                    <circle cx="1101.11" cy="317.784" r="23.368" style="fill:rgb(236,105,41);"/>
                </g>
                <g transform="matrix(1.72219,0,0,1.72219,-68.869,-387.517)">
                    <circle cx="1101.11" cy="317.784" r="23.368" style="fill:rgb(236,105,41);"/>
                </g>
                <g transform="matrix(1.72219,0,0,1.72219,-72.9208,-308.561)">
                    <circle cx="1101.11" cy="317.784" r="23.368" style="fill:rgb(236,105,41);"/>
                </g>
                <g transform="matrix(1.72219,0,0,1.72219,-71.4737,-228.908)">
                    <circle cx="1101.11" cy="317.784" r="23.368" style="fill:rgb(236,105,41);"/>
                </g>
                <g transform="matrix(1.72219,0,0,1.72219,-76.37,-146.185)">
                    <circle cx="1101.11" cy="317.784" r="23.368" style="fill:rgb(236,105,41);"/>
                </g>
                <g transform="matrix(1.72219,0,0,1.72219,2.75179,-139.504)">
                    <circle cx="1101.11" cy="317.784" r="23.368" style="fill:rgb(236,105,41);"/>
                </g>
                <g transform="matrix(1.72219,0,0,1.72219,47.3523,-206.496)">
                    <circle cx="1101.11" cy="317.784" r="23.368" style="fill:rgb(227,69,30);"/>
                </g>
                <g transform="matrix(1,0,0,1,0.630434,0.407143)">
                    <path d="M1392.35,60.785L1392.35,443.493" style="fill:none;stroke:rgb(163,163,163);stroke-width:0.6px;stroke-dasharray:0.6,1.8,0,0;stroke-dashoffset:0.6;"/>
                </g>
                <g transform="matrix(1,0,0,1.13367,385.052,-58.8754)">
                    <path d="M1392.35,60.785L1392.35,443.493" style="fill:none;stroke:rgb(163,163,163);stroke-width:0.56px;stroke-dasharray:0.56,1.68,0,0;stroke-dashoffset:0.56;"/>
                </g>
                <g transform="matrix(1,0,0,1,0.630434,0.407143)">
                    <path d="M1074.6,464.526L1904.76,464.526" style="fill:none;stroke:rgb(163,163,163);stroke-width:1px;"/>
                </g>
                <g transform="matrix(1,0,0,1,0.630434,0.407143)">
                    <path d="M2014.46,464.526L2041.38,464.526" style="fill:none;stroke:rgb(163,163,163);stroke-width:1px;"/>
                </g>
                <g transform="matrix(-8.38894e-17,0.46546,-0.394918,-7.41597e-17,2221.34,-487.89)">
                    <path d="M2047.06,443.493L2055.35,454.104L2038.77,454.104L2047.06,443.493Z" style="fill:rgb(163,163,163);stroke:rgb(163,163,163);stroke-width:2.32px;"/>
                </g>
                <g transform="matrix(1.72219,0,0,1.72219,0.383324,-277.582)">
                    <circle cx="1101.11" cy="317.784" r="23.368" style="fill:rgb(227,69,30);"/>
                </g>
                <g transform="matrix(1.72219,0,0,1.72219,8.43111,-356.711)">
                    <circle cx="1101.11" cy="317.784" r="23.368" style="fill:rgb(227,69,30);"/>
                </g>
                <g transform="matrix(1.72219,0,0,1.72219,11.0387,-436.868)">
                    <circle cx="1101.11" cy="317.784" r="23.368" style="fill:rgb(227,69,30);"/>
                </g>
                <g transform="matrix(1.72219,0,0,1.72219,84.5111,-314.293)">
                    <circle cx="1101.11" cy="317.784" r="23.368" style="fill:rgb(227,69,30);"/>
                </g>
                <g transform="matrix(2.14904,0,0,2.14904,-370.409,-612.735)">
                    <circle cx="1101.11" cy="317.784" r="23.368" style="fill:rgb(163,23,0);"/>
                </g>
                <g transform="matrix(1.07401,0,0,1.1132,-36.596,-66.3184)">
                    <circle cx="1101.11" cy="317.784" r="23.368" style="fill:rgb(248,187,50);"/>
                </g>
                <g transform="matrix(1.07401,0,0,1.1132,-27.6534,-14.8608)">
                    <circle cx="1101.11" cy="317.784" r="23.368" style="fill:rgb(248,187,50);"/>
                </g>
                <g transform="matrix(1.07401,0,0,1.1132,-6.86337,36.6087)">
                    <circle cx="1101.11" cy="317.784" r="23.368" style="fill:rgb(248,187,50);"/>
                </g>
                <g transform="matrix(1.07401,0,0,1.1132,31.0966,-4.65236)">
                    <circle cx="1101.11" cy="317.784" r="23.368" style="fill:rgb(248,187,50);"/>
                </g>
                <g transform="matrix(1.0744,0,0,1.11359,19.9436,-57.5587)">
                    <circle cx="1101.11" cy="317.784" r="23.368" style="fill:rgb(248,187,50);"/>
                </g>
                <g transform="matrix(1.19976,0,0,1.19976,-381.223,-92.6636)">
                    <text x="1910.11px" y="468.385px" style="font-family:'OpenSans-Regular', 'Open Sans', sans-serif;font-size:10.157px;fill:rgb(163,163,163);">INCREASING RISK</text>
                </g>
                <g transform="matrix(1.42083,0,0,1.42083,-1640.12,-177.386)">
                    <text x="1910.11px" y="468.385px" style="font-family:'OpenSans-Regular', 'Open Sans', sans-serif;font-size:10.157px;fill:rgb(163,163,163);">Risk reduced by</text>
                    <text x="1987.45px" y="468.385px" style="font-family:'OpenSans-Regular', 'Open Sans', sans-serif;font-size:10.157px;fill:rgb(3,179,218);">wearing a mask</text>
                    <text x="2061.42px" y="468.385px" style="font-family:'OpenSans-Regular', 'Open Sans', sans-serif;font-size:10.157px;fill:rgb(163,163,163);">,</text>
                    <text x="2066.55px" y="468.385px" style="font-family:'OpenSans-Regular', 'Open Sans', sans-serif;font-size:10.157px;fill:rgb(3,179,218);">social distancing</text>
                    <text x="2146.74px" y="468.385px" style="font-family:'OpenSans-Regular', 'Open Sans', sans-serif;font-size:10.157px;fill:rgb(163,163,163);">&amp;</text>
                    <text x="2156.79px" y="468.385px" style="font-family:'OpenSans-Regular', 'Open Sans', sans-serif;font-size:10.157px;fill:rgb(3,179,218);">washing hands</text>
                </g>
                <g transform="matrix(1,0,0,1,1684.44,35.061)">
                    <text x="19.952px" y="453.4px" style="font-family:'OpenSans-Regular', 'Open Sans', sans-serif;font-size:13px;fill:rgb(209,209,209);">Sources: New York Times, Reuters, NPR, SF Gate &amp; others</text>
                </g>
            </g>
            <g transform="matrix(0.720612,0,0,0.720612,297.617,84.5367)">
                <text x="1083.18px" y="317.859px" style="font-family:'OpenSans-Regular', 'Open Sans', sans-serif;font-size:13.873px;">takeout</text>
                <text x="1092.93px" y="331.733px" style="font-family:'OpenSans-Regular', 'Open Sans', sans-serif;font-size:13.873px;">food</text>
            </g>
            <g transform="matrix(0.665843,0,0,0.665843,358.569,149.023)">
                <text x="1081.56px" y="317.859px" style="font-family:'OpenSans-Regular', 'Open Sans', sans-serif;font-size:13.873px;">outdoor</text>
                <text x="1081.41px" y="331.733px" style="font-family:'OpenSans-Regular', 'Open Sans', sans-serif;font-size:13.873px;">exercise</text>
            </g>
            <g transform="matrix(0.849095,0,0,0.849095,162.368,141.75)">
                <text x="1088px" y="317.859px" style="font-family:'OpenSans-Regular', 'Open Sans', sans-serif;font-size:13.873px;">tennis</text>
            </g>
            <g transform="matrix(0.798905,0,0,0.798905,259.584,31.3688)">
                <text x="1096.95px" y="317.859px" style="font-family:'OpenSans-Regular', 'Open Sans', sans-serif;font-size:13.873px;">gas</text>
                <text x="1085.65px" y="331.733px" style="font-family:'OpenSans-Regular', 'Open Sans', sans-serif;font-size:13.873px;">station</text>
            </g>
            <g transform="matrix(1.18012,0,0,1.18012,-153.515,-31.4899)">
                <text x="1095.82px" y="317.859px" style="font-family:'OpenSans-Regular', 'Open Sans', sans-serif;font-size:13.873px;">golf</text>
            </g>
            <g transform="matrix(0.60705,0,0,0.60705,502.523,192.486)">
                <text x="1088.58px" y="317.859px" style="font-family:'OpenSans-Regular', 'Open Sans', sans-serif;font-size:13.873px;">friend</text>
                <text x="1076.57px" y="331.733px" style="font-family:'OpenSans-Regular', 'Open Sans', sans-serif;font-size:13.873px;">uses your</text>
                <text x="1075.44px" y="345.606px" style="font-family:'OpenSans-Regular', 'Open Sans', sans-serif;font-size:13.873px;">bathroom</text>
            </g>
            <g transform="matrix(0.705153,0,0,0.705153,432.129,126.574)">
                <text x="1080.24px" y="317.859px" style="font-family:'OpenSans-Regular', 'Open Sans', sans-serif;font-size:13.873px;">camping</text>
            </g>
            <g transform="matrix(0.657621,0,0,0.657621,473.983,85.8404)">
                <text x="1079.55px" y="317.859px" style="font-family:'OpenSans-Regular', 'Open Sans', sans-serif;font-size:13.873px;">older kid</text>
                <text x="1076.8px" y="331.733px" style="font-family:'OpenSans-Regular', 'Open Sans', sans-serif;font-size:13.873px;">playdates</text>
            </g>
            <g transform="matrix(1.16721,0,0,1.16721,-26.1003,-98.8819)">
                <text x="1088.35px" y="317.859px" style="font-family:'OpenSans-Regular', 'Open Sans', sans-serif;font-size:13.873px;">beach</text>
            </g>
            <g transform="matrix(0.916304,0,0,0.916304,262.094,32.3036)">
                <text x="1081.56px" y="317.859px" style="font-family:'OpenSans-Regular', 'Open Sans', sans-serif;font-size:13.873px;">outdoor</text>
                <text x="1087.84px" y="331.733px" style="font-family:'OpenSans-Regular', 'Open Sans', sans-serif;font-size:13.873px;">dining</text>
            </g>
            <g transform="matrix(0.59569,0,0,0.59569,606.191,190.366)">
                <text x="1080.77px" y="317.859px" style="font-family:'OpenSans-Regular', 'Open Sans', sans-serif;font-size:13.873px;">vacation</text>
                <text x="1077.01px" y="331.733px" style="font-family:'OpenSans-Regular', 'Open Sans', sans-serif;font-size:13.873px;">overnight</text>
                <text x="1075.78px" y="345.606px" style="font-family:'OpenSans-Regular', 'Open Sans', sans-serif;font-size:13.873px;">(if driving)</text>
            </g>
            <g transform="matrix(0.843538,0,0,0.843538,394.088,129.325)">
                <text x="1080.25px" y="317.859px" style="font-family:'OpenSans-Regular', 'Open Sans', sans-serif;font-size:13.873px;">see your</text>
                <text x="1086.7px" y="331.733px" style="font-family:'OpenSans-Regular', 'Open Sans', sans-serif;font-size:13.873px;">doctor</text>
            </g>
            <g transform="matrix(0.798905,0,0,0.798905,459.267,83.6369)">
                <text x="1084.59px" y="317.859px" style="font-family:'OpenSans-Regular', 'Open Sans', sans-serif;font-size:13.873px;">library/</text>
                <text x="1079.29px" y="331.733px" style="font-family:'OpenSans-Regular', 'Open Sans', sans-serif;font-size:13.873px;">museum</text>
            </g>
            <g transform="matrix(0.798905,0,0,0.798905,444.849,27.8349)">
                <text x="1083.57px" y="317.859px" style="font-family:'OpenSans-Regular', 'Open Sans', sans-serif;font-size:13.873px;">grocery</text>
                <text x="1077.84px" y="331.733px" style="font-family:'OpenSans-Regular', 'Open Sans', sans-serif;font-size:13.873px;">shopping</text>
            </g>
            <g transform="matrix(0.640391,0,0,0.640391,592.468,6.12852)">
                <text x="1093.27px" y="317.859px" style="font-family:'OpenSans-Regular', 'Open Sans', sans-serif;font-size:13.873px;">walk</text>
                <text x="1084.79px" y="331.733px" style="font-family:'OpenSans-Regular', 'Open Sans', sans-serif;font-size:13.873px;">in busy</text>
                <text x="1073.53px" y="345.606px" style="font-family:'OpenSans-Regular', 'Open Sans', sans-serif;font-size:13.873px;">downtown</text>
            </g>
            <g transform="matrix(0.507214,0,0,0.507214,793.88,13.6384)">
                <text x="1080.77px" y="317.859px" style="font-family:'OpenSans-Regular', 'Open Sans', sans-serif;font-size:13.873px;">vacation</text>
                <text x="1073.46px" y="331.733px" style="font-family:'OpenSans-Regular', 'Open Sans', sans-serif;font-size:13.873px;">home with</text>
                <text x="1060.71px" y="345.606px" style="font-family:'OpenSans-Regular', 'Open Sans', sans-serif;font-size:13.873px;">another family</text>
            </g>
            <g transform="matrix(0.798905,0,0,0.798905,545.843,-98.5882)">
                <text x="1086.69px" y="317.859px" style="font-family:'OpenSans-Regular', 'Open Sans', sans-serif;font-size:13.873px;">stay at</text>
                <text x="1085.71px" y="331.733px" style="font-family:'OpenSans-Regular', 'Open Sans', sans-serif;font-size:13.873px;">a hotel</text>
            </g>
            <g transform="matrix(0.667029,0,0,0.667029,689.391,-1.14402)">
                <text x="1090.79px" y="317.859px" style="font-family:'OpenSans-Regular', 'Open Sans', sans-serif;font-size:13.873px;">small</text>
                <text x="1078.43px" y="331.733px" style="font-family:'OpenSans-Regular', 'Open Sans', sans-serif;font-size:13.873px;">backyard</text>
                <text x="1077.38px" y="345.606px" style="font-family:'OpenSans-Regular', 'Open Sans', sans-serif;font-size:13.873px;">barbecue</text>
            </g>
            <g transform="matrix(0.720692,0,0,0.720692,632.915,38.967)">
                <text x="1090.79px" y="317.859px" style="font-family:'OpenSans-Regular', 'Open Sans', sans-serif;font-size:13.873px;">small</text>
                <text x="1081.56px" y="331.733px" style="font-family:'OpenSans-Regular', 'Open Sans', sans-serif;font-size:13.873px;">outdoor</text>
                <text x="1089.29px" y="345.606px" style="font-family:'OpenSans-Regular', 'Open Sans', sans-serif;font-size:13.873px;">picnic</text>
            </g>
            <g transform="matrix(0.798905,0,0,0.798905,550.829,70.1076)">
                <text x="1090.8px" y="317.859px" style="font-family:'OpenSans-Regular', 'Open Sans', sans-serif;font-size:13.873px;">use a</text>
                <text x="1088.34px" y="331.733px" style="font-family:'OpenSans-Regular', 'Open Sans', sans-serif;font-size:13.873px;">public</text>
                <text x="1077.77px" y="345.606px" style="font-family:'OpenSans-Regular', 'Open Sans', sans-serif;font-size:13.873px;">restroom</text>
            </g>
            <g transform="matrix(1.00028,0,0,1.00028,319.717,72.0302)">
                <text x="1095.17px" y="317.859px" style="font-family:'OpenSans-Regular', 'Open Sans', sans-serif;font-size:13.873px;">visit</text>
                <text x="1088.43px" y="331.733px" style="font-family:'OpenSans-Regular', 'Open Sans', sans-serif;font-size:13.873px;">a mall</text>
            </g>
            <g transform="matrix(1.00022,0,0,1.00022,380.099,-17.2696)">
                <text x="1088.34px" y="317.859px" style="font-family:'OpenSans-Regular', 'Open Sans', sans-serif;font-size:13.873px;">public</text>
                <text x="1093.53px" y="331.733px" style="font-family:'OpenSans-Regular', 'Open Sans', sans-serif;font-size:13.873px;">pool</text>
            </g>
            <g transform="matrix(0.701345,0,0,0.701345,708.838,6.79943)">
                <text x="1090.79px" y="317.859px" style="font-family:'OpenSans-Regular', 'Open Sans', sans-serif;font-size:13.873px;">small</text>
                <text x="1086.67px" y="331.733px" style="font-family:'OpenSans-Regular', 'Open Sans', sans-serif;font-size:13.873px;">dinner</text>
                <text x="1091.03px" y="345.606px" style="font-family:'OpenSans-Regular', 'Open Sans', sans-serif;font-size:13.873px;">party</text>
                <text x="1079.03px" y="359.479px" style="font-family:'OpenSans-Regular', 'Open Sans', sans-serif;font-size:13.873px;">(indoors)</text>
            </g>
            <g transform="matrix(0.798905,0,0,0.798905,661.068,-43.0867)">
                <text x="1092.11px" y="317.859px" style="font-family:'OpenSans-Regular', 'Open Sans', sans-serif;font-size:13.873px;">get a</text>
                <text x="1085.2px" y="331.733px" style="font-family:'OpenSans-Regular', 'Open Sans', sans-serif;font-size:13.873px;">haircut</text>
            </g>
            <g transform="matrix(0.798905,0,0,0.798905,666.751,17.1998)">
                <text x="1078.38px" y="317.859px" style="font-family:'OpenSans-Regular', 'Open Sans', sans-serif;font-size:13.873px;">work in a</text>
                <text x="1085.52px" y="331.733px" style="font-family:'OpenSans-Regular', 'Open Sans', sans-serif;font-size:13.873px;">shared</text>
                <text x="1090.07px" y="345.606px" style="font-family:'OpenSans-Regular', 'Open Sans', sans-serif;font-size:13.873px;">oﬃce</text>
            </g>
            <g transform="matrix(0.729411,0,0,0.729411,736.337,106.915)">
                <text x="1076.47px" y="317.859px" style="font-family:'OpenSans-Regular', 'Open Sans', sans-serif;font-size:13.873px;">young kid</text>
                <text x="1076.8px" y="331.733px" style="font-family:'OpenSans-Regular', 'Open Sans', sans-serif;font-size:13.873px;">playdates</text>
            </g>
            <g transform="matrix(0.798905,0,0,0.798905,727.739,80.8203)">
                <text x="1094.56px" y="317.859px" style="font-family:'OpenSans-Regular', 'Open Sans', sans-serif;font-size:13.873px;">play</text>
                <text x="1084.33px" y="331.733px" style="font-family:'OpenSans-Regular', 'Open Sans', sans-serif;font-size:13.873px;">ground</text>
            </g>
            <g transform="matrix(0.798905,0,0,0.798905,735.96,10.7758)">
                <text x="1081.85px" y="317.859px" style="font-family:'OpenSans-Regular', 'Open Sans', sans-serif;font-size:13.873px;">cinema/</text>
                <text x="1088.15px" y="331.733px" style="font-family:'OpenSans-Regular', 'Open Sans', sans-serif;font-size:13.873px;">movie</text>
                <text x="1084.29px" y="345.606px" style="font-family:'OpenSans-Regular', 'Open Sans', sans-serif;font-size:13.873px;">theatre</text>
            </g>
            <g transform="matrix(1.22598,0,0,1.22598,256.801,-176.699)">
                <text x="1087.24px" y="317.859px" style="font-family:'OpenSans-Regular', 'Open Sans', sans-serif;font-size:13.873px;">casino</text>
            </g>
            <g transform="matrix(0.673055,0,0,0.673055,862.96,-81.6087)">
                <text x="1077.45px" y="317.859px" style="font-family:'OpenSans-Regular', 'Open Sans', sans-serif;font-size:13.873px;">send kids</text>
                <text x="1076.77px" y="331.733px" style="font-family:'OpenSans-Regular', 'Open Sans', sans-serif;font-size:13.873px;">to school,</text>
                <text x="1079.53px" y="345.606px" style="font-family:'OpenSans-Regular', 'Open Sans', sans-serif;font-size:13.873px;">camp, or</text>
                <text x="1082.43px" y="359.479px" style="font-family:'OpenSans-Regular', 'Open Sans', sans-serif;font-size:13.873px;">daycare</text>
            </g>
            <g transform="matrix(0.798905,0,0,0.798905,781.304,-160.915)">
                <text x="1085.26px" y="317.859px" style="font-family:'OpenSans-Regular', 'Open Sans', sans-serif;font-size:13.873px;">visit an</text>
                <text x="1083.48px" y="331.733px" style="font-family:'OpenSans-Regular', 'Open Sans', sans-serif;font-size:13.873px;">elder in</text>
                <text x="1072.14px" y="345.606px" style="font-family:'OpenSans-Regular', 'Open Sans', sans-serif;font-size:13.873px;">their home</text>
            </g>
            <g transform="matrix(0.9955,0,0,0.9955,623.442,-252.598)">
                <text x="1081.46px" y="317.859px" style="font-family:'OpenSans-Regular', 'Open Sans', sans-serif;font-size:13.873px;">airplane</text>
            </g>
            <g transform="matrix(0.858158,0,0,0.858158,785.279,-141.842)">
                <text x="1074.9px" y="317.859px" style="font-family:'OpenSans-Regular', 'Open Sans', sans-serif;font-size:13.873px;">basketball</text>
            </g>
            <g transform="matrix(0.942207,0,0,0.942207,778.973,-230.288)">
                <text x="1081.1px" y="317.859px" style="font-family:'OpenSans-Regular', 'Open Sans', sans-serif;font-size:13.873px;">attend a</text>
                <text x="1080.31px" y="331.733px" style="font-family:'OpenSans-Regular', 'Open Sans', sans-serif;font-size:13.873px;">wedding</text>
                <text x="1075.89px" y="345.606px" style="font-family:'OpenSans-Regular', 'Open Sans', sans-serif;font-size:13.873px;">or funeral</text>
            </g>
            <g transform="matrix(1.12504,0,0,1.12504,580.891,-206.928)">
                <text x="1086.78px" y="317.859px" style="font-family:'OpenSans-Regular', 'Open Sans', sans-serif;font-size:13.873px;">hug or</text>
                <text x="1088.96px" y="331.733px" style="font-family:'OpenSans-Regular', 'Open Sans', sans-serif;font-size:13.873px;">shake</text>
                <text x="1087.98px" y="345.606px" style="font-family:'OpenSans-Regular', 'Open Sans', sans-serif;font-size:13.873px;">hands</text>
            </g>
            <g transform="matrix(0.798905,0,0,0.798905,939.073,-29.0466)">
                <text x="1093.72px" y="317.859px" style="font-family:'OpenSans-Regular', 'Open Sans', sans-serif;font-size:13.873px;">stop</text>
                <text x="1079.03px" y="331.733px" style="font-family:'OpenSans-Regular', 'Open Sans', sans-serif;font-size:13.873px;">routinely</text>
                <text x="1076.47px" y="345.606px" style="font-family:'OpenSans-Regular', 'Open Sans', sans-serif;font-size:13.873px;">wearing a</text>
                <text x="1075.45px" y="359.479px" style="font-family:'OpenSans-Regular', 'Open Sans', sans-serif;font-size:13.873px;">face mask</text>
            </g>
            <g transform="matrix(1.14449,0,0,1.14449,637.411,-176.419)">
                <text x="1086.44px" y="317.859px" style="font-family:'OpenSans-Regular', 'Open Sans', sans-serif;font-size:13.873px;">indoor</text>
                <text x="1091.03px" y="331.733px" style="font-family:'OpenSans-Regular', 'Open Sans', sans-serif;font-size:13.873px;">party</text>
            </g>
            <g transform="matrix(1.11766,0,0,1.11766,668.712,-259.311)">
                <text x="1096.82px" y="317.859px" style="font-family:'OpenSans-Regular', 'Open Sans', sans-serif;font-size:13.873px;">see</text>
                <text x="1078.03px" y="331.733px" style="font-family:'OpenSans-Regular', 'Open Sans', sans-serif;font-size:13.873px;">a concert</text>
                <text x="1085.73px" y="345.606px" style="font-family:'OpenSans-Regular', 'Open Sans', sans-serif;font-size:13.873px;">or play</text>
            </g>
            <g transform="matrix(1.45722,0,0,1.45722,381.883,-388.747)">
                <text x="1077.83px" y="317.859px" style="font-family:'OpenSans-Regular', 'Open Sans', sans-serif;font-size:13.873px;">nightclub</text>
            </g>
            <g transform="matrix(1.11572,0,0,1.11572,743.261,-123.606)">
                <text x="1086.44px" y="317.859px" style="font-family:'OpenSans-Regular', 'Open Sans', sans-serif;font-size:13.873px;">indoor</text>
                <text x="1096.97px" y="331.733px" style="font-family:'OpenSans-Regular', 'Open Sans', sans-serif;font-size:13.873px;">bar</text>
            </g>
            <g transform="matrix(1.04338,0,0,1.04338,741.704,-65.196)">
                <text x="1087.58px" y="317.859px" style="font-family:'OpenSans-Regular', 'Open Sans', sans-serif;font-size:13.873px;">sports</text>
                <text x="1081.58px" y="331.733px" style="font-family:'OpenSans-Regular', 'Open Sans', sans-serif;font-size:13.873px;">stadium</text>
            </g>
            <g transform="matrix(0.798905,0,0,0.798905,939.595,52.0795)">
                <text x="1071.57px" y="317.859px" style="font-family:'OpenSans-Regular', 'Open Sans', sans-serif;font-size:13.873px;">go out with</text>
                <text x="1077.73px" y="331.733px" style="font-family:'OpenSans-Regular', 'Open Sans', sans-serif;font-size:13.873px;">someone</text>
                <text x="1077.49px" y="345.606px" style="font-family:'OpenSans-Regular', 'Open Sans', sans-serif;font-size:13.873px;">you don&apos;t</text>
                <text x="1075.83px" y="359.479px" style="font-family:'OpenSans-Regular', 'Open Sans', sans-serif;font-size:13.873px;">know well</text>
            </g>
            <g transform="matrix(0.791533,0,0,0.791533,941.824,148.644)">
                <text x="1069.1px" y="317.859px" style="font-family:'OpenSans-Regular', 'Open Sans', sans-serif;font-size:13.873px;">amusement</text>
                <text x="1093.33px" y="331.733px" style="font-family:'OpenSans-Regular', 'Open Sans', sans-serif;font-size:13.873px;">park</text>
            </g>
            <g transform="matrix(1.1427,0,0,1.1427,631.61,51.7877)">
                <text x="1088.36px" y="317.859px" style="font-family:'OpenSans-Regular', 'Open Sans', sans-serif;font-size:13.873px;">buﬀet</text>
            </g>
            <g transform="matrix(1.1802,0,0,1.1802,636.302,-29.1658)">
                <text x="1085.71px" y="317.859px" style="font-family:'OpenSans-Regular', 'Open Sans', sans-serif;font-size:13.873px;">church</text>
            </g>
            <g transform="matrix(1.08466,0,0,1.08466,475.439,-172.821)">
                <text x="1082.51px" y="317.859px" style="font-family:'OpenSans-Regular', 'Open Sans', sans-serif;font-size:13.873px;">bowling</text>
            </g>
            <g transform="matrix(0.942093,0,0,0.942093,643.53,-70.6756)">
                <text x="1081.41px" y="317.859px" style="font-family:'OpenSans-Regular', 'Open Sans', sans-serif;font-size:13.873px;">exercise</text>
                <text x="1095.95px" y="331.733px" style="font-family:'OpenSans-Regular', 'Open Sans', sans-serif;font-size:13.873px;">at a</text>
                <text x="1094.17px" y="345.606px" style="font-family:'OpenSans-Regular', 'Open Sans', sans-serif;font-size:13.873px;">gym</text>
            </g>
            <g transform="matrix(0.798905,0,0,0.798905,810.343,43.2303)">
                <text x="1082.79px" y="317.859px" style="font-family:'OpenSans-Regular', 'Open Sans', sans-serif;font-size:13.873px;">ride the</text>
                <text x="1080.8px" y="331.733px" style="font-family:'OpenSans-Regular', 'Open Sans', sans-serif;font-size:13.873px;">subway/</text>
                <text x="1096.1px" y="345.606px" style="font-family:'OpenSans-Regular', 'Open Sans', sans-serif;font-size:13.873px;">bus</text>
            </g>
            <g transform="matrix(0.761084,0,0,0.761084,852.747,120.2)">
                <text x="1083.95px" y="317.859px" style="font-family:'OpenSans-Regular', 'Open Sans', sans-serif;font-size:13.873px;">eat at a</text>
                <text x="1073.92px" y="331.733px" style="font-family:'OpenSans-Regular', 'Open Sans', sans-serif;font-size:13.873px;">restaurant</text>
                <text x="1081.41px" y="345.606px" style="font-family:'OpenSans-Regular', 'Open Sans', sans-serif;font-size:13.873px;">(dine-in)</text>
            </g>
        </g>
    </g>
</svg>
