<?xml version="1.0" encoding="UTF-8" standalone="no"?>
<!DOCTYPE svg PUBLIC "-//W3C//DTD SVG 1.1//EN" "http://www.w3.org/Graphics/SVG/1.1/DTD/svg11.dtd">
<svg width="100%" height="100%" viewBox="0 0 500 500" version="1.1" xmlns="http://www.w3.org/2000/svg" xmlns:xlink="http://www.w3.org/1999/xlink" xml:space="preserve" xmlns:serif="http://www.serif.com/" style="fill-rule:evenodd;clip-rule:evenodd;stroke-linejoin:round;stroke-miterlimit:2;">
    <g transform="matrix(1,0,0,1,-0.58731,0)">
        <g id="_1" serif:id="1" transform="matrix(1,0,0,1,0.58731,0)">
            <rect x="0" y="0" width="500" height="500" style="fill:none;"/>
            <g transform="matrix(1,0,0,1,-2.3689,-0.56193)">
                <text x="18.544px" y="45.796px" style="font-family:'OpenSans-Regular', 'Open Sans', sans-serif;font-size:27.425px;fill:white;">The Majority of Infections are Mild</text>
            </g>
            <g transform="matrix(1,0,0,1,-8.13904,-5.42603)">
                <text x="24.252px" y="74.311px" style="font-family:'OpenSans-Light', 'Open Sans', sans-serif;font-weight:300;font-size:20px;fill:white;">Seriousness of symptoms</text>
            </g>
            <text x="16.245px" y="440.4px" style="font-family:'OpenSans-Regular', 'Open Sans', sans-serif;font-size:13px;fill:rgb(209,209,209);">Like ﬂu, stay at home</text>
            <g transform="matrix(1,0,0,1,169.414,0.336426)">
                <text x="16.245px" y="440.4px" style="font-family:'OpenSans-Regular', 'Open Sans', sans-serif;font-size:13px;fill:rgb(209,209,209);">Hospitalization</text>
            </g>
            <g transform="matrix(1,0,0,1,341.297,0.336426)">
                <text x="16.245px" y="440.4px" style="font-family:'OpenSans-Regular', 'Open Sans', sans-serif;font-size:13px;fill:rgb(209,209,209);">Intensive Care</text>
            </g>
            <g transform="matrix(1,0,0,1,122.129,38.8199)">
                <text x="56.756px" y="440.4px" style="font-family:'OpenSans-Regular', 'Open Sans', sans-serif;font-size:13px;fill:rgb(209,209,209);">Study of 44,672 conﬁrmed cases in Mainland China</text>
                <text x="29.93px" y="453.4px" style="font-family:'OpenSans-Regular', 'Open Sans', sans-serif;font-size:13px;fill:rgb(209,209,209);">Sources: China Center for Disease Control &amp; Prevention</text>
            </g>
            <g transform="matrix(1.01339,0,0,1.02344,-0.217591,-2.5611)">
                <path d="M137.776,127.331C137.776,117.369 129.608,109.28 119.546,109.28L16.245,109.28L16.245,390.936C16.245,391.437 16.655,391.843 17.161,391.843L136.86,391.843C137.366,391.843 137.776,391.437 137.776,390.936L137.776,127.331Z" style="fill:url(#_Linear1);"/>
            </g>
            <g transform="matrix(1.01339,0,0,0.0554076,343.071,375.599)">
                <path d="M137.776,378.319C137.776,229.832 131.185,109.28 123.066,109.28L16.245,109.28L16.245,378.319C16.245,385.783 16.576,391.843 16.984,391.843L137.037,391.843C137.445,391.843 137.776,385.783 137.776,378.319Z" style="fill:url(#_Linear2);"/>
            </g>
            <g transform="matrix(1.01339,0,0,0.174725,171.367,329.307)">
                <path d="M137.776,215.011C137.776,156.657 129.608,109.28 119.546,109.28L16.245,109.28L16.245,386.528C16.245,389.462 16.655,391.843 17.161,391.843L136.86,391.843C137.366,391.843 137.776,389.462 137.776,386.528L137.776,215.011Z" style="fill:url(#_Linear3);"/>
            </g>
            <g transform="matrix(1,0,0,1,164.046,237.165)">
                <text x="22.804px" y="102.617px" style="font-family:'OpenSans-Regular', 'Open Sans', sans-serif;font-size:19.283px;fill:white;">13.8%</text>
            </g>
            <g transform="matrix(1,0,0,1,-7.5388,0.234599)">
                <text x="22.804px" y="102.617px" style="font-family:'OpenSans-Regular', 'Open Sans', sans-serif;font-size:19.283px;fill:white;">80.9%</text>
            </g>
            <g transform="matrix(1,0,0,1,334.959,270.197)">
                <text x="22.804px" y="102.617px" style="font-family:'OpenSans-Regular', 'Open Sans', sans-serif;font-size:19.283px;fill:white;">4.7%</text>
            </g>
            <text x="16.245px" y="420.998px" style="font-family:'OpenSans-Regular', 'Open Sans', sans-serif;font-size:19.283px;fill:white;">MILD</text>
            <g transform="matrix(1,0,0,1,169.692,0)">
                <text x="16.245px" y="420.998px" style="font-family:'OpenSans-Regular', 'Open Sans', sans-serif;font-size:19.283px;fill:white;">SEVERE</text>
            </g>
            <g transform="matrix(1,0,0,1,341.396,0)">
                <text x="16.245px" y="420.998px" style="font-family:'OpenSans-Regular', 'Open Sans', sans-serif;font-size:19.283px;fill:white;">CRITICAL</text>
            </g>
        </g>
    </g>
    <defs>
        <linearGradient id="_Linear1" x1="0" y1="0" x2="1" y2="0" gradientUnits="userSpaceOnUse" gradientTransform="matrix(9.55853e-15,154.571,-156.103,9.46475e-15,77.0105,209.129)"><stop offset="0" style="stop-color:rgb(0,131,176);stop-opacity:1"/><stop offset="1" style="stop-color:rgb(0,176,215);stop-opacity:1"/></linearGradient>
        <linearGradient id="_Linear2" x1="0" y1="0" x2="1" y2="0" gradientUnits="userSpaceOnUse" gradientTransform="matrix(2.51924e-15,-236.847,41.1422,1.45027e-14,76.2383,376.358)"><stop offset="0" style="stop-color:rgb(249,127,38);stop-opacity:1"/><stop offset="1" style="stop-color:rgb(252,74,26);stop-opacity:1"/></linearGradient>
        <linearGradient id="_Linear3" x1="0" y1="0" x2="1" y2="0" gradientUnits="userSpaceOnUse" gradientTransform="matrix(2.51924e-15,-236.847,41.1422,1.45027e-14,76.2383,376.358)"><stop offset="0" style="stop-color:rgb(249,127,38);stop-opacity:1"/><stop offset="1" style="stop-color:rgb(252,74,26);stop-opacity:1"/></linearGradient>
    </defs>
</svg>
