<?xml version="1.0" encoding="UTF-8" standalone="no"?>
<!DOCTYPE svg PUBLIC "-//W3C//DTD SVG 1.1//EN" "http://www.w3.org/Graphics/SVG/1.1/DTD/svg11.dtd">
<svg width="100%" height="100%" viewBox="0 0 500 500" version="1.1" xmlns="http://www.w3.org/2000/svg" xmlns:xlink="http://www.w3.org/1999/xlink" xml:space="preserve" xmlns:serif="http://www.serif.com/" style="fill-rule:evenodd;clip-rule:evenodd;stroke-linejoin:round;stroke-miterlimit:2;">
    <g transform="matrix(1,0,0,1,-533.467,-529.166)">
        <g id="_4" serif:id="4" transform="matrix(1,0,0,1,532.016,6.31857)">
            <rect x="1.45" y="522.847" width="499.993" height="499.993" style="fill:none;"/>
            <g transform="matrix(1,0,0,1,-532.84,-3.86386)">
                <text x="871.353px" y="703.875px" style="font-family:'OpenSans-Regular', 'Open Sans', sans-serif;font-size:16.857px;fill:rgb(179,179,179);">25%</text>
            </g>
            <g transform="matrix(1,0,0,1,-533.325,58.2675)">
                <text x="871.353px" y="703.875px" style="font-family:'OpenSans-Regular', 'Open Sans', sans-serif;font-size:16.857px;fill:rgb(128,128,128);">26%</text>
            </g>
            <g transform="matrix(1,0,0,1,-532.84,212.825)">
                <text x="871.353px" y="703.875px" style="font-family:'OpenSans-Regular', 'Open Sans', sans-serif;font-size:16.857px;fill:rgb(241,131,48);">48%</text>
            </g>
            <g transform="matrix(1,0,0,1,123.579,561.667)">
                <text x="165.389px" y="440.4px" style="font-family:'OpenSans-Regular', 'Open Sans', sans-serif;font-size:13px;fill:rgb(209,209,209);">Study of 355 deaths cases in Italy</text>
                <text x="23.246px" y="453.4px" style="font-family:'OpenSans-Regular', 'Open Sans', sans-serif;font-size:13px;fill:rgb(209,209,209);">Sources: Italian Portal of Epidemiology and Public Health</text>
            </g>
            <g transform="matrix(0.806984,0,0,0.806984,-427.33,109.887)">
                <text x="550.894px" y="624.194px" style="font-family:'OpenSans-Regular', 'Open Sans', sans-serif;font-size:22.206px;fill:rgb(38,177,254);">1%</text>
            </g>
            <g transform="matrix(0.905528,0,0,0.905528,-0.351589,525.302)">
                <text x="18.544px" y="45.796px" style="font-family:'OpenSans-Regular', 'Open Sans', sans-serif;font-size:27.425px;fill:white;">Multiple Conditions Increase Risk</text>
            </g>
            <g transform="matrix(1.29206,0,0,1.29206,-701.246,-188.744)">
                <text x="577.789px" y="621.034px" style="font-family:'OpenSans-Regular', 'Open Sans', sans-serif;font-size:8.634px;fill:rgb(38,177,254);">no conditions</text>
            </g>
            <g transform="matrix(1.29206,0,0,1.29206,-407.745,-29.5676)">
                <text x="577.789px" y="621.034px" style="font-family:'OpenSans-Regular', 'Open Sans', sans-serif;font-size:8.634px;fill:white;">2 conditions</text>
            </g>
            <g transform="matrix(1.29206,0,0,1.29206,-407.712,127.474)">
                <text x="577.789px" y="621.034px" style="font-family:'OpenSans-Regular', 'Open Sans', sans-serif;font-size:8.634px;fill:white;">3+ conditions</text>
            </g>
            <g transform="matrix(1.29206,0,0,1.29206,-724.707,149.206)">
                <text x="575.546px" y="621.034px" style="font-family:'OpenSans-Regular', 'Open Sans', sans-serif;font-size:8.634px;fill:rgb(241,131,48);">Active cancer, Atrial ﬁbrillation, Chronic Obstructive Pulmonary Disease,</text>
                <text x="575.546px" y="629.668px" style="font-family:'OpenSans-Regular', 'Open Sans', sans-serif;font-size:8.634px;fill:rgb(241,131,48);">Dementia, Diabetes, Heart disease, Hypertension, Liver disease (chronic),</text>
                <text x="575.546px" y="638.302px" style="font-family:'OpenSans-Regular', 'Open Sans', sans-serif;font-size:8.634px;fill:rgb(241,131,48);">Renal failure (chronic), Stroke</text>
            </g>
            <g transform="matrix(1.29206,0,0,1.29206,-408.224,-91.2021)">
                <text x="577.789px" y="621.034px" style="font-family:'OpenSans-Regular', 'Open Sans', sans-serif;font-size:8.634px;fill:white;">1 conditions</text>
            </g>
            <g transform="matrix(1.29206,0,0,1.29206,-366.769,-171.419)">
                <text x="579.02px" y="621.034px" style="font-family:'OpenSans-Regular', 'Open Sans', sans-serif;font-size:8.634px;fill:rgb(179,179,179);">average age of victim</text>
                <text x="575.546px" y="629.668px" style="font-family:'OpenSans-Regular', 'Open Sans', sans-serif;font-size:8.634px;fill:rgb(179,179,179);">in this analysis was</text>
                <text x="654.147px" y="629.668px" style="font-family:'OpenSans-Regular', 'Open Sans', sans-serif;font-size:8.634px;fill:rgb(241,131,48);">79</text>
            </g>
            <g transform="matrix(1.29206,0,0,1.29206,-373.49,22.9839)">
                <text x="576.739px" y="621.034px" style="font-family:'OpenSans-Regular', 'Open Sans', sans-serif;font-size:8.634px;fill:rgb(179,179,179);">having these conditions</text>
                <text x="578.872px" y="629.668px" style="font-family:'OpenSans-Regular', 'Open Sans', sans-serif;font-size:8.634px;fill:rgb(179,179,179);">does not mean you will</text>
                <text x="596.381px" y="638.302px" style="font-family:'OpenSans-Regular', 'Open Sans', sans-serif;font-size:8.634px;fill:rgb(179,179,179);">die of the disease -</text>
                <text x="575.546px" y="646.936px" style="font-family:'OpenSans-Regular', 'Open Sans', sans-serif;font-size:8.634px;fill:rgb(179,179,179);">they are just risk factors</text>
            </g>
            <g transform="matrix(0.816042,0,0,0.816042,-1.84148,528.015)">
                <text x="24.252px" y="74.311px" style="font-family:'OpenSans-Light', 'Open Sans', sans-serif;font-weight:300;font-size:21px;fill:white;">Serious conditions present in those who have died</text>
            </g>
            <g id="Grid">
                <g>
                    <g transform="matrix(1.04699,0,0,0.996221,-592,-3.93585)">
                        <path d="M611.111,633.787C611.111,631.961 609.701,630.479 607.964,630.479L586.382,630.479C584.645,630.479 583.235,631.961 583.235,633.787L583.235,656.469C583.235,658.294 584.645,659.776 586.382,659.776L607.964,659.776C609.701,659.776 611.111,658.294 611.111,656.469L611.111,633.787Z" style="fill:rgb(38,177,254);"/>
                    </g>
                    <g transform="matrix(1.04699,0,0,0.996221,-467.526,-3.76946)">
                        <path d="M611.111,633.787C611.111,631.961 609.701,630.479 607.964,630.479L586.382,630.479C584.645,630.479 583.235,631.961 583.235,633.787L583.235,656.469C583.235,658.294 584.645,659.776 586.382,659.776L607.964,659.776C609.701,659.776 611.111,658.294 611.111,656.469L611.111,633.787Z" style="fill:rgb(179,179,179);"/>
                    </g>
                    <g transform="matrix(1.04699,0,0,0.996221,-529.507,-3.85265)">
                        <path d="M611.111,633.787C611.111,631.961 609.701,630.479 607.964,630.479L586.382,630.479C584.645,630.479 583.235,631.961 583.235,633.787L583.235,656.469C583.235,658.294 584.645,659.776 586.382,659.776L607.964,659.776C609.701,659.776 611.111,658.294 611.111,656.469L611.111,633.787Z" style="fill:rgb(179,179,179);"/>
                    </g>
                    <g transform="matrix(1.04699,0,0,0.996221,-405.033,-3.68626)">
                        <path d="M611.111,633.787C611.111,631.961 609.701,630.479 607.964,630.479L586.382,630.479C584.645,630.479 583.235,631.961 583.235,633.787L583.235,656.469C583.235,658.294 584.645,659.776 586.382,659.776L607.964,659.776C609.701,659.776 611.111,658.294 611.111,656.469L611.111,633.787Z" style="fill:rgb(179,179,179);"/>
                    </g>
                    <g transform="matrix(1.04699,0,0,0.996221,-342.748,-3.60306)">
                        <path d="M611.111,633.787C611.111,631.961 609.701,630.479 607.964,630.479L586.382,630.479C584.645,630.479 583.235,631.961 583.235,633.787L583.235,656.469C583.235,658.294 584.645,659.776 586.382,659.776L607.964,659.776C609.701,659.776 611.111,658.294 611.111,656.469L611.111,633.787Z" style="fill:rgb(179,179,179);"/>
                    </g>
                    <g transform="matrix(1.04699,0,0,0.996221,-592,58.6401)">
                        <path d="M611.111,633.787C611.111,631.961 609.701,630.479 607.964,630.479L586.382,630.479C584.645,630.479 583.235,631.961 583.235,633.787L583.235,656.469C583.235,658.294 584.645,659.776 586.382,659.776L607.964,659.776C609.701,659.776 611.111,658.294 611.111,656.469L611.111,633.787Z" style="fill:rgb(128,128,128);"/>
                    </g>
                    <g transform="matrix(1.04699,0,0,0.996221,-467.526,58.8065)">
                        <path d="M611.111,633.787C611.111,631.961 609.701,630.479 607.964,630.479L586.382,630.479C584.645,630.479 583.235,631.961 583.235,633.787L583.235,656.469C583.235,658.294 584.645,659.776 586.382,659.776L607.964,659.776C609.701,659.776 611.111,658.294 611.111,656.469L611.111,633.787Z" style="fill:rgb(179,179,179);"/>
                    </g>
                    <g transform="matrix(1.04699,0,0,0.996221,-529.507,58.7233)">
                        <path d="M611.111,633.787C611.111,631.961 609.701,630.479 607.964,630.479L586.382,630.479C584.645,630.479 583.235,631.961 583.235,633.787L583.235,656.469C583.235,658.294 584.645,659.776 586.382,659.776L607.964,659.776C609.701,659.776 611.111,658.294 611.111,656.469L611.111,633.787Z" style="fill:rgb(128,128,128);"/>
                    </g>
                    <g transform="matrix(1.04699,0,0,0.996221,-405.033,58.8897)">
                        <path d="M611.111,633.787C611.111,631.961 609.701,630.479 607.964,630.479L586.382,630.479C584.645,630.479 583.235,631.961 583.235,633.787L583.235,656.469C583.235,658.294 584.645,659.776 586.382,659.776L607.964,659.776C609.701,659.776 611.111,658.294 611.111,656.469L611.111,633.787Z" style="fill:rgb(179,179,179);"/>
                    </g>
                    <g transform="matrix(1.04699,0,0,0.996221,-342.748,58.9729)">
                        <path d="M611.111,633.787C611.111,631.961 609.701,630.479 607.964,630.479L586.382,630.479C584.645,630.479 583.235,631.961 583.235,633.787L583.235,656.469C583.235,658.294 584.645,659.776 586.382,659.776L607.964,659.776C609.701,659.776 611.111,658.294 611.111,656.469L611.111,633.787Z" style="fill:rgb(179,179,179);"/>
                    </g>
                    <g transform="matrix(1.04699,0,0,0.996221,-560.743,-3.85265)">
                        <path d="M611.111,633.787C611.111,631.961 609.701,630.479 607.964,630.479L586.382,630.479C584.645,630.479 583.235,631.961 583.235,633.787L583.235,656.469C583.235,658.294 584.645,659.776 586.382,659.776L607.964,659.776C609.701,659.776 611.111,658.294 611.111,656.469L611.111,633.787Z" style="fill:rgb(179,179,179);"/>
                    </g>
                    <g transform="matrix(1.04699,0,0,0.996221,-436.269,-3.68626)">
                        <path d="M611.111,633.787C611.111,631.961 609.701,630.479 607.964,630.479L586.382,630.479C584.645,630.479 583.235,631.961 583.235,633.787L583.235,656.469C583.235,658.294 584.645,659.776 586.382,659.776L607.964,659.776C609.701,659.776 611.111,658.294 611.111,656.469L611.111,633.787Z" style="fill:rgb(179,179,179);"/>
                    </g>
                    <g transform="matrix(1.04699,0,0,0.996221,-498.25,-3.76946)">
                        <path d="M611.111,633.787C611.111,631.961 609.701,630.479 607.964,630.479L586.382,630.479C584.645,630.479 583.235,631.961 583.235,633.787L583.235,656.469C583.235,658.294 584.645,659.776 586.382,659.776L607.964,659.776C609.701,659.776 611.111,658.294 611.111,656.469L611.111,633.787Z" style="fill:rgb(179,179,179);"/>
                    </g>
                    <g transform="matrix(1.04699,0,0,0.996221,-373.776,-3.60306)">
                        <path d="M611.111,633.787C611.111,631.961 609.701,630.479 607.964,630.479L586.382,630.479C584.645,630.479 583.235,631.961 583.235,633.787L583.235,656.469C583.235,658.294 584.645,659.776 586.382,659.776L607.964,659.776C609.701,659.776 611.111,658.294 611.111,656.469L611.111,633.787Z" style="fill:rgb(179,179,179);"/>
                    </g>
                    <g transform="matrix(1.04699,0,0,0.996221,-311.491,-3.51986)">
                        <path d="M611.111,633.787C611.111,631.961 609.701,630.479 607.964,630.479L586.382,630.479C584.645,630.479 583.235,631.961 583.235,633.787L583.235,656.469C583.235,658.294 584.645,659.776 586.382,659.776L607.964,659.776C609.701,659.776 611.111,658.294 611.111,656.469L611.111,633.787Z" style="fill:rgb(179,179,179);"/>
                    </g>
                    <g transform="matrix(1.04699,0,0,0.996221,-560.743,58.7233)">
                        <path d="M611.111,633.787C611.111,631.961 609.701,630.479 607.964,630.479L586.382,630.479C584.645,630.479 583.235,631.961 583.235,633.787L583.235,656.469C583.235,658.294 584.645,659.776 586.382,659.776L607.964,659.776C609.701,659.776 611.111,658.294 611.111,656.469L611.111,633.787Z" style="fill:rgb(128,128,128);"/>
                    </g>
                    <g transform="matrix(1.04699,0,0,0.996221,-436.269,58.8897)">
                        <path d="M611.111,633.787C611.111,631.961 609.701,630.479 607.964,630.479L586.382,630.479C584.645,630.479 583.235,631.961 583.235,633.787L583.235,656.469C583.235,658.294 584.645,659.776 586.382,659.776L607.964,659.776C609.701,659.776 611.111,658.294 611.111,656.469L611.111,633.787Z" style="fill:rgb(179,179,179);"/>
                    </g>
                    <g transform="matrix(1.04699,0,0,0.996221,-498.25,58.8065)">
                        <path d="M611.111,633.787C611.111,631.961 609.701,630.479 607.964,630.479L586.382,630.479C584.645,630.479 583.235,631.961 583.235,633.787L583.235,656.469C583.235,658.294 584.645,659.776 586.382,659.776L607.964,659.776C609.701,659.776 611.111,658.294 611.111,656.469L611.111,633.787Z" style="fill:rgb(128,128,128);"/>
                    </g>
                    <g transform="matrix(1.04699,0,0,0.996221,-373.776,58.9729)">
                        <path d="M611.111,633.787C611.111,631.961 609.701,630.479 607.964,630.479L586.382,630.479C584.645,630.479 583.235,631.961 583.235,633.787L583.235,656.469C583.235,658.294 584.645,659.776 586.382,659.776L607.964,659.776C609.701,659.776 611.111,658.294 611.111,656.469L611.111,633.787Z" style="fill:rgb(179,179,179);"/>
                    </g>
                    <g transform="matrix(1.04699,0,0,0.996221,-311.491,59.0561)">
                        <path d="M611.111,633.787C611.111,631.961 609.701,630.479 607.964,630.479L586.382,630.479C584.645,630.479 583.235,631.961 583.235,633.787L583.235,656.469C583.235,658.294 584.645,659.776 586.382,659.776L607.964,659.776C609.701,659.776 611.111,658.294 611.111,656.469L611.111,633.787Z" style="fill:rgb(179,179,179);"/>
                    </g>
                    <g transform="matrix(1.04699,0,0,0.996221,-592,27.0627)">
                        <path d="M611.111,633.787C611.111,631.961 609.701,630.479 607.964,630.479L586.382,630.479C584.645,630.479 583.235,631.961 583.235,633.787L583.235,656.469C583.235,658.294 584.645,659.776 586.382,659.776L607.964,659.776C609.701,659.776 611.111,658.294 611.111,656.469L611.111,633.787Z" style="fill:rgb(179,179,179);"/>
                    </g>
                    <g transform="matrix(1.04699,0,0,0.996221,-467.526,27.2291)">
                        <path d="M611.111,633.787C611.111,631.961 609.701,630.479 607.964,630.479L586.382,630.479C584.645,630.479 583.235,631.961 583.235,633.787L583.235,656.469C583.235,658.294 584.645,659.776 586.382,659.776L607.964,659.776C609.701,659.776 611.111,658.294 611.111,656.469L611.111,633.787Z" style="fill:rgb(179,179,179);"/>
                    </g>
                    <g transform="matrix(1.04699,0,0,0.996221,-529.507,27.1459)">
                        <path d="M611.111,633.787C611.111,631.961 609.701,630.479 607.964,630.479L586.382,630.479C584.645,630.479 583.235,631.961 583.235,633.787L583.235,656.469C583.235,658.294 584.645,659.776 586.382,659.776L607.964,659.776C609.701,659.776 611.111,658.294 611.111,656.469L611.111,633.787Z" style="fill:rgb(179,179,179);"/>
                    </g>
                    <g transform="matrix(1.04699,0,0,0.996221,-405.033,27.3123)">
                        <path d="M611.111,633.787C611.111,631.961 609.701,630.479 607.964,630.479L586.382,630.479C584.645,630.479 583.235,631.961 583.235,633.787L583.235,656.469C583.235,658.294 584.645,659.776 586.382,659.776L607.964,659.776C609.701,659.776 611.111,658.294 611.111,656.469L611.111,633.787Z" style="fill:rgb(179,179,179);"/>
                    </g>
                    <g transform="matrix(1.04699,0,0,0.996221,-342.748,27.3955)">
                        <path d="M611.111,633.787C611.111,631.961 609.701,630.479 607.964,630.479L586.382,630.479C584.645,630.479 583.235,631.961 583.235,633.787L583.235,656.469C583.235,658.294 584.645,659.776 586.382,659.776L607.964,659.776C609.701,659.776 611.111,658.294 611.111,656.469L611.111,633.787Z" style="fill:rgb(179,179,179);"/>
                    </g>
                    <g transform="matrix(1.04699,0,0,0.996221,-560.743,27.0627)">
                        <path d="M611.111,633.787C611.111,631.961 609.701,630.479 607.964,630.479L586.382,630.479C584.645,630.479 583.235,631.961 583.235,633.787L583.235,656.469C583.235,658.294 584.645,659.776 586.382,659.776L607.964,659.776C609.701,659.776 611.111,658.294 611.111,656.469L611.111,633.787Z" style="fill:rgb(179,179,179);"/>
                    </g>
                    <g transform="matrix(1.04699,0,0,0.996221,-436.269,27.2291)">
                        <path d="M611.111,633.787C611.111,631.961 609.701,630.479 607.964,630.479L586.382,630.479C584.645,630.479 583.235,631.961 583.235,633.787L583.235,656.469C583.235,658.294 584.645,659.776 586.382,659.776L607.964,659.776C609.701,659.776 611.111,658.294 611.111,656.469L611.111,633.787Z" style="fill:rgb(179,179,179);"/>
                    </g>
                    <g transform="matrix(1.04699,0,0,0.996221,-498.25,27.1459)">
                        <path d="M611.111,633.787C611.111,631.961 609.701,630.479 607.964,630.479L586.382,630.479C584.645,630.479 583.235,631.961 583.235,633.787L583.235,656.469C583.235,658.294 584.645,659.776 586.382,659.776L607.964,659.776C609.701,659.776 611.111,658.294 611.111,656.469L611.111,633.787Z" style="fill:rgb(179,179,179);"/>
                    </g>
                    <g transform="matrix(1.04699,0,0,0.996221,-373.776,27.3123)">
                        <path d="M611.111,633.787C611.111,631.961 609.701,630.479 607.964,630.479L586.382,630.479C584.645,630.479 583.235,631.961 583.235,633.787L583.235,656.469C583.235,658.294 584.645,659.776 586.382,659.776L607.964,659.776C609.701,659.776 611.111,658.294 611.111,656.469L611.111,633.787Z" style="fill:rgb(179,179,179);"/>
                    </g>
                    <g transform="matrix(1.04699,0,0,0.996221,-311.491,27.3955)">
                        <path d="M611.111,633.787C611.111,631.961 609.701,630.479 607.964,630.479L586.382,630.479C584.645,630.479 583.235,631.961 583.235,633.787L583.235,656.469C583.235,658.294 584.645,659.776 586.382,659.776L607.964,659.776C609.701,659.776 611.111,658.294 611.111,656.469L611.111,633.787Z" style="fill:rgb(179,179,179);"/>
                    </g>
                </g>
                <g>
                    <g transform="matrix(1.04699,0,0,0.996221,-592,120.864)">
                        <path d="M611.111,633.787C611.111,631.961 609.701,630.479 607.964,630.479L586.382,630.479C584.645,630.479 583.235,631.961 583.235,633.787L583.235,656.469C583.235,658.294 584.645,659.776 586.382,659.776L607.964,659.776C609.701,659.776 611.111,658.294 611.111,656.469L611.111,633.787Z" style="fill:rgb(128,128,128);"/>
                    </g>
                    <g transform="matrix(1.04699,0,0,0.996221,-467.526,121.031)">
                        <path d="M611.111,633.787C611.111,631.961 609.701,630.479 607.964,630.479L586.382,630.479C584.645,630.479 583.235,631.961 583.235,633.787L583.235,656.469C583.235,658.294 584.645,659.776 586.382,659.776L607.964,659.776C609.701,659.776 611.111,658.294 611.111,656.469L611.111,633.787Z" style="fill:rgb(128,128,128);"/>
                    </g>
                    <g transform="matrix(1.04699,0,0,0.996221,-529.507,120.948)">
                        <path d="M611.111,633.787C611.111,631.961 609.701,630.479 607.964,630.479L586.382,630.479C584.645,630.479 583.235,631.961 583.235,633.787L583.235,656.469C583.235,658.294 584.645,659.776 586.382,659.776L607.964,659.776C609.701,659.776 611.111,658.294 611.111,656.469L611.111,633.787Z" style="fill:rgb(128,128,128);"/>
                    </g>
                    <g transform="matrix(1.04699,0,0,0.996221,-405.033,121.114)">
                        <path d="M611.111,633.787C611.111,631.961 609.701,630.479 607.964,630.479L586.382,630.479C584.645,630.479 583.235,631.961 583.235,633.787L583.235,656.469C583.235,658.294 584.645,659.776 586.382,659.776L607.964,659.776C609.701,659.776 611.111,658.294 611.111,656.469L611.111,633.787Z" style="fill:rgb(128,128,128);"/>
                    </g>
                    <g transform="matrix(1.04699,0,0,0.996221,-560.743,120.948)">
                        <path d="M611.111,633.787C611.111,631.961 609.701,630.479 607.964,630.479L586.382,630.479C584.645,630.479 583.235,631.961 583.235,633.787L583.235,656.469C583.235,658.294 584.645,659.776 586.382,659.776L607.964,659.776C609.701,659.776 611.111,658.294 611.111,656.469L611.111,633.787Z" style="fill:rgb(128,128,128);"/>
                    </g>
                    <g transform="matrix(1.04699,0,0,0.996221,-436.269,121.114)">
                        <path d="M611.111,633.787C611.111,631.961 609.701,630.479 607.964,630.479L586.382,630.479C584.645,630.479 583.235,631.961 583.235,633.787L583.235,656.469C583.235,658.294 584.645,659.776 586.382,659.776L607.964,659.776C609.701,659.776 611.111,658.294 611.111,656.469L611.111,633.787Z" style="fill:rgb(128,128,128);"/>
                    </g>
                    <g transform="matrix(1.04699,0,0,0.996221,-498.25,121.031)">
                        <path d="M611.111,633.787C611.111,631.961 609.701,630.479 607.964,630.479L586.382,630.479C584.645,630.479 583.235,631.961 583.235,633.787L583.235,656.469C583.235,658.294 584.645,659.776 586.382,659.776L607.964,659.776C609.701,659.776 611.111,658.294 611.111,656.469L611.111,633.787Z" style="fill:rgb(128,128,128);"/>
                    </g>
                    <g transform="matrix(1.04699,0,0,0.996221,-592,89.6387)">
                        <path d="M611.111,633.787C611.111,631.961 609.701,630.479 607.964,630.479L586.382,630.479C584.645,630.479 583.235,631.961 583.235,633.787L583.235,656.469C583.235,658.294 584.645,659.776 586.382,659.776L607.964,659.776C609.701,659.776 611.111,658.294 611.111,656.469L611.111,633.787Z" style="fill:rgb(128,128,128);"/>
                    </g>
                    <g transform="matrix(1.04699,0,0,0.996221,-467.526,89.8051)">
                        <path d="M611.111,633.787C611.111,631.961 609.701,630.479 607.964,630.479L586.382,630.479C584.645,630.479 583.235,631.961 583.235,633.787L583.235,656.469C583.235,658.294 584.645,659.776 586.382,659.776L607.964,659.776C609.701,659.776 611.111,658.294 611.111,656.469L611.111,633.787Z" style="fill:rgb(128,128,128);"/>
                    </g>
                    <g transform="matrix(1.04699,0,0,0.996221,-529.507,89.7219)">
                        <path d="M611.111,633.787C611.111,631.961 609.701,630.479 607.964,630.479L586.382,630.479C584.645,630.479 583.235,631.961 583.235,633.787L583.235,656.469C583.235,658.294 584.645,659.776 586.382,659.776L607.964,659.776C609.701,659.776 611.111,658.294 611.111,656.469L611.111,633.787Z" style="fill:rgb(128,128,128);"/>
                    </g>
                    <g transform="matrix(1.04699,0,0,0.996221,-405.033,89.8883)">
                        <path d="M611.111,633.787C611.111,631.961 609.701,630.479 607.964,630.479L586.382,630.479C584.645,630.479 583.235,631.961 583.235,633.787L583.235,656.469C583.235,658.294 584.645,659.776 586.382,659.776L607.964,659.776C609.701,659.776 611.111,658.294 611.111,656.469L611.111,633.787Z" style="fill:rgb(128,128,128);"/>
                    </g>
                    <g transform="matrix(1.04699,0,0,0.996221,-342.748,89.9715)">
                        <path d="M611.111,633.787C611.111,631.961 609.701,630.479 607.964,630.479L586.382,630.479C584.645,630.479 583.235,631.961 583.235,633.787L583.235,656.469C583.235,658.294 584.645,659.776 586.382,659.776L607.964,659.776C609.701,659.776 611.111,658.294 611.111,656.469L611.111,633.787Z" style="fill:rgb(128,128,128);"/>
                    </g>
                    <g transform="matrix(1.04699,0,0,0.996221,-560.743,89.6387)">
                        <path d="M611.111,633.787C611.111,631.961 609.701,630.479 607.964,630.479L586.382,630.479C584.645,630.479 583.235,631.961 583.235,633.787L583.235,656.469C583.235,658.294 584.645,659.776 586.382,659.776L607.964,659.776C609.701,659.776 611.111,658.294 611.111,656.469L611.111,633.787Z" style="fill:rgb(128,128,128);"/>
                    </g>
                    <g transform="matrix(1.04699,0,0,0.996221,-436.269,89.8051)">
                        <path d="M611.111,633.787C611.111,631.961 609.701,630.479 607.964,630.479L586.382,630.479C584.645,630.479 583.235,631.961 583.235,633.787L583.235,656.469C583.235,658.294 584.645,659.776 586.382,659.776L607.964,659.776C609.701,659.776 611.111,658.294 611.111,656.469L611.111,633.787Z" style="fill:rgb(128,128,128);"/>
                    </g>
                    <g transform="matrix(1.04699,0,0,0.996221,-498.25,89.7219)">
                        <path d="M611.111,633.787C611.111,631.961 609.701,630.479 607.964,630.479L586.382,630.479C584.645,630.479 583.235,631.961 583.235,633.787L583.235,656.469C583.235,658.294 584.645,659.776 586.382,659.776L607.964,659.776C609.701,659.776 611.111,658.294 611.111,656.469L611.111,633.787Z" style="fill:rgb(128,128,128);"/>
                    </g>
                    <g transform="matrix(1.04699,0,0,0.996221,-373.776,89.8883)">
                        <path d="M611.111,633.787C611.111,631.961 609.701,630.479 607.964,630.479L586.382,630.479C584.645,630.479 583.235,631.961 583.235,633.787L583.235,656.469C583.235,658.294 584.645,659.776 586.382,659.776L607.964,659.776C609.701,659.776 611.111,658.294 611.111,656.469L611.111,633.787Z" style="fill:rgb(128,128,128);"/>
                    </g>
                </g>
                <g transform="matrix(1.04699,0,0,0.996221,-342.748,121.197)">
                    <path d="M611.111,633.787C611.111,631.961 609.701,630.479 607.964,630.479L586.382,630.479C584.645,630.479 583.235,631.961 583.235,633.787L583.235,656.469C583.235,658.294 584.645,659.776 586.382,659.776L607.964,659.776C609.701,659.776 611.111,658.294 611.111,656.469L611.111,633.787Z" style="fill:rgb(128,128,128);"/>
                </g>
                <g>
                    <g transform="matrix(1.04699,0,0,0.996221,-592,183.44)">
                        <path d="M611.111,633.787C611.111,631.961 609.701,630.479 607.964,630.479L586.382,630.479C584.645,630.479 583.235,631.961 583.235,633.787L583.235,656.469C583.235,658.294 584.645,659.776 586.382,659.776L607.964,659.776C609.701,659.776 611.111,658.294 611.111,656.469L611.111,633.787Z" style="fill:rgb(241,131,48);"/>
                    </g>
                    <g transform="matrix(1.04699,0,0,0.996221,-467.526,183.607)">
                        <path d="M611.111,633.787C611.111,631.961 609.701,630.479 607.964,630.479L586.382,630.479C584.645,630.479 583.235,631.961 583.235,633.787L583.235,656.469C583.235,658.294 584.645,659.776 586.382,659.776L607.964,659.776C609.701,659.776 611.111,658.294 611.111,656.469L611.111,633.787Z" style="fill:rgb(241,131,48);"/>
                    </g>
                    <g transform="matrix(1.04699,0,0,0.996221,-529.507,183.524)">
                        <path d="M611.111,633.787C611.111,631.961 609.701,630.479 607.964,630.479L586.382,630.479C584.645,630.479 583.235,631.961 583.235,633.787L583.235,656.469C583.235,658.294 584.645,659.776 586.382,659.776L607.964,659.776C609.701,659.776 611.111,658.294 611.111,656.469L611.111,633.787Z" style="fill:rgb(241,131,48);"/>
                    </g>
                    <g transform="matrix(1.04699,0,0,0.996221,-405.033,183.69)">
                        <path d="M611.111,633.787C611.111,631.961 609.701,630.479 607.964,630.479L586.382,630.479C584.645,630.479 583.235,631.961 583.235,633.787L583.235,656.469C583.235,658.294 584.645,659.776 586.382,659.776L607.964,659.776C609.701,659.776 611.111,658.294 611.111,656.469L611.111,633.787Z" style="fill:rgb(241,131,48);"/>
                    </g>
                    <g transform="matrix(1.04699,0,0,0.996221,-342.748,183.773)">
                        <path d="M611.111,633.787C611.111,631.961 609.701,630.479 607.964,630.479L586.382,630.479C584.645,630.479 583.235,631.961 583.235,633.787L583.235,656.469C583.235,658.294 584.645,659.776 586.382,659.776L607.964,659.776C609.701,659.776 611.111,658.294 611.111,656.469L611.111,633.787Z" style="fill:rgb(241,131,48);"/>
                    </g>
                    <g transform="matrix(1.04699,0,0,0.996221,-592,245.689)">
                        <path d="M611.111,633.787C611.111,631.961 609.701,630.479 607.964,630.479L586.382,630.479C584.645,630.479 583.235,631.961 583.235,633.787L583.235,656.469C583.235,658.294 584.645,659.776 586.382,659.776L607.964,659.776C609.701,659.776 611.111,658.294 611.111,656.469L611.111,633.787Z" style="fill:rgb(241,131,48);"/>
                    </g>
                    <g transform="matrix(1.04699,0,0,0.996221,-467.526,245.856)">
                        <path d="M611.111,633.787C611.111,631.961 609.701,630.479 607.964,630.479L586.382,630.479C584.645,630.479 583.235,631.961 583.235,633.787L583.235,656.469C583.235,658.294 584.645,659.776 586.382,659.776L607.964,659.776C609.701,659.776 611.111,658.294 611.111,656.469L611.111,633.787Z" style="fill:rgb(241,131,48);"/>
                    </g>
                    <g transform="matrix(1.04699,0,0,0.996221,-529.507,245.772)">
                        <path d="M611.111,633.787C611.111,631.961 609.701,630.479 607.964,630.479L586.382,630.479C584.645,630.479 583.235,631.961 583.235,633.787L583.235,656.469C583.235,658.294 584.645,659.776 586.382,659.776L607.964,659.776C609.701,659.776 611.111,658.294 611.111,656.469L611.111,633.787Z" style="fill:rgb(241,131,48);"/>
                    </g>
                    <g transform="matrix(1.04699,0,0,0.996221,-405.033,245.939)">
                        <path d="M611.111,633.787C611.111,631.961 609.701,630.479 607.964,630.479L586.382,630.479C584.645,630.479 583.235,631.961 583.235,633.787L583.235,656.469C583.235,658.294 584.645,659.776 586.382,659.776L607.964,659.776C609.701,659.776 611.111,658.294 611.111,656.469L611.111,633.787Z" style="fill:rgb(241,131,48);"/>
                    </g>
                    <g transform="matrix(1.04699,0,0,0.996221,-342.748,246.022)">
                        <path d="M611.111,633.787C611.111,631.961 609.701,630.479 607.964,630.479L586.382,630.479C584.645,630.479 583.235,631.961 583.235,633.787L583.235,656.469C583.235,658.294 584.645,659.776 586.382,659.776L607.964,659.776C609.701,659.776 611.111,658.294 611.111,656.469L611.111,633.787Z" style="fill:rgb(241,131,48);"/>
                    </g>
                    <g transform="matrix(1.04699,0,0,0.996221,-560.743,183.524)">
                        <path d="M611.111,633.787C611.111,631.961 609.701,630.479 607.964,630.479L586.382,630.479C584.645,630.479 583.235,631.961 583.235,633.787L583.235,656.469C583.235,658.294 584.645,659.776 586.382,659.776L607.964,659.776C609.701,659.776 611.111,658.294 611.111,656.469L611.111,633.787Z" style="fill:rgb(241,131,48);"/>
                    </g>
                    <g transform="matrix(1.04699,0,0,0.996221,-436.269,183.69)">
                        <path d="M611.111,633.787C611.111,631.961 609.701,630.479 607.964,630.479L586.382,630.479C584.645,630.479 583.235,631.961 583.235,633.787L583.235,656.469C583.235,658.294 584.645,659.776 586.382,659.776L607.964,659.776C609.701,659.776 611.111,658.294 611.111,656.469L611.111,633.787Z" style="fill:rgb(241,131,48);"/>
                    </g>
                    <g transform="matrix(1.04699,0,0,0.996221,-498.25,183.607)">
                        <path d="M611.111,633.787C611.111,631.961 609.701,630.479 607.964,630.479L586.382,630.479C584.645,630.479 583.235,631.961 583.235,633.787L583.235,656.469C583.235,658.294 584.645,659.776 586.382,659.776L607.964,659.776C609.701,659.776 611.111,658.294 611.111,656.469L611.111,633.787Z" style="fill:rgb(241,131,48);"/>
                    </g>
                    <g transform="matrix(1.04699,0,0,0.996221,-373.776,183.773)">
                        <path d="M611.111,633.787C611.111,631.961 609.701,630.479 607.964,630.479L586.382,630.479C584.645,630.479 583.235,631.961 583.235,633.787L583.235,656.469C583.235,658.294 584.645,659.776 586.382,659.776L607.964,659.776C609.701,659.776 611.111,658.294 611.111,656.469L611.111,633.787Z" style="fill:rgb(241,131,48);"/>
                    </g>
                    <g transform="matrix(1.04699,0,0,0.996221,-311.491,183.856)">
                        <path d="M611.111,633.787C611.111,631.961 609.701,630.479 607.964,630.479L586.382,630.479C584.645,630.479 583.235,631.961 583.235,633.787L583.235,656.469C583.235,658.294 584.645,659.776 586.382,659.776L607.964,659.776C609.701,659.776 611.111,658.294 611.111,656.469L611.111,633.787Z" style="fill:rgb(241,131,48);"/>
                    </g>
                    <g transform="matrix(1.04699,0,0,0.996221,-560.743,245.772)">
                        <path d="M611.111,633.787C611.111,631.961 609.701,630.479 607.964,630.479L586.382,630.479C584.645,630.479 583.235,631.961 583.235,633.787L583.235,656.469C583.235,658.294 584.645,659.776 586.382,659.776L607.964,659.776C609.701,659.776 611.111,658.294 611.111,656.469L611.111,633.787Z" style="fill:rgb(241,131,48);"/>
                    </g>
                    <g transform="matrix(1.04699,0,0,0.996221,-436.269,245.939)">
                        <path d="M611.111,633.787C611.111,631.961 609.701,630.479 607.964,630.479L586.382,630.479C584.645,630.479 583.235,631.961 583.235,633.787L583.235,656.469C583.235,658.294 584.645,659.776 586.382,659.776L607.964,659.776C609.701,659.776 611.111,658.294 611.111,656.469L611.111,633.787Z" style="fill:rgb(241,131,48);"/>
                    </g>
                    <g transform="matrix(1.04699,0,0,0.996221,-498.25,245.856)">
                        <path d="M611.111,633.787C611.111,631.961 609.701,630.479 607.964,630.479L586.382,630.479C584.645,630.479 583.235,631.961 583.235,633.787L583.235,656.469C583.235,658.294 584.645,659.776 586.382,659.776L607.964,659.776C609.701,659.776 611.111,658.294 611.111,656.469L611.111,633.787Z" style="fill:rgb(241,131,48);"/>
                    </g>
                    <g transform="matrix(1.04699,0,0,0.996221,-373.776,246.022)">
                        <path d="M611.111,633.787C611.111,631.961 609.701,630.479 607.964,630.479L586.382,630.479C584.645,630.479 583.235,631.961 583.235,633.787L583.235,656.469C583.235,658.294 584.645,659.776 586.382,659.776L607.964,659.776C609.701,659.776 611.111,658.294 611.111,656.469L611.111,633.787Z" style="fill:rgb(241,131,48);"/>
                    </g>
                    <g transform="matrix(1.04699,0,0,0.996221,-311.491,246.105)">
                        <path d="M611.111,633.787C611.111,631.961 609.701,630.479 607.964,630.479L586.382,630.479C584.645,630.479 583.235,631.961 583.235,633.787L583.235,656.469C583.235,658.294 584.645,659.776 586.382,659.776L607.964,659.776C609.701,659.776 611.111,658.294 611.111,656.469L611.111,633.787Z" style="fill:rgb(241,131,48);"/>
                    </g>
                    <g transform="matrix(1.04699,0,0,0.996221,-592,151.863)">
                        <path d="M611.111,633.787C611.111,631.961 609.701,630.479 607.964,630.479L586.382,630.479C584.645,630.479 583.235,631.961 583.235,633.787L583.235,656.469C583.235,658.294 584.645,659.776 586.382,659.776L607.964,659.776C609.701,659.776 611.111,658.294 611.111,656.469L611.111,633.787Z" style="fill:rgb(128,128,128);"/>
                    </g>
                    <g transform="matrix(1.04699,0,0,0.996221,-467.526,152.029)">
                        <path d="M611.111,633.787C611.111,631.961 609.701,630.479 607.964,630.479L586.382,630.479C584.645,630.479 583.235,631.961 583.235,633.787L583.235,656.469C583.235,658.294 584.645,659.776 586.382,659.776L607.964,659.776C609.701,659.776 611.111,658.294 611.111,656.469L611.111,633.787Z" style="fill:rgb(241,131,48);"/>
                    </g>
                    <g transform="matrix(1.04699,0,0,0.996221,-529.507,151.946)">
                        <path d="M611.111,633.787C611.111,631.961 609.701,630.479 607.964,630.479L586.382,630.479C584.645,630.479 583.235,631.961 583.235,633.787L583.235,656.469C583.235,658.294 584.645,659.776 586.382,659.776L607.964,659.776C609.701,659.776 611.111,658.294 611.111,656.469L611.111,633.787Z" style="fill:rgb(241,131,48);"/>
                    </g>
                    <g transform="matrix(1.04699,0,0,0.996221,-405.033,152.113)">
                        <path d="M611.111,633.787C611.111,631.961 609.701,630.479 607.964,630.479L586.382,630.479C584.645,630.479 583.235,631.961 583.235,633.787L583.235,656.469C583.235,658.294 584.645,659.776 586.382,659.776L607.964,659.776C609.701,659.776 611.111,658.294 611.111,656.469L611.111,633.787Z" style="fill:rgb(241,131,48);"/>
                    </g>
                    <g transform="matrix(1.04699,0,0,0.996221,-342.748,152.196)">
                        <path d="M611.111,633.787C611.111,631.961 609.701,630.479 607.964,630.479L586.382,630.479C584.645,630.479 583.235,631.961 583.235,633.787L583.235,656.469C583.235,658.294 584.645,659.776 586.382,659.776L607.964,659.776C609.701,659.776 611.111,658.294 611.111,656.469L611.111,633.787Z" style="fill:rgb(241,131,48);"/>
                    </g>
                    <g transform="matrix(1.04699,0,0,0.996221,-592,214.439)">
                        <path d="M611.111,633.787C611.111,631.961 609.701,630.479 607.964,630.479L586.382,630.479C584.645,630.479 583.235,631.961 583.235,633.787L583.235,656.469C583.235,658.294 584.645,659.776 586.382,659.776L607.964,659.776C609.701,659.776 611.111,658.294 611.111,656.469L611.111,633.787Z" style="fill:rgb(241,131,48);"/>
                    </g>
                    <g transform="matrix(1.04699,0,0,0.996221,-467.526,214.605)">
                        <path d="M611.111,633.787C611.111,631.961 609.701,630.479 607.964,630.479L586.382,630.479C584.645,630.479 583.235,631.961 583.235,633.787L583.235,656.469C583.235,658.294 584.645,659.776 586.382,659.776L607.964,659.776C609.701,659.776 611.111,658.294 611.111,656.469L611.111,633.787Z" style="fill:rgb(241,131,48);"/>
                    </g>
                    <g transform="matrix(1.04699,0,0,0.996221,-529.507,214.522)">
                        <path d="M611.111,633.787C611.111,631.961 609.701,630.479 607.964,630.479L586.382,630.479C584.645,630.479 583.235,631.961 583.235,633.787L583.235,656.469C583.235,658.294 584.645,659.776 586.382,659.776L607.964,659.776C609.701,659.776 611.111,658.294 611.111,656.469L611.111,633.787Z" style="fill:rgb(241,131,48);"/>
                    </g>
                    <g transform="matrix(1.04699,0,0,0.996221,-405.033,214.689)">
                        <path d="M611.111,633.787C611.111,631.961 609.701,630.479 607.964,630.479L586.382,630.479C584.645,630.479 583.235,631.961 583.235,633.787L583.235,656.469C583.235,658.294 584.645,659.776 586.382,659.776L607.964,659.776C609.701,659.776 611.111,658.294 611.111,656.469L611.111,633.787Z" style="fill:rgb(241,131,48);"/>
                    </g>
                    <g transform="matrix(1.04699,0,0,0.996221,-342.748,214.772)">
                        <path d="M611.111,633.787C611.111,631.961 609.701,630.479 607.964,630.479L586.382,630.479C584.645,630.479 583.235,631.961 583.235,633.787L583.235,656.469C583.235,658.294 584.645,659.776 586.382,659.776L607.964,659.776C609.701,659.776 611.111,658.294 611.111,656.469L611.111,633.787Z" style="fill:rgb(241,131,48);"/>
                    </g>
                    <g transform="matrix(1.04699,0,0,0.996221,-592,276.688)">
                        <path d="M611.111,633.787C611.111,631.961 609.701,630.479 607.964,630.479L586.382,630.479C584.645,630.479 583.235,631.961 583.235,633.787L583.235,656.469C583.235,658.294 584.645,659.776 586.382,659.776L607.964,659.776C609.701,659.776 611.111,658.294 611.111,656.469L611.111,633.787Z" style="fill:rgb(241,131,48);"/>
                    </g>
                    <g transform="matrix(1.04699,0,0,0.996221,-467.526,276.854)">
                        <path d="M611.111,633.787C611.111,631.961 609.701,630.479 607.964,630.479L586.382,630.479C584.645,630.479 583.235,631.961 583.235,633.787L583.235,656.469C583.235,658.294 584.645,659.776 586.382,659.776L607.964,659.776C609.701,659.776 611.111,658.294 611.111,656.469L611.111,633.787Z" style="fill:rgb(241,131,48);"/>
                    </g>
                    <g transform="matrix(1.04699,0,0,0.996221,-529.507,276.771)">
                        <path d="M611.111,633.787C611.111,631.961 609.701,630.479 607.964,630.479L586.382,630.479C584.645,630.479 583.235,631.961 583.235,633.787L583.235,656.469C583.235,658.294 584.645,659.776 586.382,659.776L607.964,659.776C609.701,659.776 611.111,658.294 611.111,656.469L611.111,633.787Z" style="fill:rgb(241,131,48);"/>
                    </g>
                    <g transform="matrix(1.04699,0,0,0.996221,-405.033,276.937)">
                        <path d="M611.111,633.787C611.111,631.961 609.701,630.479 607.964,630.479L586.382,630.479C584.645,630.479 583.235,631.961 583.235,633.787L583.235,656.469C583.235,658.294 584.645,659.776 586.382,659.776L607.964,659.776C609.701,659.776 611.111,658.294 611.111,656.469L611.111,633.787Z" style="fill:rgb(241,131,48);"/>
                    </g>
                    <g transform="matrix(1.04699,0,0,0.996221,-342.748,277.021)">
                        <path d="M611.111,633.787C611.111,631.961 609.701,630.479 607.964,630.479L586.382,630.479C584.645,630.479 583.235,631.961 583.235,633.787L583.235,656.469C583.235,658.294 584.645,659.776 586.382,659.776L607.964,659.776C609.701,659.776 611.111,658.294 611.111,656.469L611.111,633.787Z" style="fill:rgb(241,131,48);"/>
                    </g>
                    <g transform="matrix(1.04699,0,0,0.996221,-560.743,151.863)">
                        <path d="M611.111,633.787C611.111,631.961 609.701,630.479 607.964,630.479L586.382,630.479C584.645,630.479 583.235,631.961 583.235,633.787L583.235,656.469C583.235,658.294 584.645,659.776 586.382,659.776L607.964,659.776C609.701,659.776 611.111,658.294 611.111,656.469L611.111,633.787Z" style="fill:rgb(128,128,128);"/>
                    </g>
                    <g transform="matrix(1.04699,0,0,0.996221,-436.269,152.029)">
                        <path d="M611.111,633.787C611.111,631.961 609.701,630.479 607.964,630.479L586.382,630.479C584.645,630.479 583.235,631.961 583.235,633.787L583.235,656.469C583.235,658.294 584.645,659.776 586.382,659.776L607.964,659.776C609.701,659.776 611.111,658.294 611.111,656.469L611.111,633.787Z" style="fill:rgb(241,131,48);"/>
                    </g>
                    <g transform="matrix(1.04699,0,0,0.996221,-498.25,151.946)">
                        <path d="M611.111,633.787C611.111,631.961 609.701,630.479 607.964,630.479L586.382,630.479C584.645,630.479 583.235,631.961 583.235,633.787L583.235,656.469C583.235,658.294 584.645,659.776 586.382,659.776L607.964,659.776C609.701,659.776 611.111,658.294 611.111,656.469L611.111,633.787Z" style="fill:rgb(241,131,48);"/>
                    </g>
                    <g transform="matrix(1.04699,0,0,0.996221,-373.776,152.113)">
                        <path d="M611.111,633.787C611.111,631.961 609.701,630.479 607.964,630.479L586.382,630.479C584.645,630.479 583.235,631.961 583.235,633.787L583.235,656.469C583.235,658.294 584.645,659.776 586.382,659.776L607.964,659.776C609.701,659.776 611.111,658.294 611.111,656.469L611.111,633.787Z" style="fill:rgb(241,131,48);"/>
                    </g>
                    <g transform="matrix(1.04699,0,0,0.996221,-311.491,152.196)">
                        <path d="M611.111,633.787C611.111,631.961 609.701,630.479 607.964,630.479L586.382,630.479C584.645,630.479 583.235,631.961 583.235,633.787L583.235,656.469C583.235,658.294 584.645,659.776 586.382,659.776L607.964,659.776C609.701,659.776 611.111,658.294 611.111,656.469L611.111,633.787Z" style="fill:rgb(241,131,48);"/>
                    </g>
                    <g transform="matrix(1.04699,0,0,0.996221,-560.743,214.439)">
                        <path d="M611.111,633.787C611.111,631.961 609.701,630.479 607.964,630.479L586.382,630.479C584.645,630.479 583.235,631.961 583.235,633.787L583.235,656.469C583.235,658.294 584.645,659.776 586.382,659.776L607.964,659.776C609.701,659.776 611.111,658.294 611.111,656.469L611.111,633.787Z" style="fill:rgb(241,131,48);"/>
                    </g>
                    <g transform="matrix(1.04699,0,0,0.996221,-436.269,214.605)">
                        <path d="M611.111,633.787C611.111,631.961 609.701,630.479 607.964,630.479L586.382,630.479C584.645,630.479 583.235,631.961 583.235,633.787L583.235,656.469C583.235,658.294 584.645,659.776 586.382,659.776L607.964,659.776C609.701,659.776 611.111,658.294 611.111,656.469L611.111,633.787Z" style="fill:rgb(241,131,48);"/>
                    </g>
                    <g transform="matrix(1.04699,0,0,0.996221,-498.25,214.522)">
                        <path d="M611.111,633.787C611.111,631.961 609.701,630.479 607.964,630.479L586.382,630.479C584.645,630.479 583.235,631.961 583.235,633.787L583.235,656.469C583.235,658.294 584.645,659.776 586.382,659.776L607.964,659.776C609.701,659.776 611.111,658.294 611.111,656.469L611.111,633.787Z" style="fill:rgb(241,131,48);"/>
                    </g>
                    <g transform="matrix(1.04699,0,0,0.996221,-373.776,214.689)">
                        <path d="M611.111,633.787C611.111,631.961 609.701,630.479 607.964,630.479L586.382,630.479C584.645,630.479 583.235,631.961 583.235,633.787L583.235,656.469C583.235,658.294 584.645,659.776 586.382,659.776L607.964,659.776C609.701,659.776 611.111,658.294 611.111,656.469L611.111,633.787Z" style="fill:rgb(241,131,48);"/>
                    </g>
                    <g transform="matrix(1.04699,0,0,0.996221,-311.491,214.772)">
                        <path d="M611.111,633.787C611.111,631.961 609.701,630.479 607.964,630.479L586.382,630.479C584.645,630.479 583.235,631.961 583.235,633.787L583.235,656.469C583.235,658.294 584.645,659.776 586.382,659.776L607.964,659.776C609.701,659.776 611.111,658.294 611.111,656.469L611.111,633.787Z" style="fill:rgb(241,131,48);"/>
                    </g>
                    <g transform="matrix(1.04699,0,0,0.996221,-560.743,276.688)">
                        <path d="M611.111,633.787C611.111,631.961 609.701,630.479 607.964,630.479L586.382,630.479C584.645,630.479 583.235,631.961 583.235,633.787L583.235,656.469C583.235,658.294 584.645,659.776 586.382,659.776L607.964,659.776C609.701,659.776 611.111,658.294 611.111,656.469L611.111,633.787Z" style="fill:rgb(241,131,48);"/>
                    </g>
                    <g transform="matrix(1.04699,0,0,0.996221,-436.269,276.854)">
                        <path d="M611.111,633.787C611.111,631.961 609.701,630.479 607.964,630.479L586.382,630.479C584.645,630.479 583.235,631.961 583.235,633.787L583.235,656.469C583.235,658.294 584.645,659.776 586.382,659.776L607.964,659.776C609.701,659.776 611.111,658.294 611.111,656.469L611.111,633.787Z" style="fill:rgb(241,131,48);"/>
                    </g>
                    <g transform="matrix(1.04699,0,0,0.996221,-498.25,276.771)">
                        <path d="M611.111,633.787C611.111,631.961 609.701,630.479 607.964,630.479L586.382,630.479C584.645,630.479 583.235,631.961 583.235,633.787L583.235,656.469C583.235,658.294 584.645,659.776 586.382,659.776L607.964,659.776C609.701,659.776 611.111,658.294 611.111,656.469L611.111,633.787Z" style="fill:rgb(241,131,48);"/>
                    </g>
                    <g transform="matrix(1.04699,0,0,0.996221,-373.776,276.937)">
                        <path d="M611.111,633.787C611.111,631.961 609.701,630.479 607.964,630.479L586.382,630.479C584.645,630.479 583.235,631.961 583.235,633.787L583.235,656.469C583.235,658.294 584.645,659.776 586.382,659.776L607.964,659.776C609.701,659.776 611.111,658.294 611.111,656.469L611.111,633.787Z" style="fill:rgb(241,131,48);"/>
                    </g>
                    <g transform="matrix(1.04699,0,0,0.996221,-311.491,277.021)">
                        <path d="M611.111,633.787C611.111,631.961 609.701,630.479 607.964,630.479L586.382,630.479C584.645,630.479 583.235,631.961 583.235,633.787L583.235,656.469C583.235,658.294 584.645,659.776 586.382,659.776L607.964,659.776C609.701,659.776 611.111,658.294 611.111,656.469L611.111,633.787Z" style="fill:rgb(241,131,48);"/>
                    </g>
                </g>
                <g transform="matrix(1.04699,0,0,0.996221,-373.776,121.197)">
                    <path d="M611.111,633.787C611.111,631.961 609.701,630.479 607.964,630.479L586.382,630.479C584.645,630.479 583.235,631.961 583.235,633.787L583.235,656.469C583.235,658.294 584.645,659.776 586.382,659.776L607.964,659.776C609.701,659.776 611.111,658.294 611.111,656.469L611.111,633.787Z" style="fill:rgb(128,128,128);"/>
                </g>
                <g transform="matrix(1.04699,0,0,0.996221,-311.491,121.28)">
                    <path d="M611.111,633.787C611.111,631.961 609.701,630.479 607.964,630.479L586.382,630.479C584.645,630.479 583.235,631.961 583.235,633.787L583.235,656.469C583.235,658.294 584.645,659.776 586.382,659.776L607.964,659.776C609.701,659.776 611.111,658.294 611.111,656.469L611.111,633.787Z" style="fill:rgb(128,128,128);"/>
                </g>
                <g transform="matrix(1.04699,0,0,0.996221,-311.491,89.9715)">
                    <path d="M611.111,633.787C611.111,631.961 609.701,630.479 607.964,630.479L586.382,630.479C584.645,630.479 583.235,631.961 583.235,633.787L583.235,656.469C583.235,658.294 584.645,659.776 586.382,659.776L607.964,659.776C609.701,659.776 611.111,658.294 611.111,656.469L611.111,633.787Z" style="fill:rgb(128,128,128);"/>
                </g>
            </g>
        </g>
    </g>
</svg>
