<?xml version="1.0" encoding="UTF-8" standalone="no"?>
<!DOCTYPE svg PUBLIC "-//W3C//DTD SVG 1.1//EN" "http://www.w3.org/Graphics/SVG/1.1/DTD/svg11.dtd">
<svg width="100%" height="100%" viewBox="0 0 3125 2084" version="1.1" xmlns="http://www.w3.org/2000/svg" xmlns:xlink="http://www.w3.org/1999/xlink" xml:space="preserve" xmlns:serif="http://www.serif.com/" style="fill-rule:evenodd;clip-rule:evenodd;stroke-linejoin:round;stroke-miterlimit:2;">
    <g transform="matrix(4.16667,0,0,4.16667,0,0)">
        <path d="M274.735,67.014C274.735,67.014 272.534,57.898 279.937,53.082C287.339,48.265 327.145,46.201 321.545,87.825C315.943,129.448 303.142,165.053 326.749,175.028C326.749,175.028 328.747,175.931 327.897,177.695C327.045,179.458 323.197,178.34 323.197,178.34C323.197,178.34 328.447,185.995 319.346,191.242C310.245,196.487 269.587,201.835 271.64,160.626C273.695,119.418 274.735,67.014 274.735,67.014Z" style="fill:rgb(145,32,56);"/>
        <path d="M284.025,88.776C292.037,88.776 298.575,82.24 298.575,74.227C298.575,66.213 292.037,59.678 284.025,59.678C276.011,59.678 269.475,66.213 269.475,74.227C269.475,82.24 276.011,88.776 284.025,88.776Z" style="fill:rgb(30,15,65);"/>
        <path d="M267.727,123.255L267.724,123.255C255.567,123.255 245.622,140.265 245.622,161.054L245.622,181.262C245.622,182.422 244.096,183.056 244.096,183.056L238.07,185.521L238.38,194.794L248.321,211.584L248.761,211.111C252.634,222.137 259.696,229.554 267.724,229.554L267.727,229.554C275.786,229.554 282.871,222.081 286.734,210.987L287.289,211.584L297.23,194.794L297.54,185.521L291.514,183.056C291.514,183.056 289.989,182.422 289.989,181.262L289.83,181.33L289.83,161.054C289.83,140.265 279.884,123.255 267.727,123.255Z" style="fill:rgb(249,170,128);"/>
        <path d="M245.87,155.396C245.707,157.243 245.622,159.132 245.622,161.054L245.622,181.262C245.622,182.422 244.096,183.056 244.096,183.056L238.07,185.521L238.38,194.794L248.321,211.584L248.761,211.111C252.221,220.962 258.226,227.932 265.193,229.305C267.174,229.33 269.057,229.279 270.815,229.184C273.604,228.508 276.231,226.935 278.589,224.639C275.748,222.888 276.863,223.584 263.972,215.607C253.747,209.281 248.003,191.701 252.83,183.425C254.089,181.267 256.068,179.741 258.872,179.214C258.092,174.833 250.707,162.225 245.87,155.396Z" style="fill:rgb(243,122,112);"/>
        <path d="M245.622,162.325L245.622,181.225C268.007,191.84 283.421,181.18 289.83,175.047L289.83,166.587C283.235,162.917 267.898,163.044 253.29,162.429C250.723,162.321 248.125,162.279 245.622,162.325Z" style="fill:rgb(243,122,112);"/>
        <path d="M345.041,204.67L353.545,209.414C353.545,209.414 357.079,212.066 359.179,217.479C361.277,222.891 390.991,317.667 390.991,317.667C390.991,317.667 395.85,336.886 385.91,353.235C375.967,369.583 340.679,414.166 340.679,414.166L319.41,374.223L351.888,334.235C351.888,334.235 348.572,330.591 351.665,327.94L335.768,277.757L333.146,232.24L345.041,204.67Z" style="fill:rgb(52,145,207);"/>
        <path d="M347.666,315.314L335.768,277.757L334.277,251.887L341.326,244.274L347.666,315.314ZM351.888,334.235C351.888,334.235 349.959,332.115 350.417,329.932L361.165,331.69L351.888,334.235ZM358.879,390.729C350.942,401.117 343.896,410.084 341.526,413.091L338.656,410.366L326.191,386.956L324.601,374.772L334.951,356.442L358.879,390.729Z" style="fill:rgb(15,105,177);"/>
        <path d="M190.413,204.67L181.909,209.414C181.909,209.414 178.374,212.066 176.275,217.479C174.176,222.891 144.463,317.667 144.463,317.667C144.463,317.667 139.601,336.886 149.543,353.235C159.486,369.583 194.775,414.166 194.775,414.166L216.042,374.223L183.565,334.235C183.565,334.235 186.879,330.591 183.786,327.94L199.686,277.757L202.307,232.24L190.413,204.67Z" style="fill:rgb(52,145,207);"/>
        <path d="M187.787,315.314L199.686,277.757L201.175,251.887L194.128,244.274L187.787,315.314ZM183.565,334.235C183.565,334.235 185.494,332.115 185.036,329.932L174.288,331.69L183.565,334.235ZM176.574,390.729C184.512,401.117 191.558,410.084 193.925,413.091L196.797,410.366L209.262,386.956L210.851,374.772L200.5,356.442L176.574,390.729Z" style="fill:rgb(15,105,177);"/>
        <path d="M329.668,393.854L333.734,403.134C333.734,403.134 337.638,409.762 338.125,412.082C338.453,413.642 341.154,430.688 342.888,441.684C343.73,447.036 353.828,500 353.828,500L182.958,500C182.958,500 191.235,447.956 191.917,443.623C193.618,432.825 196.637,413.736 196.985,412.082C197.471,409.762 201.375,403.134 201.375,403.134L205.441,393.854L267.556,396.007L329.668,393.854Z" style="fill:rgb(15,105,177);"/>
        <path d="M329.668,393.854L333.734,403.134C333.734,403.134 337.638,409.762 338.125,412.082C338.391,413.342 340.206,424.723 341.809,434.846L190.053,455.374C191.014,449.325 191.736,444.777 191.917,443.623C193.618,432.825 196.637,413.736 196.986,412.082C197.471,409.762 201.375,403.134 201.375,403.134L205.441,393.854L267.556,396.007L329.668,393.854Z" style="fill:rgb(13,94,163);"/>
        <path d="M211.461,387.923L211.461,393.854C211.461,393.854 242.025,399.377 267.727,399.377C293.426,399.377 323.99,393.854 323.99,393.854L323.99,387.923L267.727,388.551L211.461,387.923Z" style="fill:rgb(220,100,57);"/>
        <path d="M297.599,185.608L340.084,202.811L338.391,244.57C334.968,288.267 328.183,352.545 328.183,355.235C328.183,357.927 330.701,366.28 333.692,376.332L333.692,376.334C333.715,376.448 334.46,380.103 331.501,382.844C328.542,385.582 323.99,387.923 323.99,387.923C275.617,393.621 259.833,393.621 211.461,387.923C211.461,387.923 206.91,385.582 203.95,382.844C200.991,380.103 201.735,376.448 201.758,376.334L201.758,376.332C204.75,366.28 207.269,357.927 207.269,355.235C207.269,352.545 201.367,290.034 197.945,246.338L195.367,202.811L238.07,185.521L238.011,185.608C238.011,185.608 243.048,213.849 267.806,213.849C292.554,213.849 297.596,185.626 297.599,185.608Z" style="fill:white;"/>
        <path d="M329.416,341.71C328.656,349.508 328.183,354.525 328.183,355.235C328.183,357.927 330.701,366.282 333.692,376.332L333.692,376.334C333.718,376.448 334.46,380.103 331.501,382.842C328.542,385.582 323.99,387.923 323.99,387.923C275.617,393.621 259.833,393.621 211.461,387.923C211.461,387.923 206.91,385.582 203.95,382.842C200.991,380.103 201.734,376.448 201.758,376.334L201.758,376.332C204.75,366.28 207.269,357.927 207.269,355.235C207.269,352.545 201.367,290.034 197.945,246.338L195.716,208.718C205.474,202.073 214.422,196.486 221.681,192.157L238.07,185.521L238.011,185.608C238.011,185.608 239.037,191.363 242.441,197.676C249.644,245.886 250.668,284.031 269.096,302.878C289.496,323.739 315.921,317.713 315.921,317.713C315.921,317.713 321.394,327.086 329.416,341.71Z" style="fill:rgb(197,201,203);"/>
        <path d="M239.774,184.831C239.774,184.831 236.972,183.405 235.977,183.737C234.984,184.068 192.291,203.51 190.413,204.67C190.413,204.67 197.663,274.284 196.357,288.798L203.225,341.089C203.225,341.089 200.353,343.851 202.894,346.943L184.115,421.505C184.115,421.505 183.453,424.377 186.546,425.481C189.638,426.585 244.648,435.864 244.648,435.864C244.648,435.864 250.394,435.864 251.277,432.108C252.16,428.353 258.712,335.597 258.712,335.597L234.744,186.867L239.774,184.831Z" style="fill:rgb(52,145,207);"/>
        <path d="M295.68,184.831C295.68,184.831 298.48,183.405 299.474,183.737C300.469,184.068 343.163,203.51 345.041,204.67C345.041,204.67 337.789,274.284 339.094,288.798L332.227,341.089C332.227,341.089 335.099,343.851 332.559,346.943L351.336,421.505C351.336,421.505 351.999,424.377 348.906,425.481C345.813,426.585 290.803,435.864 290.803,435.864C290.803,435.864 285.061,435.864 284.176,432.108C283.292,428.353 276.739,335.597 276.739,335.597L300.709,186.867L295.68,184.831Z" style="fill:rgb(52,145,207);"/>
        <path d="M295.68,184.831C295.68,184.831 298.48,183.405 299.474,183.737C299.798,183.845 304.511,185.965 310.797,188.82L318.165,244.809L277.001,333.979L277.001,333.978L300.709,186.867L295.68,184.831Z" style="fill:rgb(95,172,223);"/>
        <path d="M239.774,184.831C239.774,184.831 236.972,183.405 235.977,183.737C235.656,183.845 230.94,185.965 224.654,188.82L217.287,244.809L258.453,333.979L258.453,333.978L234.744,186.867L239.774,184.831Z" style="fill:rgb(95,172,223);"/>
        <path d="M307.522,120.01C307.81,120.051 308.092,120.101 308.372,120.161L308.38,120.164L308.38,120.162C313.543,121.282 317.437,125.845 317.503,131.352C317.58,137.752 312.451,143.004 306.052,143.081C299.652,143.157 294.399,138.031 294.323,131.631C294.275,127.91 295.989,124.58 298.689,122.426C298.369,125.846 298.885,130.085 303.248,130.539L303.169,123.856C303.137,121.149 305.667,119.923 307.522,120.01Z" style="fill:rgb(243,122,112);"/>
        <path d="M228.253,119.459C227.965,119.496 227.684,119.541 227.401,119.598L227.394,119.6L227.394,119.599C222.216,120.645 218.259,125.155 218.114,130.66C217.949,137.059 223.004,142.382 229.402,142.547C235.801,142.714 241.125,137.659 241.29,131.263C241.389,127.542 239.722,124.188 237.052,121.998C237.324,125.421 236.75,129.653 232.379,130.046L232.553,123.363C232.624,120.659 230.108,119.397 228.253,119.459Z" style="fill:rgb(243,122,112);"/>
        <path d="M267.811,178.055C246.175,178.055 228.123,151.357 228.123,130.276L228.123,102.274C228.123,80.447 245.982,62.591 267.806,62.591L267.811,62.591C289.632,62.591 307.493,80.447 307.493,102.274L307.493,129.685C307.493,152.785 291.747,178.055 267.811,178.055Z" style="fill:rgb(249,170,128);"/>
        <path d="M230.456,88.909L230.468,88.873C230.574,88.835 279.067,71.642 280.097,72.818C281.127,73.997 287.46,84.454 287.46,84.454C287.46,84.454 276.563,81.066 265.81,92.259C255.06,103.453 243.423,111.996 233.556,111.848C223.899,111.703 230.181,89.848 230.456,88.909Z" style="fill:rgb(243,122,112);"/>
        <path d="M296.502,137.792C292.886,137.858 290.009,140.844 290.078,144.46C290.145,148.075 293.129,150.952 296.745,150.884C300.358,150.817 303.236,147.833 303.169,144.217C303.102,140.603 300.118,137.725 296.502,137.792Z" style="fill:rgb(243,122,112);"/>
        <path d="M238.873,138.834C235.257,138.901 232.379,141.887 232.446,145.502C232.514,149.117 235.5,151.994 239.115,151.927C242.729,151.86 245.606,148.875 245.54,145.26C245.473,141.644 242.487,138.768 238.873,138.834Z" style="fill:rgb(243,122,112);"/>
        <path d="M256.013,113.801C256.847,114.18 257.219,115.167 256.84,116.001C256.461,116.837 255.476,117.208 254.641,116.829C254.626,116.823 249.612,114.452 244.827,117.46C244.047,117.951 243.016,117.715 242.525,116.937C242.035,116.158 242.271,115.125 243.051,114.635C249.371,110.661 255.996,113.793 256.013,113.801Z" style="fill:rgb(28,32,77);"/>
        <path d="M295.256,114.542C296.059,114.987 296.348,116.001 295.903,116.803C295.457,117.605 294.444,117.894 293.642,117.448C293.629,117.442 288.825,114.669 283.81,117.279C282.992,117.705 281.984,117.386 281.559,116.57C281.135,115.754 281.452,114.744 282.269,114.319C288.892,110.872 295.239,114.533 295.256,114.542Z" style="fill:rgb(28,32,77);"/>
        <path d="M257.98,149.54C257.92,156.028 263.132,161.334 269.621,161.395C276.11,161.453 281.415,156.241 281.474,149.754L281.454,149.752C281.464,148.637 280.56,147.717 279.446,147.707L260.047,147.529C258.93,147.52 258.01,148.425 258,149.54L257.98,149.54Z" style="fill:white;"/>
        <path d="M262.273,158.725C264.274,160.371 266.83,161.368 269.621,161.394C271.899,161.415 274.035,160.783 275.845,159.676C274.965,157.256 272.346,155.429 269.168,155.283C266.137,155.142 263.469,156.572 262.273,158.725Z" style="fill:white;"/>
        <path d="M278.79,147.701L260.558,147.535C260.25,149.547 261.165,151.594 262.516,152.05C264.163,152.603 277.358,152.38 278.301,151.349C278.757,150.851 278.832,149.236 278.79,147.701Z" style="fill:white;"/>
        <path d="M270.508,131.131C271.36,133.551 272.845,137.923 272.72,138.609C272.539,139.566 267.486,139.816 266.162,138.355C265.277,137.382 266.372,133.755 267.331,131.342C268.636,128.05 269.364,127.875 270.508,131.131Z" style="fill:rgb(252,205,192);"/>
        <path d="M288.599,123.18C285.771,123.18 283.48,125.472 283.48,128.299C283.48,131.127 285.771,133.419 288.599,133.419C291.427,133.419 293.721,131.127 293.721,128.299C293.721,127.982 293.691,127.672 293.637,127.37L293.788,127.349C294.377,127.254 295.006,127.042 295.62,126.645C295.895,126.47 295.977,126.104 295.801,125.828C295.625,125.553 295.258,125.472 294.984,125.647C294.409,126.017 293.82,126.176 293.28,126.22L293.267,126.191C293.84,125.98 294.441,125.616 294.939,124.999C295.145,124.745 295.105,124.373 294.85,124.167C294.598,123.961 294.224,124.003 294.018,124.256C293.609,124.763 293.104,125.028 292.648,125.165L292.596,125.098C292.98,124.884 293.379,124.548 293.646,124.022C293.795,123.731 293.681,123.375 293.389,123.226C293.099,123.076 292.743,123.192 292.594,123.482C292.363,123.932 291.973,124.132 291.695,124.22C290.835,123.568 289.763,123.18 288.599,123.18ZM247.016,123.18C245.843,123.18 244.762,123.575 243.899,124.237C243.62,124.159 243.187,123.964 242.942,123.482C242.793,123.192 242.436,123.076 242.147,123.226C241.854,123.375 241.74,123.731 241.889,124.022C242.169,124.574 242.594,124.916 242.996,125.129L242.953,125.184C242.48,125.053 241.945,124.789 241.515,124.256C241.311,124.003 240.938,123.961 240.683,124.167C240.43,124.373 240.391,124.745 240.594,124.999C241.112,125.639 241.742,126.008 242.335,126.216L242.327,126.227C241.769,126.19 241.151,126.034 240.552,125.647C240.277,125.472 239.91,125.553 239.734,125.828C239.559,126.104 239.638,126.47 239.914,126.645C240.529,127.042 241.157,127.254 241.748,127.349L241.979,127.383C241.924,127.68 241.896,127.987 241.896,128.299C241.896,131.127 244.188,133.419 247.016,133.419C249.844,133.419 252.136,131.127 252.136,128.299C252.136,125.472 249.844,123.18 247.016,123.18Z" style="fill:rgb(28,32,77);"/>
        <path d="M297.728,137.096C297.626,137.438 297.267,137.632 296.925,137.531C296.583,137.429 296.388,137.069 296.49,136.727C296.502,136.689 305.883,120.913 310.851,121.698L309.45,122.789C304.504,127.243 297.738,137.06 297.728,137.096Z" style="fill:rgb(146,200,215);"/>
        <path d="M238.133,136.874C238.235,137.216 238.595,137.411 238.937,137.311C239.279,137.208 239.473,136.849 239.372,136.507C239.36,136.468 229.876,122.176 224.907,122.961L225.672,123.287L226.279,123.698C231.228,128.152 238.124,136.84 238.133,136.874Z" style="fill:rgb(146,200,215);"/>
        <path d="M239.635,161.111C239.99,161.151 240.311,160.896 240.349,160.542C240.387,160.187 240.132,159.867 239.777,159.829L239.551,159.804C232.302,158.896 225.98,148.138 225.481,141.736C225.026,141.48 224.584,141.207 224.14,140.901C224.478,148.115 231.26,160.07 239.395,161.085L239.635,161.111Z" style="fill:rgb(146,200,215);"/>
        <path d="M295.858,161.111C295.504,161.151 295.185,160.896 295.145,160.542C295.105,160.187 295.363,159.867 295.717,159.829L295.942,159.804C303.191,158.896 310.839,148.138 311.337,141.736C311.792,141.48 312.235,141.207 312.682,140.901C312.342,148.115 304.233,160.07 296.098,161.085L295.858,161.111Z" style="fill:rgb(146,200,215);"/>
        <path d="M267.806,134.026L297.242,135.599C297.242,135.599 298.419,135.937 298.381,137.018C298.347,138.1 297.317,158.954 297.317,158.954C297.317,158.954 297.265,160.832 296.098,162.453C294.934,164.077 285.669,179.344 267.806,179.344C249.942,179.344 240.678,164.077 239.511,162.453C238.345,160.832 238.294,158.954 238.294,158.954C238.294,158.954 237.263,138.1 237.228,137.018C237.192,135.937 238.37,135.599 238.37,135.599L267.806,134.026Z" style="fill:white;"/>
        <path d="M267.808,136.291L239.52,137.802C239.77,144.807 240.244,151.848 240.557,158.854C240.59,159.601 240.918,160.533 241.35,161.134C242.138,162.231 242.842,163.303 243.688,164.374C245.238,166.336 246.971,168.163 248.871,169.79C254.272,174.413 260.635,177.082 267.808,177.082C274.978,177.082 281.343,174.413 286.744,169.79C288.644,168.163 290.377,166.336 291.928,164.374C292.774,163.303 293.476,162.231 294.266,161.134C294.696,160.533 295.026,159.601 295.058,158.854C295.373,151.848 295.846,144.807 296.096,137.802L267.808,136.291Z" style="fill:rgb(192,224,231);"/>
        <path d="M295.149,156.897C295.246,154.89 295.355,152.882 295.464,150.872L276.006,149.512L295.149,156.897ZM240.514,157.928L240.557,158.854C240.59,159.601 240.918,160.533 241.35,161.134C242.138,162.231 242.842,163.303 243.688,164.374C245.238,166.336 246.971,168.163 248.871,169.79C254.272,174.413 260.635,177.082 267.808,177.082C274.978,177.082 281.343,174.413 286.744,169.79C288.644,168.163 290.377,166.336 291.928,164.374C292.774,163.303 293.476,162.231 294.266,161.134C294.384,160.969 294.493,160.781 294.592,160.578C294.592,160.578 290.006,165.541 274.079,165.541C258.153,165.541 240.514,157.928 240.514,157.928ZM239.938,146.902C240.084,149.641 240.237,152.38 240.375,155.116L266.471,145.049L239.938,146.902Z" style="fill:rgb(146,200,215);"/>
        <path d="M228.123,130.276C228.123,130.276 232.721,126.968 232.721,118.941C232.721,118.941 240.085,112.092 239.497,104.875C238.907,97.659 230.767,88.07 230.767,88.07C230.767,88.07 223.442,92.65 220.792,97.659C218.14,102.667 221.527,123.285 221.527,123.285C221.527,123.285 226.535,119.604 228.123,130.276Z" style="fill:rgb(180,49,72);"/>
        <path d="M307.493,130.276C307.493,130.276 302.896,126.968 302.896,118.941C302.896,118.941 295.531,112.092 296.121,104.875C296.71,97.659 304.851,88.07 304.851,88.07C304.851,88.07 312.174,92.65 314.826,97.659C317.476,102.667 314.088,123.285 314.088,123.285C314.088,123.285 309.081,119.604 307.493,130.276Z" style="fill:rgb(180,49,72);"/>
        <path d="M270.917,83.483C259.635,86.699 250.427,99.756 239.187,106.356C247.412,103.763 254.121,97.652 260.146,92.158C263.913,88.725 267.424,85.523 270.917,83.483ZM284.097,84.598L283.926,84.525C283.673,84.635 283.372,84.628 283.116,84.478C275.872,80.243 269.192,86.33 261.351,93.48C253.43,100.702 244.374,108.954 232.16,109.41C231.064,109.712 229.944,109.941 228.798,110.075C207.878,112.515 198.313,84.053 217.693,65.19C238.477,44.961 283.896,41.988 289.097,74.467C289.097,74.467 290.045,81.43 284.097,84.598Z" style="fill:rgb(220,56,81);"/>
        <path d="M282.267,83.929C286.615,89.447 286.509,99.018 289.651,106.165C286.566,102.02 285.454,96.701 284.454,91.918C283.829,88.931 283.245,86.143 282.267,83.929ZM275.473,79.847L275.582,79.871C275.667,80.014 275.815,80.116 275.993,80.134C280.994,80.617 282.103,85.915 283.403,92.138C284.719,98.423 286.222,105.608 291.992,110.112C292.42,110.644 292.883,111.147 293.391,111.614C302.696,120.136 317.323,109.669 314.529,93.713C311.53,76.6 290.516,59.225 276.6,73.175C276.6,73.175 273.695,76.222 275.473,79.847Z" style="fill:rgb(220,56,81);"/>
        <path d="M465.523,133.895L458.856,136.714C458.856,136.714 459.781,165.842 453.007,185.898C446.234,205.954 451.623,222.904 462.552,218.847C462.552,218.847 463.19,231.063 472.25,233.888C481.309,236.713 492.57,238.903 492.57,238.903L523.052,240.812C523.052,240.812 551.994,249.884 554.148,211.445C554.148,211.445 564,210.969 564.154,197.598C564.307,184.228 550.762,162.501 550.762,134.805C550.762,107.111 465.523,133.895 465.523,133.895Z" style="fill:rgb(159,74,44);"/>
        <path d="M505.637,128.441C493.645,128.441 483.835,145.217 483.835,165.72L483.835,185.649C483.835,186.793 482.332,187.418 482.332,187.418L476.39,189.849L476.693,198.994L486.498,215.554L486.933,215.087C490.752,225.962 497.716,233.277 505.637,233.277C513.584,233.277 520.573,225.906 524.381,214.964L524.931,215.554L534.737,198.994L535.041,189.849L529.096,187.418C529.096,187.418 527.594,186.793 527.594,185.649L527.438,185.716L527.438,165.72C527.438,145.217 517.627,128.441 505.637,128.441Z" style="fill:rgb(249,170,128);"/>
        <path d="M483.835,182.198L483.835,185.649C483.835,186.793 482.332,187.418 482.332,187.418L476.39,189.849L476.693,198.994L486.498,215.554L486.933,215.087C488.85,220.549 491.562,225.112 494.792,228.302C508.091,229.091 518.551,225.791 510.939,223.292C496.308,218.491 486.478,207.29 486.935,197.688C487.392,188.086 491.049,187.171 504.768,187.857C496.87,184.555 489.853,182.747 483.835,182.198Z" style="fill:rgb(243,122,112);"/>
        <path d="M483.835,166.974L483.835,185.613C505.912,196.081 521.115,185.569 527.438,179.521L527.438,171.176C520.932,167.557 505.804,167.683 491.399,167.075C488.868,166.968 486.304,166.927 483.835,166.974Z" style="fill:rgb(243,122,112);"/>
        <path d="M581.888,208.736L590.274,213.414C590.274,213.414 593.761,216.029 595.832,221.368C597.899,226.706 627.205,320.176 627.205,320.176C627.205,320.176 631.997,339.132 622.195,355.256C612.389,371.379 577.586,415.347 577.586,415.347L556.61,375.954L588.639,336.518C588.639,336.518 585.37,332.922 588.421,330.309L572.742,280.815L570.156,235.926L581.888,208.736Z" style="fill:rgb(40,45,107);"/>
        <path d="M584.476,317.856L572.742,280.815L571.271,255.302L578.222,247.794L584.476,317.856ZM588.639,336.518C588.639,336.518 586.737,334.426 587.19,332.272L597.788,334.008L588.639,336.518ZM595.534,392.234C587.706,402.478 580.758,411.322 578.42,414.287L575.59,411.601L563.296,388.512L561.728,376.495L571.937,358.419L595.534,392.234Z" style="fill:rgb(28,32,77);"/>
        <path d="M429.388,208.736L421,213.414C421,213.414 417.515,216.029 415.445,221.368C413.374,226.706 384.072,320.176 384.072,320.176C384.072,320.176 379.277,339.132 389.082,355.256C398.885,371.379 433.69,415.347 433.69,415.347L454.664,375.954L422.634,336.518C422.634,336.518 425.903,332.922 422.852,330.309L438.531,280.815L441.119,235.926L429.388,208.736Z" style="fill:rgb(40,45,107);"/>
        <path d="M426.797,317.856L438.531,280.815L440.002,255.302L433.05,247.794L426.797,317.856ZM422.634,336.518C422.634,336.518 424.537,334.426 424.085,332.272L413.486,334.008L422.634,336.518ZM415.74,392.234C423.567,402.478 430.517,411.322 432.852,414.287L435.683,411.601L447.976,388.512L449.544,376.495L439.335,358.419L415.74,392.234Z" style="fill:rgb(28,32,77);"/>
        <path d="M561.124,395.315L564.758,404.468C564.758,404.468 568.245,411.003 568.68,413.291C568.972,414.831 571.387,431.642 572.935,442.486C573.688,447.764 582.121,500 582.121,500L430.064,500C430.064,500 437.457,448.673 438.066,444.398C439.583,433.749 442.283,414.923 442.592,413.291C443.028,411.003 446.516,404.468 446.516,404.468L450.146,395.315L505.637,397.438L561.124,395.315Z" style="fill:rgb(121,110,146);"/>
        <path d="M561.127,395.315L564.758,404.468C564.758,404.468 568.245,411.003 568.68,413.291C568.916,414.525 570.513,425.575 571.934,435.497L436.441,455.711C437.279,449.886 437.908,445.521 438.066,444.398C439.583,433.749 442.283,414.923 442.592,413.291C443.028,411.003 446.516,404.468 446.516,404.468L450.146,395.315L505.637,397.438L561.127,395.315Z" style="fill:rgb(98,92,134);"/>
        <path d="M535.1,189.937L577,206.902L575.33,248.086C571.952,291.182 565.26,354.574 565.26,357.228C565.26,359.882 567.747,368.122 570.697,378.034L570.697,378.036C570.718,378.15 571.452,381.753 568.535,384.455C565.617,387.157 561.124,389.467 561.124,389.467C513.419,395.086 497.852,395.086 450.146,389.467C450.146,389.467 445.656,387.157 442.739,384.455C439.819,381.753 440.554,378.15 440.578,378.036L440.578,378.034C443.527,368.121 446.012,359.882 446.012,357.228C446.012,354.574 440.193,292.925 436.815,249.829L434.271,206.902L476.39,189.849L476.329,189.937C476.329,189.937 481.299,217.787 505.716,217.787C530.123,217.787 535.098,189.952 535.1,189.937Z" style="fill:white;"/>
        <path d="M566.542,343.221C565.755,351.29 565.26,356.508 565.26,357.228C565.26,359.882 567.747,368.122 570.697,378.034L570.697,378.037C570.718,378.15 571.452,381.752 568.535,384.455C565.617,387.157 561.124,389.467 561.124,389.467C513.419,395.086 497.852,395.086 450.146,389.467C450.146,389.467 445.656,387.157 442.739,384.455C439.819,381.752 440.554,378.15 440.578,378.037L440.578,378.034C443.527,368.121 446.012,359.882 446.012,357.228C446.012,354.574 440.193,292.925 436.815,249.829L434.635,213.009C444.833,206.049 454.159,200.249 461.574,195.848L476.39,189.849L476.329,189.937C476.329,189.937 477.46,196.264 481.288,202.888C488.25,249.938 489.38,287.141 507.42,305.592C527.537,326.166 553.6,320.223 553.6,320.223C553.6,320.223 558.829,329.176 566.542,343.221Z" style="fill:rgb(197,201,203);"/>
        <path d="M478.07,189.168C478.07,189.168 475.306,187.763 474.325,188.09C473.344,188.417 431.238,207.592 429.388,208.736C429.388,208.736 436.538,277.391 435.25,291.704L442.023,343.276C442.023,343.276 439.192,346 441.697,349.051L423.176,422.585C423.176,422.585 422.523,425.417 425.573,426.506C428.625,427.597 482.877,436.747 482.877,436.747C482.877,436.747 488.542,436.747 489.413,433.043C490.285,429.338 496.748,337.859 496.748,337.859L473.109,191.177L478.07,189.168Z" style="fill:rgb(40,45,107);"/>
        <path d="M533.204,189.168C533.204,189.168 535.967,187.763 536.948,188.09C537.928,188.417 580.036,207.592 581.888,208.736C581.888,208.736 574.736,277.391 576.023,291.704L569.25,343.276C569.25,343.276 572.083,346 569.577,349.051L588.096,422.585C588.096,422.585 588.75,425.417 585.7,426.506C582.651,427.597 528.396,436.747 528.396,436.747C528.396,436.747 522.732,436.747 521.861,433.043C520.989,429.338 514.528,337.859 514.528,337.859L538.167,191.177L533.204,189.168Z" style="fill:rgb(40,45,107);"/>
        <path d="M533.204,189.168C533.204,189.168 535.967,187.763 536.948,188.09C537.268,188.196 541.916,190.288 548.115,193.103L555.381,248.321L514.783,336.264L538.167,191.177L533.204,189.168Z" style="fill:rgb(28,32,77);"/>
        <path d="M478.07,189.168C478.07,189.168 475.306,187.763 474.325,188.09C474.008,188.196 469.357,190.288 463.159,193.103L455.891,248.321L496.491,336.264L473.109,191.177L478.07,189.168Z" style="fill:rgb(28,32,77);"/>
        <path d="M544.886,125.24C545.167,125.28 545.448,125.33 545.722,125.389L545.73,125.392L545.73,125.391C550.822,126.494 554.663,130.995 554.73,136.426C554.804,142.737 549.747,147.917 543.437,147.994C537.124,148.069 531.942,143.014 531.867,136.701C531.821,133.032 533.51,129.747 536.173,127.623C535.859,130.996 536.367,135.176 540.67,135.625L540.591,129.034C540.559,126.364 543.057,125.154 544.886,125.24Z" style="fill:rgb(243,122,112);"/>
        <path d="M466.707,124.697C466.422,124.733 466.145,124.777 465.869,124.833L465.86,124.835C460.753,125.867 456.85,130.314 456.707,135.744C456.546,142.055 461.532,147.305 467.839,147.468C474.152,147.631 479.403,142.647 479.566,136.336C479.663,132.669 478.017,129.36 475.385,127.2C475.653,130.578 475.088,134.75 470.776,135.138L470.947,128.548C471.017,125.881 468.537,124.636 466.707,124.697Z" style="fill:rgb(243,122,112);"/>
        <path d="M505.721,182.487C484.382,182.487 466.579,156.156 466.579,135.366L466.579,107.749C466.579,86.223 484.195,68.612 505.716,68.612L505.721,68.612C527.243,68.612 544.856,86.223 544.856,107.749L544.856,134.782C544.856,157.565 529.328,182.487 505.721,182.487Z" style="fill:rgb(249,170,128);"/>
        <path d="M538.223,111.616L471.116,114.448L471.551,104.425L503.145,97.888L524.498,88.519L538.223,111.616Z" style="fill:rgb(245,139,119);"/>
        <path d="M534.016,142.777C530.453,142.844 527.614,145.788 527.68,149.354C527.746,152.918 530.69,155.755 534.255,155.69C537.82,155.625 540.658,152.68 540.593,149.115C540.527,145.55 537.583,142.712 534.016,142.777Z" style="fill:rgb(243,122,112);"/>
        <path d="M477.181,143.805C473.615,143.871 470.776,146.816 470.843,150.381C470.91,153.946 473.854,156.785 477.418,156.719C480.984,156.652 483.821,153.708 483.756,150.143C483.689,146.576 480.745,143.739 477.181,143.805Z" style="fill:rgb(243,122,112);"/>
        <path d="M494.086,119.117C494.908,119.491 495.275,120.464 494.901,121.288C494.527,122.112 493.553,122.477 492.732,122.104C492.716,122.098 487.773,119.759 483.053,122.726C482.286,123.208 481.267,122.979 480.784,122.209C480.301,121.44 480.531,120.422 481.299,119.939C487.533,116.019 494.069,119.11 494.086,119.117Z" style="fill:rgb(28,32,77);"/>
        <path d="M532.787,119.848C533.58,120.286 533.865,121.287 533.426,122.077C532.986,122.868 531.985,123.154 531.195,122.714C531.183,122.707 526.445,119.974 521.5,122.547C520.695,122.967 519.698,122.653 519.281,121.848C518.861,121.043 519.172,120.046 519.981,119.627C526.512,116.227 532.773,119.838 532.787,119.848Z" style="fill:rgb(28,32,77);"/>
        <path d="M496.025,154.364C495.965,160.762 501.107,165.996 507.506,166.056C513.904,166.113 519.138,160.973 519.195,154.574L519.175,154.573C519.185,153.474 518.294,152.566 517.195,152.556L498.063,152.381C496.963,152.372 496.055,153.265 496.044,154.364L496.025,154.364Z" style="fill:white;"/>
        <path d="M500.26,163.423C502.231,165.045 504.752,166.029 507.506,166.054C509.754,166.074 511.858,165.453 513.646,164.361C512.776,161.975 510.194,160.171 507.06,160.028C504.072,159.888 501.439,161.298 500.26,163.423Z" style="fill:white;"/>
        <path d="M516.544,152.55L498.566,152.386C498.263,154.371 499.166,156.39 500.5,156.838C502.123,157.385 515.137,157.165 516.065,156.147C516.516,155.657 516.591,154.064 516.544,152.55Z" style="fill:white;"/>
        <path d="M508.381,136.208C509.22,138.594 510.686,142.907 510.559,143.583C510.384,144.527 505.402,144.774 504.093,143.333C503.222,142.375 504.302,138.796 505.248,136.415C506.536,133.169 507.251,132.997 508.381,136.208Z" style="fill:rgb(252,205,192);"/>
        <path d="M526.224,128.366C523.435,128.366 521.174,130.627 521.174,133.416C521.174,136.205 523.435,138.465 526.224,138.465C529.013,138.465 531.271,136.205 531.271,133.416C531.271,133.104 531.245,132.797 531.19,132.501L531.338,132.478C531.922,132.384 532.542,132.175 533.149,131.784C533.419,131.611 533.499,131.25 533.325,130.978C533.154,130.707 532.791,130.627 532.52,130.799C531.953,131.165 531.371,131.322 530.838,131.365L530.827,131.336C531.392,131.127 531.985,130.768 532.478,130.16C532.678,129.91 532.639,129.542 532.388,129.341C532.138,129.137 531.77,129.178 531.569,129.427C531.166,129.928 530.667,130.188 530.217,130.324L530.165,130.258C530.543,130.048 530.937,129.716 531.2,129.197C531.348,128.911 531.234,128.559 530.948,128.412C530.66,128.264 530.308,128.378 530.163,128.666C529.936,129.107 529.547,129.306 529.276,129.393C528.428,128.749 527.372,128.366 526.224,128.366ZM485.212,128.366C484.056,128.366 482.988,128.756 482.136,129.41C481.864,129.333 481.435,129.14 481.193,128.666C481.047,128.378 480.696,128.264 480.408,128.412C480.12,128.559 480.009,128.911 480.155,129.197C480.432,129.742 480.851,130.08 481.248,130.289L481.206,130.344C480.737,130.215 480.209,129.952 479.789,129.427C479.585,129.178 479.216,129.137 478.966,129.341C478.716,129.542 478.676,129.91 478.879,130.16C479.39,130.792 480.009,131.156 480.596,131.361L480.588,131.37C480.036,131.335 479.429,131.181 478.835,130.799C478.565,130.627 478.204,130.707 478.03,130.978C477.857,131.25 477.936,131.611 478.208,131.784C478.815,132.175 479.434,132.384 480.016,132.478L480.241,132.511C480.19,132.805 480.162,133.107 480.162,133.416C480.162,136.205 482.424,138.465 485.212,138.465C488.001,138.465 490.262,136.205 490.262,133.416C490.262,130.627 488.001,128.366 485.212,128.366Z" style="fill:rgb(28,32,77);"/>
        <path d="M535.227,142.091C535.128,142.428 534.772,142.62 534.434,142.52C534.097,142.419 533.904,142.064 534.006,141.729C534.016,141.69 543.268,126.131 548.169,126.905L546.787,127.98C541.909,132.375 535.237,142.055 535.227,142.091Z" style="fill:rgb(146,200,215);"/>
        <path d="M476.45,141.873C476.552,142.21 476.909,142.402 477.243,142.302C477.582,142.202 477.773,141.846 477.673,141.509C477.661,141.472 468.307,127.376 463.406,128.151L464.162,128.472L464.76,128.877C469.64,133.27 476.44,141.837 476.45,141.873Z" style="fill:rgb(146,200,215);"/>
        <path d="M477.933,165.776C478.283,165.814 478.597,165.563 478.637,165.214C478.674,164.865 478.421,164.549 478.072,164.51L477.85,164.487C470.7,163.591 464.466,152.982 463.973,146.668C463.525,146.416 463.089,146.145 462.651,145.845C462.983,152.96 469.671,164.748 477.696,165.751L477.933,165.776Z" style="fill:rgb(146,200,215);"/>
        <path d="M533.382,165.776C533.033,165.814 532.715,165.563 532.678,165.214C532.641,164.865 532.891,164.549 533.241,164.51L533.466,164.487C540.613,163.591 548.157,152.982 548.647,146.668C549.098,146.416 549.534,146.145 549.973,145.845C549.638,152.96 541.643,164.748 533.62,165.751L533.382,165.776Z" style="fill:rgb(146,200,215);"/>
        <path d="M505.716,139.063L534.746,140.614C534.746,140.614 535.905,140.948 535.872,142.015C535.836,143.081 534.821,163.648 534.821,163.648C534.821,163.648 534.772,165.5 533.62,167.1C532.47,168.701 523.334,183.757 505.716,183.757C488.098,183.757 478.961,168.701 477.81,167.1C476.661,165.5 476.612,163.648 476.612,163.648C476.612,163.648 475.593,143.081 475.558,142.015C475.524,140.948 476.683,140.614 476.683,140.614L505.716,139.063Z" style="fill:white;"/>
        <path d="M505.718,141.297L477.82,142.787C478.065,149.695 478.534,156.64 478.839,163.549C478.875,164.286 479.197,165.207 479.623,165.798C480.401,166.879 481.094,167.938 481.931,168.995C483.458,170.929 485.167,172.73 487.041,174.335C492.367,178.895 498.645,181.526 505.718,181.526C512.792,181.526 519.067,178.895 524.394,174.335C526.266,172.73 527.975,170.929 529.503,168.995C530.34,167.938 531.034,166.879 531.812,165.798C532.237,165.207 532.56,164.286 532.594,163.549C532.901,156.64 533.37,149.695 533.615,142.787L505.718,141.297Z" style="fill:rgb(192,224,231);"/>
        <path d="M532.683,161.621C532.78,159.64 532.883,157.659 532.993,155.678L513.804,154.337L532.683,161.621ZM478.8,162.636L478.839,163.549C478.875,164.286 479.197,165.207 479.623,165.798C480.401,166.879 481.094,167.938 481.931,168.995C483.458,170.929 485.167,172.73 487.041,174.335C492.367,178.895 498.645,181.526 505.718,181.526C512.792,181.526 519.067,178.895 524.394,174.335C526.266,172.73 527.975,170.929 529.503,168.995C530.34,167.938 531.034,166.879 531.812,165.798C531.928,165.636 532.037,165.449 532.133,165.249C532.133,165.249 527.612,170.145 511.903,170.145C496.196,170.145 478.8,162.636 478.8,162.636ZM478.231,151.763C478.374,154.463 478.525,157.165 478.664,159.863L504.399,149.934L478.231,151.763Z" style="fill:rgb(146,200,215);"/>
        <path d="M468.668,148.764C468.668,148.764 469.057,134.366 469.057,126.228C469.057,126.228 476.745,119.283 476.128,111.967C475.514,104.65 467.017,94.929 467.017,94.929C467.017,94.929 459.372,99.574 456.605,104.65C451.761,113.537 462.074,138.168 468.668,148.764Z" style="fill:rgb(220,100,57);"/>
        <path d="M543.541,147.713C543.541,147.713 542.991,134.366 542.304,126.228C542.304,126.228 534.618,119.283 535.232,111.967C535.848,104.65 544.345,94.929 544.345,94.929C544.345,94.929 551.988,99.574 554.756,104.65C562.041,118.015 547.536,137.695 543.541,147.713Z" style="fill:rgb(220,100,57);"/>
        <path d="M455.476,111.461C453.348,71.353 489.121,42.867 518.25,53.412C523.831,55.431 529.584,65.723 529.584,65.723C529.584,65.723 533.357,59.249 542.111,63.282C550.367,67.086 559.096,93.435 557.043,113.811L531.462,111.461L521.997,111.461C521.083,111.461 520.195,110.39 519.994,109.342C519.791,108.294 519.181,101.347 518.978,99.694C518.775,98.04 518.267,97.212 517.963,97.653C517.658,98.094 517.456,103.828 516.948,107.522C516.447,111.159 514.176,111.452 514.106,111.461L455.476,111.461Z" style="fill:rgb(220,100,57);"/>
        <path d="M672.724,446.917L678.277,446.237L699.724,386.585L690.602,331.977L723.97,321.099L734.153,386.871C734.153,386.871 735.753,399.5 730.317,407.657C724.878,415.815 688.621,462.267 688.621,462.267C688.621,462.267 683.638,472.465 676.159,472.465C668.682,472.465 672.724,446.917 672.724,446.917Z" style="fill:rgb(243,122,112);"/>
        <path d="M693.812,351.188L690.602,331.977L723.524,321.244L724.242,322.848L725.29,329.616L693.812,351.188Z" style="fill:rgb(243,122,112);"/>
        <path d="M688.014,245.487C688.014,245.487 701.071,251.258 704.015,255.789C705.627,258.271 713.594,278.048 720.478,295.442C736.018,323.597 741.137,393.693 733.331,405.452L694.815,463.464L679.599,441.59C679.599,441.59 697.667,391.187 697.667,386.432C697.667,366.572 694.149,353.951 688.272,337.307C687.591,335.38 665.274,276.464 688.014,245.487Z" style="fill:rgb(52,145,207);"/>
        <path d="M690.397,342.779C687.05,336.88 675.381,307.496 675.172,303.944L687.745,271.01L690.397,342.779Z" style="fill:rgb(15,105,177);"/>
        <path d="M558.2,444.539L547.895,442.908L527.872,386.585L536.996,331.977L503.627,321.099L493.445,386.871C493.445,386.871 491.841,399.5 497.281,407.657C502.719,415.815 538.973,462.267 538.973,462.267C538.973,462.267 543.958,472.465 551.436,472.465C558.916,472.465 558.2,444.539 558.2,444.539Z" style="fill:rgb(243,122,112);"/>
        <path d="M539.581,245.487C539.581,245.487 526.527,251.258 523.578,255.789C502.413,288.357 493.318,331.954 490.649,371.975C488.098,410.209 507.982,429.347 535.759,464.652L549.787,441.59C549.787,441.59 528.865,392.613 528.865,387.858C528.865,343.06 566.417,282.04 539.581,245.487Z" style="fill:rgb(52,145,207);"/>
        <path d="M538.092,343.968C541.02,343.345 549.422,292.217 549.571,289.679L540.326,271.485L538.092,343.968Z" style="fill:rgb(15,105,177);"/>
        <path d="M556.091,441.434L552.313,450.951C552.313,450.951 548.687,457.748 548.234,460.129C547.781,462.508 542.456,500 542.456,500L685.141,500C685.141,500 679.815,462.508 679.361,460.129C678.908,457.748 675.285,450.951 675.285,450.951L671.505,441.434L671.505,435.352L613.798,435.996L556.091,435.352L556.091,441.434Z" style="fill:rgb(40,45,107);"/>
        <path d="M556.091,441.434L552.313,450.951C552.313,450.951 548.687,457.748 548.234,460.129C548.139,460.62 547.837,462.619 547.416,465.476L672.457,443.826L671.505,441.434L671.505,435.352L613.798,435.996L556.091,435.352L556.091,441.434Z" style="fill:rgb(33,32,82);"/>
        <path d="M613.429,163.89L613.432,163.89C625.901,163.89 636.103,181.335 636.103,202.658L636.103,234.148C636.103,255.472 625.901,272.917 613.432,272.917L613.429,272.917C600.959,272.917 590.759,255.472 590.759,234.148L590.759,202.658C590.759,181.335 600.959,163.89 613.429,163.89Z" style="fill:rgb(243,122,112);"/>
        <path d="M619.375,243.435L616.297,243.638L613.205,254.926L610.703,243.995L608.219,243.435L586.582,226.457L539.581,245.487C536.45,305.834 551.79,352.92 551.79,401.823C551.79,404.584 549.208,413.152 546.138,423.461L546.136,423.464C546.114,423.581 545.351,427.328 548.385,430.139C551.42,432.949 556.091,435.352 556.091,435.352C605.703,441.194 621.892,441.194 671.505,435.352C671.505,435.352 676.176,432.949 679.209,430.139C682.247,427.328 681.484,423.581 681.459,423.464L681.459,423.461C678.39,413.152 675.807,404.584 675.807,401.823C675.807,352.921 691.147,305.833 688.014,245.487L641.016,226.457L619.375,243.435Z" style="fill:rgb(52,145,207);"/>
        <path d="M618.497,255.257L619.51,260.654L629.758,394.263L613.429,428.983L597.104,394.263L607.352,260.654L608.363,255.257L613.429,258.539L618.497,255.257Z" style="fill:rgb(240,83,104);"/>
        <path d="M618.497,255.257L619.51,260.654L629.758,394.261L613.429,428.983C613.429,428.983 623.019,399.081 623.4,394.446C623.779,389.813 617.629,262.386 615.822,261.201C614.016,260.014 610.423,260.128 610.423,260.128L612.721,258.08L613.429,258.539L618.497,255.257Z" style="fill:rgb(220,56,81);"/>
        <path d="M607.352,260.654L602.565,250.154C606.704,246.261 620.159,246.261 624.297,250.154L619.51,260.654C616.136,259.761 610.725,259.761 607.352,260.654Z" style="fill:rgb(240,83,104);"/>
        <path d="M613.539,247.235C617.9,247.25 622.244,248.224 624.297,250.154L619.51,260.654C618.208,260.309 613.689,260.335 612.015,260.257C612.919,259.529 616.236,257.895 616.288,257.581C616.339,257.27 617.045,248.636 616.665,248.485L613.539,247.235Z" style="fill:rgb(220,56,81);"/>
        <path d="M636.103,220.138C636.103,220.138 638.056,219.846 638.733,220.138C639.407,220.432 641.698,227.688 643.114,229.683C643.114,229.683 644.397,231.325 643.453,234.081C642.507,236.838 630.169,259.478 630.169,259.478C630.169,259.478 629.292,260.68 627.875,259.507C626.461,258.335 615.706,243.875 615.706,243.875L636.103,221.956L636.103,220.138Z" style="fill:rgb(15,105,177);"/>
        <path d="M590.759,218.414C590.759,218.414 588.802,218.122 588.129,218.414C587.455,218.708 585.163,227.688 583.745,229.683C583.745,229.683 582.464,231.325 583.409,234.081C584.352,236.838 596.693,259.478 596.693,259.478C596.693,259.478 597.569,260.68 598.983,259.507C600.401,258.335 611.156,243.875 611.156,243.875L590.759,220.232L590.759,218.414Z" style="fill:rgb(15,105,177);"/>
        <path d="M654.592,157.441C654.9,157.484 655.2,157.537 655.5,157.601L655.506,157.604C661.009,158.796 665.161,163.658 665.232,169.529C665.315,176.351 659.848,181.95 653.028,182.032C646.202,182.114 640.605,176.648 640.523,169.827C640.473,165.862 642.298,162.31 645.177,160.015C644.838,163.661 645.385,168.18 650.038,168.664L649.952,161.539C649.917,158.655 652.617,157.347 654.592,157.441Z" style="fill:rgb(244,130,106);"/>
        <path d="M573.172,157.428C572.866,157.467 572.564,157.516 572.266,157.576L572.256,157.579L572.256,157.577C566.738,158.693 562.519,163.499 562.366,169.367C562.19,176.188 567.579,181.862 574.396,182.038C581.219,182.215 586.893,176.829 587.069,170.01C587.173,166.043 585.398,162.468 582.554,160.133C582.842,163.784 582.229,168.293 577.571,168.713L577.757,161.591C577.831,158.708 575.152,157.362 573.172,157.428Z" style="fill:rgb(244,130,106);"/>
        <path d="M613.801,219.313C590.737,219.313 571.497,190.854 571.497,168.384L571.497,138.535C571.497,115.269 590.534,96.233 613.793,96.233L613.801,96.233C637.062,96.233 656.101,115.269 656.101,138.535L656.101,167.752C656.101,192.377 639.318,219.313 613.801,219.313Z" style="fill:rgb(249,170,128);"/>
        <path d="M571.506,136.623C571.658,128.886 573.909,121.642 577.714,115.439C580.008,114.304 581.767,113.659 582.007,113.659C583.126,113.659 645.68,118.644 641.828,130.425C641.828,130.425 611.917,153.086 579.288,140.396C576.076,139.147 573.52,137.883 571.506,136.623Z" style="fill:rgb(243,122,112);"/>
        <path d="M642.839,167.28C638.901,167.354 635.769,170.604 635.839,174.542C635.915,178.479 639.165,181.612 643.101,181.539C647.04,181.467 650.171,178.216 650.101,174.278C650.026,170.34 646.777,167.208 642.839,167.28Z" style="fill:rgb(243,122,112);"/>
        <path d="M584.494,168.415C580.558,168.488 577.423,171.739 577.497,175.677C577.569,179.614 580.821,182.748 584.758,182.675C588.697,182.602 591.829,179.35 591.756,175.413C591.683,171.476 588.431,168.342 584.494,168.415Z" style="fill:rgb(243,122,112);"/>
        <path d="M599.751,147.657C600.641,148.061 601.037,149.112 600.633,150.002C600.23,150.893 599.176,151.289 598.288,150.885C598.273,150.879 592.928,148.351 587.827,151.558C586.997,152.081 585.895,151.83 585.375,151C584.852,150.168 585.103,149.068 585.932,148.546C592.668,144.309 599.732,147.649 599.751,147.657Z" style="fill:rgb(28,32,77);"/>
        <path d="M641.583,148.447C642.437,148.921 642.748,150.002 642.272,150.857C641.796,151.711 640.716,152.02 639.862,151.546C639.848,151.538 634.726,148.583 629.381,151.365C628.509,151.818 627.434,151.479 626.981,150.608C626.528,149.737 626.868,148.662 627.74,148.21C634.797,144.534 641.564,148.436 641.583,148.447Z" style="fill:rgb(28,32,77);"/>
        <path d="M614.938,169.34C615.725,171.481 617.105,175.357 616.986,176.008C616.82,176.916 612.136,177.756 610.907,176.561C610.086,175.765 611.102,172.27 611.991,169.917C613.203,166.708 613.875,166.458 614.938,169.34Z" style="fill:rgb(251,187,151);"/>
        <path d="M622.687,186.249C622.687,191.157 618.708,195.139 613.798,195.139C608.89,195.139 604.91,191.157 604.91,186.249C604.91,185.347 605.644,184.613 606.545,184.613L621.05,184.613C621.952,184.613 622.687,185.347 622.687,186.249Z" style="fill:rgb(0,1,16);"/>
        <path d="M607.441,184.613L620.157,184.613L620.157,186.116C620.157,186.898 619.514,187.541 618.732,187.541L608.866,187.541C608.083,187.541 607.441,186.898 607.441,186.116L607.441,184.613Z" style="fill:white;"/>
        <path d="M620.24,192.373C618.621,194.076 616.333,195.139 613.798,195.139C611.263,195.139 608.976,194.076 607.357,192.373C608.976,190.67 611.263,189.608 613.798,189.608C616.333,189.608 618.621,190.67 620.24,192.373Z" style="fill:rgb(241,102,117);"/>
        <path d="M593.107,166.28C595.913,166.28 598.204,163.99 598.204,161.184C598.204,158.378 595.913,156.09 593.107,156.09C590.3,156.09 588.013,158.378 588.013,161.184C588.013,163.99 590.3,166.28 593.107,166.28Z" style="fill:rgb(28,32,77);"/>
        <path d="M634.489,166.28C637.293,166.28 639.583,163.99 639.583,161.184C639.583,158.378 637.293,156.09 634.489,156.09C631.682,156.09 629.393,158.378 629.393,161.184C629.393,163.99 631.682,166.28 634.489,166.28Z" style="fill:rgb(28,32,77);"/>
        <path d="M646.651,175.623C646.551,175.962 646.193,176.155 645.853,176.055C645.513,175.953 645.318,175.596 645.419,175.255C645.432,175.218 648.671,164.233 654.238,159.665L654.576,161.026C649.652,165.459 646.664,175.587 646.651,175.623Z" style="fill:rgb(146,200,215);"/>
        <path d="M645.083,201.058C644.731,201.097 644.414,200.843 644.375,200.492C644.334,200.139 644.59,199.82 644.942,199.782L645.169,199.757C649.003,199.277 652.141,195.741 654.251,191.46C655.88,188.152 656.888,184.417 657.131,181.281C657.584,181.115 658.025,180.923 658.452,180.708C658.291,184.143 657.215,188.35 655.403,192.03C653.123,196.659 649.655,200.492 645.323,201.033L645.083,201.058Z" style="fill:rgb(146,200,215);"/>
        <path d="M580.949,175.623C581.05,175.962 581.411,176.155 581.75,176.055C582.088,175.953 582.282,175.596 582.183,175.255C582.17,175.218 578.93,164.233 573.364,159.665L573.027,161.026C577.95,165.459 580.94,175.587 580.949,175.623Z" style="fill:rgb(146,200,215);"/>
        <path d="M582.517,201.058C582.872,201.097 583.188,200.843 583.228,200.492C583.265,200.139 583.012,199.82 582.658,199.782L582.433,199.757C578.599,199.277 575.459,195.741 573.351,191.46C571.721,188.152 570.713,184.417 570.468,181.281C570.017,181.115 569.577,180.923 569.151,180.708C569.311,184.143 570.386,188.35 572.2,192.03C574.481,196.659 577.945,200.492 582.277,201.033L582.517,201.058Z" style="fill:rgb(146,200,215);"/>
        <path d="M613.798,170.705L646.748,172.464C646.748,172.464 648.065,172.843 648.025,174.053C647.986,175.264 646.831,198.608 646.831,198.608C646.831,198.608 646.774,200.708 645.469,202.526C644.164,204.341 633.794,221.431 613.798,221.431C593.803,221.431 583.43,204.341 582.125,202.526C580.821,200.708 580.766,198.608 580.766,198.608C580.766,198.608 579.612,175.264 579.57,174.053C579.531,172.843 580.848,172.464 580.848,172.464L613.798,170.705Z" style="fill:white;"/>
        <path d="M613.801,173.239L582.138,174.931C582.416,182.772 582.946,190.653 583.297,198.495C583.334,199.331 583.701,200.375 584.184,201.047C585.068,202.275 585.855,203.476 586.804,204.676C588.538,206.87 590.476,208.916 592.602,210.736C598.649,215.912 605.772,218.898 613.801,218.898C621.828,218.898 628.954,215.912 634.999,210.736C637.125,208.916 639.065,206.87 640.798,204.676C641.747,203.476 642.534,202.275 643.416,201.047C643.899,200.375 644.268,199.331 644.305,198.495C644.654,190.653 645.186,182.772 645.464,174.931L613.801,173.239Z" style="fill:rgb(192,224,231);"/>
        <path d="M644.407,196.306C644.515,194.059 644.636,191.81 644.758,189.561L622.98,188.039L644.407,196.306ZM583.25,197.458L583.297,198.495C583.334,199.331 583.701,200.375 584.184,201.047C585.068,202.275 585.855,203.476 586.804,204.676C588.538,206.87 590.476,208.916 592.602,210.736C598.649,215.912 605.772,218.898 613.801,218.898C621.828,218.898 628.954,215.912 634.999,210.736C637.125,208.916 639.065,206.87 640.798,204.676C641.747,203.476 642.534,202.275 643.416,201.047C643.547,200.864 643.671,200.652 643.783,200.425C643.783,200.425 638.649,205.981 620.823,205.981C602.994,205.981 583.25,197.458 583.25,197.458ZM582.603,185.118C582.767,188.182 582.938,191.249 583.093,194.311L612.305,183.043L582.603,185.118Z" style="fill:rgb(146,200,215);"/>
        <path d="M583.126,142.416C582.712,149.861 580.758,155.361 575.697,155.361L575.697,162.487C575.697,166.471 575.308,170.501 571.545,170.501C571.545,161.93 568.935,158.562 568.935,158.562L568.935,137.071C568.935,127.047 571.754,113.578 584.91,104.337C601.936,92.379 625.659,92.379 642.685,104.337C655.843,113.578 658.663,127.047 658.663,137.071L658.663,158.562C658.663,158.562 656.049,161.93 656.049,170.501C652.288,170.501 651.901,166.471 651.901,162.487L651.901,155.361C646.756,155.361 644.823,149.688 644.452,142.065L644.452,111.119L583.126,111.119L583.126,142.416Z" style="fill:rgb(28,32,77);"/>
        <path d="M652.083,123.687C647.352,150.796 631.824,141.731 640.127,130.491C572.333,169.764 540.767,85.969 578.963,104.974C598.291,80.952 643,73.983 647.453,102.331C655.324,83.461 671.167,114.893 652.083,123.687Z" style="fill:rgb(28,32,77);"/>
        <path d="M227.225,238.58L236.252,243.616C236.252,243.616 240.004,246.43 242.232,252.175C244.459,257.921 275.999,358.52 275.999,358.52C275.999,358.52 281.157,378.922 270.606,396.275C260.053,413.627 222.595,460.949 222.595,460.949L200.02,418.553C204.382,413.183 233.199,370.334 234.259,369.425L217.384,316.158L214.6,267.843L227.225,238.58Z" style="fill:rgb(40,45,107);"/>
        <path d="M230.013,356.023L217.384,316.158L215.801,288.697L223.282,280.617L230.013,356.023ZM241.914,436.074C233.489,447.1 226.01,456.618 223.496,459.809L220.448,456.918L207.217,432.068L205.53,419.135L216.517,399.68L241.914,436.074Z" style="fill:rgb(28,32,77);"/>
        <path d="M63.093,238.58L54.067,243.616C54.067,243.616 50.315,246.43 48.087,252.175C45.86,257.921 14.321,358.52 14.321,358.52C14.321,358.52 9.161,378.922 19.714,396.275C30.265,413.627 67.724,460.949 67.724,460.949L90.298,418.553C85.938,413.183 57.121,370.334 56.061,369.425L72.937,316.158L75.72,267.843L63.093,238.58Z" style="fill:rgb(40,45,107);"/>
        <path d="M60.306,356.023L72.937,316.158L74.519,288.697L67.038,280.617L60.306,356.023ZM48.405,436.074C56.831,447.1 64.308,456.618 66.823,459.809L69.87,456.918L83.102,432.068L84.79,419.135L73.803,399.68L48.405,436.074Z" style="fill:rgb(28,32,77);"/>
        <path d="M204.881,439.39L208.79,449.24C208.79,449.24 212.542,456.274 213.011,458.738C213.48,461.199 218.992,500 218.992,500L71.327,500C71.327,500 76.837,461.199 77.308,458.738C77.775,456.274 81.528,449.24 81.528,449.24L85.437,439.39L145.159,441.675L204.881,439.39Z" style="fill:rgb(121,110,146);"/>
        <path d="M204.881,439.39L208.79,449.24C208.79,449.24 212.542,456.274 213.011,458.738C213.252,460.008 214.837,470.951 216.315,481.249L175.505,482.991L167.54,453.012L127.439,463.565L121.322,483.95L72.915,488.848C74.582,477.181 77.003,460.333 77.308,458.738C77.775,456.274 81.528,449.24 81.528,449.24L83.727,443.698C86.099,442.408 88.757,440.986 91.396,439.617L145.159,441.675L204.881,439.39Z" style="fill:rgb(87,82,129);"/>
        <path d="M85.437,433.096L85.437,439.39C85.437,439.39 117.878,445.253 145.159,445.253C172.441,445.253 204.881,439.39 204.881,439.39L204.881,433.096L145.159,433.762L85.437,433.096Z" style="fill:rgb(51,49,115);"/>
        <path d="M145.54,152.161L145.539,152.161C132.635,152.161 122.076,170.215 122.076,192.283L122.076,224.871C122.076,246.938 132.635,264.992 145.539,264.992L145.54,264.992C158.446,264.992 169.003,246.938 169.003,224.871L169.003,192.283C169.003,170.215 158.446,152.161 145.54,152.161Z" style="fill:rgb(243,122,112);"/>
        <path d="M139.386,234.482L143.188,234.938L145.159,236.286L147.131,234.938L150.932,234.482L173.327,216.912L221.965,236.606L220.167,280.932C216.534,327.314 209.331,395.541 209.331,398.398C209.331,401.254 212.005,410.123 215.18,420.79L215.182,420.793C215.207,420.915 215.996,424.794 212.854,427.701C209.713,430.608 204.881,433.096 204.881,433.096C153.537,439.144 136.782,439.144 85.437,433.096C85.437,433.096 80.604,430.608 77.464,427.701C74.322,424.794 75.112,420.915 75.137,420.793L75.138,420.79C78.312,410.123 80.986,401.254 80.986,398.398C80.986,395.541 74.722,329.188 71.089,282.807L68.353,236.606L116.99,216.912L139.386,234.482Z" style="fill:rgb(121,110,146);"/>
        <path d="M140.296,246.716L139.25,252.302L128.643,390.572L145.54,426.505L162.437,390.572L151.831,252.302L150.783,246.716L145.54,250.115L140.296,246.716Z" style="fill:rgb(240,83,104);"/>
        <path d="M140.297,246.716L139.25,252.302L128.643,390.572L145.54,426.505C145.54,426.505 135.617,395.559 135.223,390.763C134.829,385.968 141.194,254.095 143.063,252.868C144.935,251.639 148.653,251.758 148.653,251.758L146.273,249.639L145.54,250.115L140.297,246.716Z" style="fill:rgb(220,56,81);"/>
        <path d="M150.169,235.271L147.893,234.938C147.893,234.938 147.445,235.355 147.378,236.07C147.313,236.783 147.264,238.882 147.264,238.882L149.002,239.425C149.002,239.425 152.449,239.51 152.416,239.381C152.383,239.252 150.169,235.271 150.169,235.271Z" style="fill:rgb(65,66,123);"/>
        <path d="M140.912,235.271L143.186,234.938C143.186,234.938 143.636,235.355 143.7,236.07C143.767,236.783 143.817,238.882 143.817,238.882L142.077,239.425C142.077,239.425 138.63,239.51 138.664,239.381C138.697,239.252 140.912,235.271 140.912,235.271Z" style="fill:rgb(65,66,123);"/>
        <path d="M151.831,252.302L156.785,241.435C152.503,237.407 138.576,237.407 134.294,241.435L139.25,252.302C142.739,251.378 148.34,251.378 151.831,252.302Z" style="fill:rgb(240,83,104);"/>
        <path d="M145.428,238.416C140.914,238.431 136.418,239.438 134.294,241.435L139.25,252.302C140.597,251.945 142.256,251.725 143.99,251.645C143.056,250.893 141.824,249.861 141.784,249.613C141.718,249.214 141.8,239.866 142.195,239.708L145.428,238.416ZM154.813,245.764L156.785,241.435C155.245,239.987 152.457,239.058 149.317,238.652L154.813,245.764Z" style="fill:rgb(220,56,81);"/>
        <path d="M122.078,213.694C122.078,213.694 120.054,213.391 119.355,213.694C118.657,213.997 116.285,218.186 114.821,220.25C114.821,220.25 113.493,221.948 114.471,224.802C115.447,227.654 128.218,251.084 128.218,251.084C128.218,251.084 129.125,252.329 130.591,251.114C132.055,249.9 143.186,234.938 143.186,234.938L122.078,215.575L122.078,213.694Z" style="fill:rgb(95,91,136);"/>
        <path d="M169.003,213.694C169.003,213.694 171.027,213.391 171.725,213.694C172.422,213.997 174.795,218.186 176.26,220.25C176.26,220.25 177.587,221.948 176.609,224.802C175.633,227.654 162.863,251.084 162.863,251.084C162.863,251.084 161.955,252.329 160.49,251.114C159.025,249.9 147.893,234.938 147.893,234.938L169.003,215.575L169.003,213.694Z" style="fill:rgb(95,91,136);"/>
        <path d="M102.94,145.486C102.624,145.531 102.312,145.585 102.004,145.652L101.995,145.655C96.3,146.888 92.004,151.922 91.929,157.997C91.845,165.058 97.502,170.852 104.563,170.938C111.624,171.021 117.419,165.365 117.503,158.305C117.553,154.202 115.663,150.526 112.686,148.151C113.038,151.924 112.469,156.6 107.655,157.102L107.743,149.728C107.78,146.743 104.986,145.39 102.94,145.486Z" style="fill:rgb(244,130,106);"/>
        <path d="M187.203,145.474C187.52,145.515 187.832,145.564 188.141,145.626L188.15,145.629C193.861,146.783 198.227,151.757 198.386,157.83C198.569,164.89 192.993,170.761 185.934,170.943C178.875,171.126 173.003,165.552 172.82,158.494C172.713,154.391 174.551,150.689 177.495,148.274C177.196,152.051 177.829,156.719 182.649,157.154L182.458,149.782C182.382,146.798 185.156,145.406 187.203,145.474Z" style="fill:rgb(244,130,106);"/>
        <path d="M145.156,209.519C169.025,209.519 188.937,180.065 188.937,156.812L188.937,125.922C188.937,101.843 169.236,82.144 145.163,82.144L145.156,82.144C121.084,82.144 101.381,101.843 101.381,125.922L101.381,156.158C101.381,181.642 118.751,209.519 145.156,209.519Z" style="fill:rgb(249,170,128);"/>
        <path d="M115.105,155.67C119.181,155.745 122.424,159.11 122.347,163.186C122.272,167.259 118.907,170.502 114.833,170.427C110.758,170.352 107.515,166.987 107.59,162.912C107.666,158.838 111.032,155.595 115.105,155.67Z" style="fill:rgb(243,122,112);"/>
        <path d="M175.486,156.844C179.561,156.92 182.803,160.286 182.729,164.359C182.652,168.435 179.287,171.678 175.212,171.602C171.138,171.527 167.895,168.161 167.971,164.087C168.045,160.012 171.411,156.769 175.486,156.844Z" style="fill:rgb(243,122,112);"/>
        <path d="M159.696,135.362C158.775,135.78 158.366,136.868 158.784,137.789C159.201,138.71 160.291,139.121 161.212,138.703C161.227,138.697 166.758,136.079 172.037,139.399C172.897,139.939 174.036,139.68 174.576,138.821C175.116,137.961 174.856,136.822 173.997,136.282C167.024,131.897 159.716,135.354 159.696,135.362Z" style="fill:rgb(101,75,62);"/>
        <path d="M116.406,136.179C115.522,136.671 115.201,137.788 115.692,138.672C116.184,139.558 117.302,139.877 118.187,139.386C118.202,139.378 123.501,136.32 129.033,139.2C129.934,139.668 131.047,139.317 131.516,138.416C131.985,137.516 131.634,136.401 130.733,135.933C123.427,132.13 116.424,136.168 116.406,136.179Z" style="fill:rgb(101,75,62);"/>
        <path d="M143.98,157.802C143.165,160.017 141.739,164.028 141.86,164.702C142.032,165.642 146.88,166.512 148.153,165.274C149.001,164.451 147.95,160.833 147.031,158.398C145.777,155.078 145.08,154.82 143.98,157.802Z" style="fill:rgb(251,187,151);"/>
        <path d="M135.961,175.301C135.961,180.38 140.08,184.499 145.159,184.499C150.238,184.499 154.358,180.38 154.358,175.301C154.358,174.367 153.598,173.606 152.666,173.606L137.654,173.606C136.721,173.606 135.961,174.367 135.961,175.301Z" style="fill:rgb(0,1,16);"/>
        <path d="M151.738,173.606L138.582,173.606L138.582,175.164C138.582,175.974 139.244,176.637 140.055,176.637L150.264,176.637C151.075,176.637 151.738,175.974 151.738,175.164L151.738,173.606Z" style="fill:white;"/>
        <path d="M138.492,181.639C140.168,183.4 142.536,184.499 145.159,184.499C147.783,184.499 150.149,183.4 151.826,181.639C150.149,179.876 147.783,178.778 145.159,178.778C142.536,178.778 140.168,179.876 138.492,181.639Z" style="fill:rgb(241,102,117);"/>
        <path d="M166.571,154.635C169.477,154.635 171.844,152.266 171.844,149.362C171.844,146.458 169.477,144.09 166.571,144.09C163.668,144.09 161.299,146.458 161.299,149.362C161.299,152.266 163.668,154.635 166.571,154.635Z" style="fill:rgb(28,32,77);"/>
        <path d="M123.749,154.635C126.651,154.635 129.021,152.266 129.021,149.362C129.021,146.458 126.651,144.09 123.749,144.09C120.844,144.09 118.475,146.458 118.475,149.362C118.475,152.266 120.844,154.635 123.749,154.635Z" style="fill:rgb(28,32,77);"/>
        <path d="M111.16,164.302C111.264,164.655 111.635,164.854 111.986,164.75C112.339,164.646 112.539,164.275 112.435,163.923C112.422,163.884 109.069,152.516 103.307,147.79L102.96,149.198C108.055,153.784 111.148,164.267 111.16,164.302Z" style="fill:rgb(146,200,215);"/>
        <path d="M112.783,190.627C113.146,190.668 113.476,190.404 113.516,190.039C113.557,189.675 113.293,189.345 112.929,189.306L112.693,189.28C108.726,188.783 105.478,185.124 103.294,180.695C101.608,177.27 100.566,173.404 100.313,170.159C99.844,169.987 99.389,169.788 98.948,169.565C99.115,173.12 100.227,177.474 102.104,181.283C104.464,186.074 108.051,190.04 112.533,190.601L112.783,190.627Z" style="fill:rgb(146,200,215);"/>
        <path d="M179.155,164.302C179.049,164.655 178.68,164.854 178.327,164.75C177.976,164.646 177.775,164.275 177.879,163.923C177.891,163.884 181.245,152.516 187.006,147.79L187.354,149.198C182.259,153.784 179.165,164.267 179.155,164.302Z" style="fill:rgb(146,200,215);"/>
        <path d="M177.53,190.627C177.166,190.668 176.837,190.404 176.797,190.039C176.758,189.675 177.021,189.345 177.386,189.306L177.62,189.28C181.587,188.783 184.836,185.124 187.018,180.695C188.705,177.27 189.747,173.404 190,170.159C190.469,169.987 190.924,169.788 191.365,169.565C191.199,173.12 190.086,177.474 188.209,181.283C185.849,186.074 182.263,190.04 177.78,190.601L177.53,190.627Z" style="fill:rgb(146,200,215);"/>
        <path d="M145.159,159.213L111.06,161.035C111.06,161.035 109.697,161.427 109.738,162.679C109.778,163.932 110.974,188.091 110.974,188.091C110.974,188.091 111.032,190.264 112.382,192.144C113.734,194.025 124.465,211.71 145.159,211.71C165.853,211.71 176.584,194.025 177.937,192.144C179.287,190.264 179.345,188.091 179.345,188.091C179.345,188.091 180.54,163.932 180.581,162.679C180.621,161.427 179.259,161.035 179.259,161.035L145.159,159.213Z" style="fill:white;"/>
        <path d="M145.156,161.837L177.927,163.588C177.638,171.702 177.087,179.858 176.725,187.975C176.686,188.839 176.307,189.92 175.807,190.616C174.893,191.885 174.078,193.128 173.097,194.371C171.302,196.642 169.294,198.759 167.094,200.643C160.838,206 153.464,209.09 145.156,209.09C136.849,209.09 129.476,206 123.219,200.643C121.02,198.759 119.011,196.642 117.217,194.371C116.235,193.128 115.42,191.885 114.508,190.616C114.007,189.92 113.627,188.839 113.587,187.975C113.226,179.858 112.676,171.702 112.389,163.588L145.156,161.837Z" style="fill:rgb(192,224,231);"/>
        <path d="M113.482,185.708C113.37,183.383 113.246,181.055 113.119,178.727L135.659,177.153L113.482,185.708ZM176.775,186.901L176.725,187.975C176.686,188.839 176.307,189.92 175.807,190.616C174.893,191.885 174.078,193.128 173.097,194.371C171.302,196.642 169.294,198.759 167.094,200.643C160.838,206 153.464,209.09 145.156,209.09C136.849,209.09 129.476,206 123.219,200.643C121.02,198.759 119.011,196.642 117.217,194.371C116.235,193.128 115.42,191.885 114.508,190.616C114.37,190.425 114.243,190.206 114.128,189.971C114.128,189.971 119.441,195.72 137.891,195.72C156.34,195.72 176.775,186.901 176.775,186.901ZM177.441,174.129C177.272,177.301 177.094,180.475 176.934,183.644L146.705,171.982L177.441,174.129Z" style="fill:rgb(146,200,215);"/>
        <path d="M115.49,217.52C115.49,217.52 112.515,216.008 111.46,216.36C110.405,216.712 65.086,237.349 63.093,238.58C63.093,238.58 70.79,312.473 69.405,327.878L76.694,383.383C76.546,383.525 58.423,460.746 56.41,468.739C56.41,468.739 55.707,471.788 58.99,472.961C62.272,474.134 120.665,483.981 120.665,483.981C120.665,483.981 126.761,483.981 127.699,479.995C128.638,476.009 135.592,377.552 135.592,377.552L110.15,219.681L115.49,217.52Z" style="fill:rgb(40,45,107);"/>
        <path d="M174.831,217.52C174.831,217.52 177.805,216.008 178.86,216.36C179.915,216.712 225.233,237.349 227.225,238.58C227.225,238.58 219.53,312.473 220.915,327.878L213.624,383.383C213.774,383.525 231.896,460.746 233.91,468.739C233.91,468.739 234.613,471.788 231.329,472.961C228.048,474.134 169.656,483.981 169.656,483.981C169.656,483.981 163.559,483.981 162.621,479.995C161.683,476.009 154.727,377.552 154.727,377.552L180.169,219.681L174.831,217.52Z" style="fill:rgb(40,45,107);"/>
        <path d="M174.831,217.52C174.831,217.52 177.805,216.008 178.86,216.36C179.202,216.474 184.208,218.725 190.879,221.754L198.699,281.185L155.003,375.835L180.169,219.681L174.831,217.52Z" style="fill:rgb(28,32,77);"/>
        <path d="M115.49,217.52C115.49,217.52 112.515,216.008 111.46,216.36C111.118,216.474 106.113,218.725 99.441,221.754L91.62,281.185L135.316,375.835L110.15,219.681L115.49,217.52Z" style="fill:rgb(28,32,77);"/>
        <path d="M117.389,118.01C115.145,119.793 113.508,122.491 113.508,126.476C113.508,135.879 111.725,143.334 105.729,143.334L105.729,150.709C105.729,154.832 105.325,159.004 101.435,159.004C101.435,150.133 98.73,146.647 98.73,146.647L98.73,124.407C98.73,114.033 101.648,100.093 115.264,90.531C132.885,78.155 157.436,78.155 175.056,90.531C188.671,100.093 191.588,114.033 191.588,124.407L191.588,146.647C191.588,146.647 188.885,150.133 188.885,159.004C184.994,159.004 184.591,154.832 184.591,150.709L184.591,143.334C178.594,143.334 176.811,135.879 176.811,126.476C176.811,122.421 175.116,119.7 172.813,117.917C175.742,123.435 174.296,127.69 166.782,120.859C171.711,130.551 154.587,130.521 149.542,121.39C149.542,121.39 148.089,126.463 145.488,125.587C142.89,124.713 142.754,118.683 142.754,118.683C138.468,127.492 126.181,128.377 125.314,118.985C122.012,124.696 114.431,124.338 117.389,118.01Z" style="fill:rgb(101,75,62);"/>
        <path d="M342.947,179.952L330.584,185.78C330.584,185.78 329.007,205.188 332.132,218.166C335.257,231.146 347.274,231.385 347.274,231.385C347.274,231.385 347.035,239.797 348.957,242.441C350.878,245.084 378.039,259.025 425.625,241.48C425.625,241.48 426.827,240.998 426.946,238.956C427.068,236.913 426.465,233.188 426.465,233.188C426.465,233.188 445.815,219.368 446.295,210.957C446.776,202.544 443.411,185.72 439.083,162.887C434.756,140.055 427.307,126.835 408.56,127.317C389.814,127.798 342.947,179.952 342.947,179.952Z" style="fill:rgb(28,32,77);"/>
        <path d="M439.583,437.162C437.578,422.818 438.013,407.564 440.888,387.288C443.333,369.992 444.646,356.218 444.893,344.328C445.027,337.916 448.073,328.828 447.598,323.255C447.094,317.389 446.721,314.146 445.568,308.625C441.278,288.138 453.953,270.102 453.953,270.102C453.953,270.102 413.575,261.214 410,259.426C406.428,257.641 406.103,250.134 406.103,250.134L388.843,246.427L385.651,246.427L368.391,250.134C368.391,250.134 368.065,257.641 364.494,259.426C360.917,261.214 320.54,270.102 320.54,270.102C320.54,270.102 333.214,288.138 328.928,308.625C327.771,314.146 327.397,317.389 326.894,323.255C326.419,328.828 329.467,337.916 329.599,344.328C329.847,356.218 331.161,369.992 333.606,387.288C336.481,407.564 336.915,422.818 334.909,437.162L439.583,437.162Z" style="fill:rgb(249,170,128);"/>
        <path d="M387.247,202.609C397.625,202.609 406.121,211.101 406.121,221.482L406.121,257.611C406.121,267.992 397.625,276.483 387.247,276.483C376.867,276.483 368.375,267.992 368.375,257.611L368.375,221.482C368.375,211.101 376.867,202.609 387.247,202.609Z" style="fill:rgb(249,170,128);"/>
        <path d="M428.407,185.985C428.705,186.027 428.997,186.078 429.287,186.141L429.296,186.143L429.293,186.142C434.645,187.302 438.68,192.031 438.752,197.738C438.829,204.372 433.516,209.814 426.881,209.894C420.249,209.975 414.805,204.661 414.726,198.028C414.679,194.172 416.453,190.72 419.251,188.488C418.922,192.033 419.455,196.426 423.976,196.897L423.895,189.97C423.86,187.166 426.485,185.895 428.407,185.985Z" style="fill:rgb(243,122,112);"/>
        <path d="M346.253,185.414C345.955,185.451 345.662,185.499 345.37,185.557L345.362,185.56L345.362,185.559C339.996,186.644 335.895,191.315 335.746,197.021C335.575,203.654 340.813,209.171 347.442,209.341C354.075,209.514 359.592,204.277 359.763,197.646C359.865,193.791 358.14,190.314 355.373,188.044C355.653,191.593 355.059,195.978 350.529,196.387L350.709,189.46C350.781,186.657 348.175,185.349 346.253,185.414Z" style="fill:rgb(243,122,112);"/>
        <path d="M441.577,290.005L467.745,293.045C467.745,293.045 466.614,286.181 472.51,294.655C478.404,303.128 507.714,348.773 515.82,367.93C517.487,371.875 518.846,375.322 519.88,378.491C528.428,404.605 486.449,444.94 464.012,460.116C455.867,465.627 450.917,464.931 451.02,463.116L451.55,454.088C457.73,447.193 492.407,389.861 490.722,386.494C488.879,382.81 444.002,320.722 444.002,320.722L441.577,290.005Z" style="fill:rgb(249,170,128);"/>
        <path d="M511.731,358.695C512.153,359.618 512.556,360.512 512.943,361.372L489.605,384.711C486.785,380.46 479.251,369.824 471.098,358.413L511.731,358.695Z" style="fill:rgb(243,122,112);"/>
        <path d="M387.251,246.141C364.826,246.141 346.118,218.473 346.118,196.625L346.118,167.604C346.118,144.982 364.627,126.475 387.245,126.475L387.251,126.475C409.866,126.475 428.375,144.982 428.375,167.604L428.375,196.01C428.375,219.953 412.056,246.141 387.251,246.141Z" style="fill:rgb(249,170,128);"/>
        <path d="M346.118,194.059L346.118,167.604C346.118,165.292 346.313,163.024 346.685,160.814C364.929,160.125 388.659,159.275 388.659,159.275C388.659,159.275 385.583,198.271 346.118,194.059Z" style="fill:rgb(243,122,112);"/>
        <path d="M333.673,290.005L307.505,293.045C307.505,293.045 308.637,286.181 302.74,294.655C296.846,303.128 267.539,348.773 259.431,367.93C257.763,371.875 256.403,375.322 255.368,378.491C246.822,404.605 288.802,444.94 311.238,460.116C319.383,465.627 324.334,464.931 324.229,463.116L323.7,454.088C317.523,447.193 282.846,389.861 284.527,386.494C286.37,382.81 331.249,320.722 331.249,320.722L333.673,290.005Z" style="fill:rgb(249,170,128);"/>
        <path d="M263.519,358.695C263.098,359.618 262.694,360.512 262.308,361.372L285.645,384.711C288.465,380.46 296,369.824 304.152,358.413L263.519,358.695Z" style="fill:rgb(243,122,112);"/>
        <path d="M510.708,356.98C511.348,358.371 511.952,359.703 512.521,360.967L489.393,384.094C485.601,378.594 478.107,368.128 470.266,357.26L510.708,356.98Z" style="fill:rgb(243,122,112);"/>
        <path d="M442.457,425.304C445.33,442.722 453.949,476.431 456.19,500L315.492,500C317.733,476.431 326.355,442.722 332.554,425.304L442.457,425.304Z" style="fill:rgb(40,45,107);"/>
        <path d="M442.457,425.304C444.237,436.1 448.224,453.151 451.534,470.171C445.094,465.121 442.236,451.784 442.236,451.784L320.21,470.756C323.764,453.861 328.489,436.865 332.338,425.918L337.321,425.304L442.457,425.304Z" style="fill:rgb(33,32,82);"/>
        <path d="M406.121,245.809L406.121,240.477C400.697,243.995 394.431,246.091 387.501,246.141C387.417,246.141 387.333,246.142 387.249,246.142C380.483,246.142 374.053,243.622 368.375,239.501L368.375,253.803C367.889,255.877 366.975,258.254 365.266,259.281C365.351,260.272 399.58,248.389 406.121,245.809Z" style="fill:rgb(243,122,112);"/>
        <path d="M415.333,204.944C411.717,205.012 408.841,207.997 408.909,211.61C408.975,215.225 411.959,218.101 415.576,218.034C419.189,217.967 422.065,214.983 421.998,211.367C421.931,207.755 418.947,204.879 415.333,204.944Z" style="fill:rgb(243,122,112);"/>
        <path d="M357.718,205.987C354.102,206.054 351.227,209.038 351.294,212.652C351.361,216.266 354.345,219.143 357.958,219.077C361.574,219.01 364.45,216.024 364.382,212.411C364.316,208.797 361.332,205.918 357.718,205.987Z" style="fill:rgb(243,122,112);"/>
        <path d="M374.074,177.426C374.908,177.805 375.279,178.79 374.901,179.626C374.522,180.461 373.536,180.832 372.699,180.454C372.686,180.447 367.674,178.076 362.889,181.083C362.11,181.574 361.079,181.34 360.588,180.56C360.098,179.781 360.333,178.748 361.114,178.259C367.431,174.287 374.053,177.418 374.074,177.426Z" style="fill:rgb(28,32,77);"/>
        <path d="M413.307,178.167C414.108,178.612 414.397,179.625 413.952,180.426C413.505,181.229 412.492,181.517 411.693,181.073C411.678,181.066 406.875,178.294 401.863,180.904C401.045,181.329 400.036,181.011 399.612,180.193C399.189,179.378 399.505,178.368 400.323,177.943C406.943,174.497 413.29,178.156 413.307,178.167Z" style="fill:rgb(28,32,77);"/>
        <path d="M389.347,198.286C390.199,200.704 391.682,205.077 391.555,205.761C391.377,206.719 386.325,206.969 384.998,205.509C384.116,204.536 385.21,200.909 386.169,198.495C387.474,195.205 388.2,195.03 389.347,198.286Z" style="fill:rgb(252,205,192);"/>
        <path d="M408.074,188.734C405.246,188.734 402.956,191.026 402.956,193.853C402.956,196.68 405.246,198.972 408.074,198.972C410.9,198.972 413.193,196.68 413.193,193.853C413.193,193.536 413.165,193.227 413.11,192.924L413.259,192.902C413.849,192.808 414.479,192.595 415.093,192.199C415.368,192.024 415.45,191.658 415.274,191.381C415.098,191.106 414.731,191.026 414.456,191.202C413.881,191.571 413.29,191.73 412.752,191.774L412.74,191.745C413.312,191.533 413.915,191.169 414.412,190.553C414.618,190.299 414.579,189.926 414.323,189.721C414.071,189.517 413.697,189.557 413.491,189.811C413.082,190.316 412.577,190.581 412.121,190.719L412.069,190.652C412.453,190.438 412.852,190.104 413.119,189.577C413.268,189.286 413.154,188.929 412.861,188.78C412.572,188.631 412.215,188.746 412.067,189.037C411.838,189.485 411.445,189.687 411.167,189.775C410.308,189.123 409.235,188.734 408.074,188.734ZM366.5,188.734C365.328,188.734 364.246,189.128 363.385,189.792C363.104,189.714 362.671,189.518 362.428,189.037C362.277,188.746 361.92,188.631 361.63,188.78C361.34,188.929 361.225,189.286 361.374,189.577C361.657,190.128 362.08,190.47 362.48,190.683L362.438,190.737C361.965,190.607 361.43,190.342 361.001,189.811C360.796,189.557 360.422,189.517 360.17,189.721C359.915,189.926 359.875,190.299 360.081,190.553C360.598,191.193 361.228,191.562 361.822,191.77L361.815,191.779C361.254,191.744 360.638,191.587 360.039,191.202C359.761,191.026 359.397,191.106 359.218,191.381C359.046,191.658 359.125,192.024 359.4,192.199C360.016,192.595 360.643,192.808 361.235,192.902L361.463,192.935C361.411,193.233 361.38,193.541 361.38,193.853C361.38,196.68 363.674,198.972 366.5,198.972C369.328,198.972 371.62,196.68 371.62,193.853C371.62,191.026 369.328,188.734 366.5,188.734Z" style="fill:rgb(28,32,77);"/>
        <path d="M416.558,204.248C416.458,204.59 416.096,204.785 415.753,204.683C415.415,204.582 415.219,204.221 415.321,203.881C415.331,203.842 424.712,188.07 429.68,188.855L428.278,189.945C423.333,194.397 416.569,204.212 416.558,204.248Z" style="fill:rgb(146,200,215);"/>
        <path d="M356.977,204.028C357.079,204.369 357.441,204.564 357.782,204.462C358.124,204.361 358.317,204 358.216,203.659C358.207,203.622 348.723,189.333 343.755,190.118L344.52,190.444L345.127,190.855C350.072,195.307 356.968,203.992 356.977,204.028Z" style="fill:rgb(146,200,215);"/>
        <path d="M358.481,228.258C358.835,228.297 359.155,228.042 359.194,227.688C359.231,227.334 358.976,227.014 358.622,226.975L358.396,226.951C351.147,226.043 344.827,215.288 344.33,208.888C343.874,208.632 343.434,208.358 342.988,208.054C343.327,215.265 350.105,227.216 358.238,228.232L358.481,228.258Z" style="fill:rgb(146,200,215);"/>
        <path d="M414.689,228.258C414.334,228.297 414.016,228.042 413.976,227.688C413.936,227.334 414.194,227.014 414.545,226.975L414.774,226.951C422.02,226.043 429.666,215.288 430.163,208.888C430.622,208.632 431.062,208.358 431.508,208.054C431.167,215.265 423.063,227.216 414.929,228.232L414.689,228.258Z" style="fill:rgb(146,200,215);"/>
        <path d="M386.642,201.18L416.072,202.751C416.072,202.751 417.247,203.09 417.213,204.17C417.176,205.253 416.145,226.102 416.145,226.102C416.145,226.102 416.096,227.978 414.929,229.602C413.763,231.223 404.502,246.485 386.642,246.485C368.783,246.485 359.521,231.223 358.354,229.602C357.19,227.978 357.141,226.102 357.141,226.102C357.141,226.102 356.108,205.253 356.074,204.17C356.037,203.09 357.212,202.751 357.212,202.751L386.642,201.18Z" style="fill:white;"/>
        <path d="M386.644,203.444L358.365,204.954C358.612,211.958 359.087,218.996 359.4,226.001C359.434,226.748 359.763,227.681 360.195,228.28C360.982,229.377 361.685,230.449 362.533,231.521C364.081,233.481 365.814,235.309 367.711,236.934C373.113,241.557 379.475,244.224 386.644,244.224C393.814,244.224 400.178,241.557 405.578,236.934C407.475,235.309 409.208,233.481 410.758,231.521C411.606,230.449 412.307,229.377 413.096,228.28C413.528,227.681 413.857,226.748 413.889,226.001C414.201,218.996 414.677,211.958 414.926,204.954L386.644,203.444Z" style="fill:rgb(192,224,231);"/>
        <path d="M413.981,224.046C414.078,222.039 414.187,220.03 414.295,218.021L394.841,216.662L413.981,224.046ZM359.357,225.075L359.4,226.001C359.434,226.748 359.763,227.681 360.195,228.28C360.982,229.377 361.685,230.449 362.533,231.521C364.081,233.481 365.814,235.309 367.711,236.934C373.113,241.557 379.475,244.224 386.644,244.224C393.814,244.224 400.178,241.557 405.578,236.934C407.475,235.309 409.208,233.481 410.758,231.521C411.606,230.449 412.307,229.377 413.096,228.28C413.213,228.116 413.325,227.927 413.424,227.724C413.424,227.724 408.839,232.687 392.915,232.687C376.994,232.687 359.357,225.075 359.357,225.075ZM358.783,214.052C358.926,216.79 359.08,219.529 359.221,222.264L385.309,212.199L358.783,214.052Z" style="fill:rgb(146,200,215);"/>
        <path d="M387.247,273.266L389.264,271.051L395.33,271.862L412.993,258.883L453.809,269.136C449.614,296.418 440.458,398.313 446.036,421.502C446.036,421.502 446.758,423.586 445.636,426.229C444.514,428.873 442.192,433.119 442.192,433.119L329.926,432.168C329.455,431.274 323.957,291.787 321.277,270.563L331.756,266.664L361.502,258.883L379.163,271.862L385.228,271.051L387.247,273.266Z" style="fill:white;"/>
        <path d="M391.744,281.151L392.643,284.976L401.74,379.649L387.247,404.253L372.756,379.649L381.852,284.976L382.75,281.151L387.247,283.479L391.744,281.151Z" style="fill:rgb(240,83,104);"/>
        <path d="M391.744,281.152L392.643,284.976L401.74,379.649L387.247,404.253C387.247,404.253 395.758,383.064 396.095,379.779C396.435,376.496 390.976,286.203 389.372,285.362C387.766,284.522 384.577,284.604 384.577,284.604L386.618,283.152L387.247,283.479L391.744,281.152Z" style="fill:rgb(220,56,81);"/>
        <path d="M381.852,285.94L377.603,276.622C381.276,273.167 393.22,273.167 396.893,276.622L392.643,285.94C389.649,285.148 384.846,285.148 381.852,285.94Z" style="fill:rgb(240,83,104);"/>
        <path d="M387.343,274.031C391.216,274.046 395.07,274.909 396.893,276.622L392.643,285.94C391.487,285.636 390.062,285.448 388.576,285.378C389.378,284.733 390.433,283.848 390.468,283.637C390.526,283.293 390.454,275.275 390.117,275.142L387.343,274.031ZM379.294,280.333L377.603,276.622C378.922,275.379 381.315,274.585 384.007,274.235L379.294,280.333Z" style="fill:rgb(220,56,81);"/>
        <path d="M406.539,251.642C406.539,251.642 408.275,251.382 408.872,251.642C409.47,251.901 411.504,255.493 412.762,257.263C412.762,257.263 414.731,259.909 413.894,262.356C413.054,264.803 402.103,284.897 402.103,284.897C402.103,284.897 401.326,285.965 400.07,284.924C398.812,283.883 389.264,271.051 389.264,271.051L406.539,253.255L406.539,251.642Z" style="fill:rgb(40,45,107);"/>
        <path d="M368.312,251.463C368.312,251.463 366.577,251.203 365.978,251.463C365.38,251.723 363.344,255.315 362.089,257.085C362.089,257.085 359.761,259.909 360.601,262.356C361.437,264.803 372.389,284.897 372.389,284.897C372.389,284.897 373.167,285.965 374.425,284.924C375.681,283.883 385.228,271.051 385.228,271.051L368.312,253.076L368.312,251.463Z" style="fill:rgb(40,45,107);"/>
        <path d="M453.809,269.136C453.809,269.136 466.143,271.575 473.194,280.869C480.245,290.162 515.172,353.61 515.172,353.61C515.172,353.61 516.133,355.694 515.333,356.975C514.533,358.259 491.138,377.646 484.087,379.408C484.087,379.408 482.004,379.567 480.564,378.286C479.122,377.004 451.833,337.115 451.833,337.115C451.833,337.115 444.783,296.886 453.809,269.136Z" style="fill:white;"/>
        <path d="M468.374,361.146C460.538,349.84 447.553,331.53 447.553,331.53C447.553,331.53 447.041,318.546 449.285,299.135L468.374,361.146Z" style="fill:rgb(251,210,209);"/>
        <path d="M336.494,265.331C332.214,265.331 308.35,273.479 301.302,282.771C294.251,292.064 259.321,353.61 259.321,353.61C259.321,353.61 258.361,355.694 259.161,356.975C259.962,358.259 283.356,377.646 290.405,379.408C290.405,379.408 292.487,379.567 293.931,378.286C295.373,377.004 322.662,337.115 322.662,337.115C322.662,337.115 345.521,293.082 336.494,265.331Z" style="fill:white;"/>
        <path d="M306.121,361.146C313.957,349.84 325.396,333.192 325.396,333.192C325.396,333.192 325.79,319.26 325.208,299.135L306.121,361.146Z" style="fill:rgb(251,210,209);"/>
        <path d="M346.034,191.797L346.034,197.6C347.996,197.6 350.371,194.748 350.371,192.19L350.371,186.877C350.371,186.877 354.977,179.576 354.977,171.903C354.977,164.228 356.763,159.657 363.333,159.657C369.902,159.657 376.48,163.095 387.247,163.095C398.014,163.095 404.592,159.657 411.163,159.657C417.73,159.657 419.516,164.228 419.516,171.903C419.516,179.576 424.125,186.877 424.125,186.877L424.125,192.19C424.125,194.748 426.5,197.6 428.461,197.6L428.461,191.797C428.434,187.789 429.898,186.325 429.898,186.325L429.898,169.078C429.898,110.366 344.597,110.366 344.597,169.078L344.597,186.325C344.597,186.325 346.058,187.789 346.034,191.797Z" style="fill:rgb(28,32,77);"/>
        <path d="M387.417,153.274C384.209,174.319 375.193,195.995 340.206,188.419L330.584,185.78C330.584,185.78 333.98,165.054 343.413,147.987C352.849,130.919 379.077,113.951 388.324,111.917C397.568,109.887 407.946,122.281 409.077,124.719C410.209,127.158 410.259,132.216 409.62,133.599C394.659,143.86 390.907,130.387 387.417,153.274Z" style="fill:rgb(28,32,77);"/>
        <path d="M311.121,460.235C318.731,466.417 324.914,467.724 328.242,457.025C331.57,446.327 332.522,445.731 332.522,445.731C332.522,445.731 337.395,448.823 340.01,449.298C342.626,449.773 342.98,447.515 342.385,446.564C341.793,445.613 344.881,447.158 345.477,445.613C346.073,444.068 344.171,441.929 344.171,441.929C344.171,441.929 346.43,440.026 345.598,438.48C344.766,436.935 329.309,426.712 326.696,429.208C324.081,431.705 317.781,448.704 317.781,448.704L311.121,460.235Z" style="fill:rgb(249,170,128);"/>
        <path d="M342.504,445.591C342.712,445.724 342.774,446.001 342.64,446.209C342.51,446.417 342.232,446.479 342.023,446.346C339.429,444.693 337.511,443.425 336.048,442.455C331.84,439.67 331.637,439.536 330.988,440.51C330.852,440.716 330.572,440.772 330.367,440.637C330.161,440.5 330.104,440.222 330.24,440.015C331.387,438.295 331.625,438.452 336.543,441.709C338.032,442.695 339.98,443.985 342.504,445.591Z" style="fill:rgb(243,122,112);"/>
        <path d="M344.644,441.312C344.852,441.443 344.915,441.721 344.78,441.93C344.649,442.137 344.372,442.199 344.163,442.067L341.883,440.613C333.502,435.266 330.772,433.524 329.918,434.806C329.78,435.012 329.502,435.066 329.294,434.93C329.088,434.793 329.034,434.513 329.17,434.308C330.511,432.295 333.423,434.154 342.363,439.858L344.644,441.312Z" style="fill:rgb(243,122,112);"/>
        <path d="M319.876,442.774C319.955,442.541 320.21,442.416 320.446,442.496C320.678,442.576 320.805,442.831 320.723,443.065L316.688,453.085C316.607,453.319 316.352,453.444 316.119,453.363C315.884,453.284 315.76,453.028 315.839,452.794L319.876,442.774Z" style="fill:rgb(243,122,112);"/>
        <path d="M464.129,460.235C456.522,466.417 450.337,467.724 447.008,457.025C443.683,446.327 442.731,445.731 442.731,445.731C442.731,445.731 437.855,448.823 435.24,449.298C432.625,449.773 432.271,447.515 432.865,446.564C433.457,445.613 430.369,447.158 429.774,445.613C429.179,444.068 431.082,441.929 431.082,441.929C431.082,441.929 428.823,440.026 429.655,438.48C430.485,436.935 445.941,426.712 448.556,429.208C451.169,431.705 457.472,448.704 457.472,448.704L464.129,460.235Z" style="fill:rgb(249,170,128);"/>
        <path d="M432.747,445.591C432.538,445.724 432.476,446.001 432.61,446.209C432.742,446.417 433.019,446.479 433.226,446.346C435.822,444.693 437.739,443.425 439.203,442.455C443.411,439.67 443.613,439.536 444.262,440.51C444.398,440.716 444.677,440.772 444.883,440.637C445.088,440.5 445.146,440.222 445.009,440.015C443.864,438.295 443.625,438.452 438.707,441.709C437.219,442.695 435.269,443.985 432.747,445.591Z" style="fill:rgb(243,122,112);"/>
        <path d="M430.606,441.312C430.398,441.443 430.336,441.721 430.47,441.93C430.604,442.137 430.878,442.199 431.086,442.067L433.367,440.613C441.749,435.266 444.477,433.524 445.333,434.806C445.471,435.012 445.749,435.066 445.956,434.93C446.162,434.793 446.218,434.513 446.08,434.308C444.741,432.295 441.828,434.154 432.887,439.858L430.606,441.312Z" style="fill:rgb(243,122,112);"/>
        <path d="M454.839,442.238C454.76,442.005 454.505,441.88 454.27,441.96C454.037,442.04 453.911,442.296 453.993,442.529L458.561,453.085C458.644,453.319 458.899,453.444 459.134,453.363C459.367,453.284 459.491,453.028 459.412,452.794L454.839,442.238Z" style="fill:rgb(243,122,112);"/>
    </g>
</svg>
